{"glyphs":{"0":{"ha":798,"x_min":76,"x_max":720,"o":"m 375 79 l 393 79 q 469 105 433 79 q 526 173 505 131 q 581 424 581 277 l 581 488 q 534 727 581 637 q 411 817 487 817 l 393 817 q 309 786 348 817 q 199 440 199 699 l 199 408 q 252 159 199 253 q 307 99 274 119 q 375 79 340 79 m 399 904 l 425 904 q 545 872 488 903 q 699 651 661 809 q 720 479 720 565 l 720 451 l 720 437 q 693 250 719 335 q 534 28 644 89 q 391 -9 465 -9 l 378 -9 q 153 107 231 -9 q 76 415 76 224 l 76 444 q 98 625 76 536 q 269 871 144 808 q 399 904 332 904 z "},"1":{"ha":558,"x_min":111,"x_max":439,"o":"m 412 149 q 425 128 412 149 q 439 77 439 106 q 406 25 439 47 q 311 3 372 3 l 298 4 l 286 4 q 189 41 237 4 q 165 86 165 59 q 195 156 165 114 q 234 234 225 198 q 243 448 243 271 q 227 671 243 626 q 172 723 210 717 q 111 760 111 732 q 172 822 111 787 q 327 889 291 889 l 337 889 q 375 868 363 889 q 387 778 387 846 l 382 674 l 377 444 q 381 220 377 248 q 412 149 385 192 z "},"2":{"ha":740,"x_min":92,"x_max":653,"o":"m 446 504 q 471 538 446 504 q 496 648 496 572 q 456 761 496 724 q 361 798 416 798 q 269 778 305 798 q 198 715 233 758 q 130 673 163 673 q 101 712 101 673 q 187 845 101 791 q 366 899 273 899 l 387 899 q 487 882 437 899 q 570 828 536 864 q 631 666 631 765 q 563 474 631 567 q 393 303 521 416 q 266 147 266 189 q 297 117 266 123 q 394 113 316 113 q 497 116 471 113 q 558 127 522 120 q 607 134 594 134 q 653 97 653 134 l 653 80 q 608 22 653 39 q 469 6 562 6 l 342 6 l 321 7 q 139 11 159 7 q 92 61 92 20 l 92 77 q 160 212 92 128 q 298 349 201 262 q 446 504 395 435 z "},"3":{"ha":730,"x_min":89,"x_max":644,"o":"m 456 707 q 424 773 456 747 q 341 799 392 799 q 229 767 290 799 q 159 735 168 735 q 119 778 119 735 q 195 861 119 821 q 367 902 272 902 l 389 902 q 539 856 488 902 q 590 728 590 810 q 536 560 590 646 q 515 529 536 559 q 494 496 494 498 q 538 452 494 486 q 613 366 583 418 q 644 256 644 315 l 644 235 q 546 41 644 121 q 453 -10 512 12 q 330 -32 395 -32 l 309 -32 q 154 8 220 -32 q 89 100 89 47 q 141 134 89 134 q 211 104 144 134 q 344 75 279 75 q 456 122 409 75 q 503 237 503 169 q 460 349 503 306 q 344 412 418 391 q 271 465 271 433 q 331 516 271 484 q 424 592 392 548 q 456 707 456 636 z "},"4":{"ha":773,"x_min":66,"x_max":681,"o":"m 456 731 q 454 739 456 739 l 367 612 q 165 313 165 319 q 189 307 165 307 l 217 307 l 222 308 l 380 311 q 391 312 385 312 q 435 355 435 312 q 437 374 437 368 l 437 380 l 438 387 l 444 490 l 444 503 l 446 549 l 446 562 l 448 593 q 450 625 450 614 l 451 631 q 451 644 451 637 l 452 662 q 454 692 454 680 l 456 715 l 456 731 m 598 82 q 575 7 598 39 q 511 -24 553 -24 l 499 -24 q 446 11 465 -24 q 427 115 427 46 q 360 197 427 163 q 217 222 310 222 q 96 238 125 222 q 66 289 66 255 q 109 391 66 323 q 378 772 202 536 q 508 892 467 892 l 520 892 q 575 846 566 892 q 579 650 579 824 q 594 420 579 475 q 645 321 608 366 q 681 275 681 277 q 648 202 681 231 q 595 142 595 155 q 598 82 598 87 z "},"5":{"ha":736,"x_min":87,"x_max":644,"o":"m 570 902 q 625 857 625 902 q 573 800 625 812 q 421 788 547 794 q 276 766 295 782 q 231 606 231 726 q 243 568 231 576 q 324 560 256 560 q 615 408 534 560 q 644 294 644 355 l 644 271 q 554 54 644 137 q 323 -29 465 -29 q 159 7 231 -29 q 87 101 87 43 q 126 142 87 142 q 209 110 147 142 q 341 77 270 77 q 460 131 413 77 q 508 274 508 184 q 433 419 508 364 q 262 462 373 462 l 224 460 q 141 485 158 460 q 123 593 123 509 q 141 756 123 678 q 174 856 158 833 q 225 885 190 878 q 358 893 260 893 l 509 898 q 570 902 559 902 z "},"6":{"ha":759,"x_min":76,"x_max":679,"o":"m 402 492 l 389 492 q 254 433 309 492 q 218 320 218 393 l 218 294 q 264 136 218 195 q 373 77 311 77 l 391 77 q 507 135 458 77 q 556 297 556 193 l 556 304 l 555 311 q 514 443 555 394 q 402 492 472 492 m 679 296 l 679 279 q 679 276 679 277 q 658 166 679 218 q 511 16 615 60 q 395 -9 451 -9 l 360 -9 q 241 20 297 -9 q 100 199 137 74 q 76 355 76 281 l 76 410 q 106 608 76 511 q 304 868 164 795 q 457 910 385 910 q 563 891 530 910 q 596 844 596 871 q 496 793 596 793 q 324 736 395 793 q 261 661 285 704 q 238 581 238 617 q 283 536 238 536 l 410 551 q 656 403 591 551 q 679 296 678 353 z "},"7":{"ha":700,"x_min":70,"x_max":634,"o":"m 634 827 q 608 727 634 796 q 334 13 406 182 q 273 -37 313 -37 q 213 9 213 -37 q 334 374 213 69 q 427 580 371 469 q 482 726 482 691 q 453 772 482 761 q 319 787 412 787 q 173 773 227 787 q 108 758 119 758 q 70 805 70 758 q 103 874 70 851 q 189 897 137 897 l 253 897 l 270 897 l 336 897 q 583 884 531 897 q 634 827 634 872 z "},"8":{"ha":756,"x_min":67,"x_max":665,"o":"m 529 737 q 486 830 529 791 q 389 868 444 868 l 363 868 q 270 831 315 868 q 224 730 224 794 l 224 709 q 262 613 224 659 q 384 549 315 549 l 399 549 q 484 597 440 549 q 528 700 528 646 l 529 711 l 529 737 m 546 233 l 546 258 q 480 393 546 337 q 345 448 414 448 l 340 448 l 334 448 q 231 389 276 448 q 185 269 185 330 l 185 238 q 236 122 185 168 q 365 75 286 75 q 494 119 443 75 q 546 233 546 163 m 183 881 q 222 913 183 881 q 384 945 262 945 q 574 884 506 945 q 642 729 642 823 q 566 552 642 635 q 532 506 532 514 q 556 477 532 498 q 597 439 580 456 q 640 373 614 422 q 665 262 665 324 l 665 248 q 582 59 665 132 q 368 -14 498 -14 l 353 -14 q 150 51 227 -14 q 87 133 107 87 q 67 222 67 179 l 67 252 q 67 253 67 252 q 67 254 67 254 q 67 256 67 255 q 164 449 67 357 q 204 492 204 487 q 173 536 204 498 q 104 718 104 619 q 183 881 104 817 z "},"9":{"ha":758,"x_min":75,"x_max":672,"o":"m 195 618 l 195 590 q 238 462 195 509 q 350 414 281 414 l 369 414 q 489 460 439 414 q 538 576 538 506 l 538 610 q 537 629 537 623 q 490 770 537 710 q 382 830 443 830 l 358 830 q 243 769 292 830 q 195 618 195 707 m 75 597 l 75 631 q 99 745 75 688 q 248 891 142 848 q 364 914 304 914 l 382 914 q 596 820 519 914 q 672 546 672 725 l 672 509 q 648 313 672 412 q 569 142 623 213 q 437 31 515 71 q 285 -9 359 -9 l 256 -9 q 185 9 213 -9 q 157 54 157 28 q 231 100 157 97 q 287 104 281 104 q 488 237 425 124 q 512 314 512 279 q 466 360 512 360 l 336 348 q 147 420 222 348 q 94 502 113 453 q 75 597 75 550 z "},"\u0000":{"ha":781,"x_min":36,"x_max":741,"o":"m 552 44 q 626 51 626 44 q 458 310 626 65 q 421 366 452 318 q 387 414 390 414 l 354 363 l 351 357 l 325 318 q 317 307 322 313 q 150 47 150 63 q 162 47 150 47 l 169 46 l 175 45 l 222 44 l 552 44 m 102 492 l 102 242 q 105 109 102 109 q 180 218 109 109 l 221 279 q 245 315 236 302 q 268 350 254 328 q 315 418 283 372 q 347 467 347 463 l 347 474 q 257 610 347 479 q 163 749 168 741 l 104 835 q 102 492 102 835 m 673 431 l 673 511 q 670 836 673 836 q 633 785 667 836 q 514 611 600 734 q 429 477 429 488 q 480 391 429 465 q 599 214 532 317 q 670 112 666 112 q 673 431 673 112 m 459 903 l 438 903 l 431 902 l 390 902 q 149 896 149 902 q 184 839 149 890 q 238 759 219 788 q 271 709 256 730 q 336 611 286 688 q 390 533 387 533 q 433 594 393 533 q 478 664 472 654 q 494 687 484 673 l 577 813 q 631 897 631 890 q 459 903 631 903 m 36 27 l 36 163 l 37 180 l 37 486 q 38 958 37 955 q 94 970 43 970 l 667 970 q 737 959 734 970 q 740 686 740 948 l 740 399 l 741 331 l 741 9 q 719 -17 741 -15 q 532 -20 698 -20 l 227 -20 q 43 -16 50 -20 q 36 27 36 -12 z "}," ":{"ha":380,"x_min":0,"x_max":0,"o":""},"!":{"ha":404,"x_min":121,"x_max":283,"o":"m 203 268 l 196 268 q 159 316 165 268 q 147 633 147 401 l 146 650 q 146 674 146 662 l 146 690 q 146 715 146 703 l 145 731 q 145 780 145 755 l 144 812 l 144 867 q 159 953 144 929 q 214 977 174 977 l 231 977 q 272 956 260 977 q 283 888 283 936 l 283 865 l 283 857 l 281 809 l 279 769 l 273 688 l 271 655 q 268 614 268 623 l 266 589 q 264 557 264 565 l 261 524 q 258 484 258 492 l 252 403 q 237 288 252 323 q 203 268 228 268 m 121 81 l 123 95 q 141 136 123 118 q 193 154 159 154 l 216 154 q 229 152 224 152 q 277 99 277 152 l 279 83 l 279 71 q 197 -7 279 -7 l 189 -7 q 121 60 121 -7 l 121 79 l 121 81 z "},"\"":{"ha":504,"x_min":83,"x_max":422,"o":"m 140 995 l 161 995 q 205 945 205 995 l 205 928 l 205 924 l 201 869 l 200 852 q 193 793 193 808 q 170 677 193 722 q 136 658 160 658 l 120 658 q 93 767 93 658 l 93 780 l 89 853 l 88 857 l 85 890 q 85 898 85 894 l 83 927 l 83 952 q 140 995 83 995 m 361 995 l 370 995 q 422 953 422 995 l 422 916 l 421 911 q 421 903 421 907 l 418 873 q 414 839 415 850 q 411 813 413 827 q 409 793 409 798 q 386 678 409 724 q 352 659 376 659 l 336 659 q 313 686 313 659 q 311 697 311 694 l 311 701 l 311 710 l 310 722 l 310 748 l 309 761 l 309 782 l 309 791 q 309 799 309 795 l 308 808 l 308 817 l 302 891 l 299 928 l 299 953 q 361 995 299 995 z "},"#":{"ha":845,"x_min":80,"x_max":760,"o":"m 522 562 q 486 571 522 571 l 453 571 l 450 570 l 438 570 l 418 569 l 385 566 q 338 495 338 566 q 325 436 338 479 q 312 377 312 393 l 312 368 q 324 360 312 360 l 381 360 l 385 361 l 441 364 l 445 365 l 456 366 q 485 385 477 366 q 521 549 521 475 l 522 556 l 522 562 m 449 270 q 445 273 449 270 q 383 277 440 277 q 310 264 326 277 q 276 177 294 251 q 247 79 258 102 q 196 39 229 39 q 163 87 163 39 l 172 191 q 160 245 172 231 q 114 274 148 260 q 80 318 80 288 q 123 359 80 347 q 209 390 200 379 q 236 509 236 422 q 219 551 236 541 q 161 563 213 555 q 110 594 110 571 q 132 637 110 625 q 192 651 139 642 q 261 680 245 661 q 298 779 278 699 q 323 866 319 859 q 368 890 336 890 q 401 860 401 890 q 390 769 401 834 q 379 686 379 704 q 448 654 379 654 q 534 669 517 654 q 560 747 543 677 q 585 838 577 818 q 629 888 604 888 q 673 854 673 888 l 663 729 q 683 671 663 688 l 696 663 l 729 652 q 760 621 760 638 l 760 606 q 709 570 760 579 q 622 537 633 555 q 596 414 596 495 q 662 370 596 377 q 727 330 727 362 q 661 283 727 294 q 577 247 595 272 q 538 144 558 222 q 515 60 519 66 q 469 37 500 37 q 437 85 437 37 l 458 239 q 449 270 458 263 z "},"$":{"ha":751,"x_min":103,"x_max":667,"o":"m 352 832 q 338 852 352 852 q 259 814 302 852 q 216 733 216 777 l 216 705 q 255 603 216 648 q 334 559 294 559 l 336 559 q 346 583 346 559 l 349 614 l 349 622 q 349 637 349 629 l 350 641 l 350 692 l 349 696 l 349 711 l 349 722 l 349 742 l 349 753 q 349 766 349 760 l 352 811 l 352 832 m 426 96 l 429 96 l 433 97 q 524 138 482 97 q 565 239 565 180 l 565 248 l 564 252 q 529 360 564 315 q 427 425 479 425 l 424 425 q 413 398 413 425 q 410 378 410 383 l 409 351 l 409 298 l 410 294 l 412 246 q 426 96 412 96 m 622 767 q 589 732 622 732 q 531 769 570 732 q 467 805 493 805 q 430 777 440 805 q 420 657 420 749 q 430 548 420 564 q 515 485 439 531 q 620 405 591 439 q 667 263 667 347 q 626 124 667 178 q 528 41 585 69 q 426 -9 427 -9 q 405 -62 414 -22 q 374 -103 395 -103 q 334 -64 351 -103 q 305 -14 318 -25 q 231 22 292 -3 q 146 71 170 47 q 103 167 103 115 l 103 184 q 134 222 103 222 q 203 170 159 222 q 296 119 248 119 q 331 148 324 119 q 338 278 338 178 q 317 412 338 378 q 245 468 307 427 q 150 556 182 509 q 117 680 117 604 q 157 806 117 755 q 275 896 198 857 q 357 977 328 923 q 387 1002 371 1002 l 397 1002 q 430 967 402 1002 q 494 913 457 932 q 584 861 576 869 q 622 767 622 821 z "},"%":{"ha":1085,"x_min":63,"x_max":995,"o":"m 149 690 q 151 667 149 690 q 177 589 151 627 q 243 552 203 552 l 247 553 l 251 553 q 320 601 296 553 q 344 709 344 648 l 344 724 l 343 728 l 342 743 l 341 761 q 316 836 341 800 q 256 871 292 871 l 243 871 q 180 833 209 871 q 151 743 151 795 l 149 734 l 149 714 l 149 695 l 149 690 m 766 92 l 779 92 q 854 138 822 92 q 886 254 886 184 l 886 288 q 885 302 885 298 q 859 382 885 346 q 805 419 833 419 l 784 419 q 716 376 746 419 q 686 277 686 332 l 684 267 l 684 252 l 684 228 q 710 126 684 159 q 766 92 736 92 m 466 723 l 466 707 q 404 533 466 600 q 254 466 341 466 l 239 466 q 115 520 165 466 q 64 656 64 574 l 63 671 l 63 693 q 123 866 63 797 q 268 935 182 935 l 290 935 q 416 878 367 935 q 466 723 466 821 m 781 939 l 791 939 q 819 919 819 939 q 341 75 819 863 q 264 11 302 11 q 226 31 226 11 q 698 865 226 60 q 781 939 741 939 m 800 13 l 785 13 q 764 14 770 14 q 650 77 696 14 q 604 227 604 140 l 604 256 q 653 403 604 346 q 802 475 715 475 l 808 475 l 816 474 q 946 413 897 474 q 995 259 995 351 l 995 237 q 940 76 995 140 q 800 13 885 13 z "},"&":{"ha":954,"x_min":83,"x_max":827,"o":"m 391 573 l 393 573 q 471 649 429 573 q 498 753 498 699 l 498 766 q 473 840 498 808 q 419 872 448 872 l 405 872 q 339 836 367 872 q 311 758 311 800 l 311 754 l 311 750 q 311 742 311 746 l 313 726 q 364 602 313 676 q 391 573 385 573 m 200 287 l 200 270 q 250 143 200 193 q 365 93 300 93 l 382 93 q 484 121 429 93 q 539 175 539 149 l 539 183 q 437 318 539 185 q 325 450 335 450 l 321 450 q 243 388 286 450 q 200 287 200 326 m 806 34 l 689 47 q 598 38 666 47 q 462 15 531 30 q 365 -1 393 -1 l 327 -1 q 158 69 230 -1 q 104 146 126 100 q 83 235 83 193 l 83 254 q 191 461 83 355 q 240 536 240 510 q 214 609 240 547 q 189 710 189 671 q 245 852 189 791 q 393 913 301 913 l 412 913 q 525 866 474 913 q 576 749 576 819 q 548 613 576 730 q 521 463 521 496 q 538 413 521 429 q 616 378 575 378 q 636 376 631 376 q 693 419 641 376 q 777 461 745 461 q 800 429 800 461 q 769 346 800 422 q 739 245 739 269 q 752 164 739 191 q 797 102 766 138 q 827 54 827 66 q 806 34 827 34 z "},"'":{"ha":298,"x_min":96,"x_max":220,"o":"m 212 826 q 184 679 212 755 q 144 652 175 652 l 135 652 q 110 666 115 652 q 106 783 106 680 l 105 791 l 105 800 l 104 809 q 104 817 104 813 l 99 884 l 96 933 l 96 941 q 112 979 96 968 q 162 989 128 989 l 166 989 q 209 978 198 989 q 220 932 220 966 l 220 928 l 220 907 l 216 865 q 212 826 212 840 z "},"(":{"ha":481,"x_min":96,"x_max":414,"o":"m 96 425 q 119 621 96 517 q 271 953 165 829 q 377 1031 340 1031 q 414 1008 414 1031 q 357 910 414 996 q 217 406 217 701 q 265 81 217 227 q 340 -67 284 24 q 397 -161 397 -158 q 361 -190 397 -190 q 269 -131 326 -190 q 170 21 212 -71 q 96 366 96 186 l 96 425 z "},")":{"ha":480,"x_min":75,"x_max":391,"o":"m 391 461 l 391 403 q 368 215 391 318 q 218 -111 323 14 q 113 -191 150 -191 l 100 -191 q 75 -172 75 -191 l 75 -161 q 107 -103 75 -146 q 228 127 187 4 q 269 433 269 252 q 165 878 269 709 q 92 999 92 996 q 129 1030 92 1030 q 222 964 165 1030 q 370 646 333 838 q 391 461 391 541 z "},"*":{"ha":646,"x_min":130,"x_max":559,"o":"m 130 808 q 180 840 130 840 q 233 823 201 840 q 281 806 264 806 q 292 860 292 806 q 303 932 292 913 q 349 951 315 951 l 360 951 q 390 878 390 951 q 388 842 390 865 l 384 797 q 389 785 384 785 q 439 806 397 785 q 520 827 482 827 q 559 791 559 827 q 490 719 559 745 q 443 678 443 701 q 460 656 443 673 q 489 625 477 640 q 500 572 500 610 q 467 546 500 546 q 412 557 433 546 q 383 568 391 568 q 349 545 374 568 q 292 522 323 522 l 286 522 q 179 583 258 522 q 163 633 163 596 l 187 718 q 174 729 187 720 q 145 765 160 739 q 130 808 130 791 z "},"+":{"ha":722,"x_min":69,"x_max":654,"o":"m 69 387 l 69 410 q 90 439 69 432 q 207 446 111 446 q 308 455 302 446 q 313 555 313 464 q 320 671 313 647 q 355 694 326 694 l 367 694 q 405 675 400 694 q 410 557 410 656 q 416 454 410 458 q 525 450 422 450 q 641 444 627 450 q 654 404 654 439 q 631 363 654 370 q 512 356 608 356 q 411 345 416 356 q 406 235 406 334 q 399 119 406 136 q 368 102 392 102 l 345 102 q 316 120 321 102 q 311 240 311 138 q 306 347 311 341 q 201 353 300 353 q 85 358 102 353 q 69 387 69 363 z "},",":{"ha":347,"x_min":85,"x_max":259,"o":"m 96 93 q 176 161 96 161 l 182 161 q 241 142 225 161 q 258 90 258 124 l 259 81 l 259 56 q 210 -105 259 -26 q 118 -184 161 -184 l 110 -184 q 85 -161 85 -184 l 85 -157 q 102 -128 85 -154 q 120 -99 118 -102 q 142 -33 142 -62 q 119 13 142 -28 q 96 93 96 55 z "},"-":{"ha":557,"x_min":77,"x_max":484,"o":"m 115 333 q 77 363 77 333 l 77 382 q 103 428 77 422 q 288 434 129 434 l 407 436 l 446 436 q 484 406 484 436 l 484 387 q 459 341 484 347 q 267 335 434 335 l 257 335 l 242 334 l 218 334 l 208 334 l 183 334 l 163 333 l 115 333 z "},".":{"ha":345,"x_min":90,"x_max":256,"o":"m 255 64 l 254 51 q 234 7 254 24 q 180 -9 214 -9 l 160 -9 q 146 -7 152 -7 q 90 71 90 -7 l 90 74 q 152 154 90 154 l 157 155 l 177 157 l 180 156 l 197 155 q 202 154 199 154 q 240 135 224 154 q 256 85 256 117 l 256 67 l 255 64 z "},"/":{"ha":550,"x_min":30,"x_max":530,"o":"m 478 1004 l 490 1004 q 530 981 530 1004 q 506 903 530 966 q 149 -9 295 335 q 111 -81 124 -68 q 63 -95 97 -95 q 30 -73 30 -95 q 387 861 30 -5 q 478 1004 445 1004 z "},":":{"ha":361,"x_min":97,"x_max":265,"o":"m 101 566 l 102 579 q 119 621 102 604 q 161 637 136 637 q 170 639 167 639 l 183 640 l 189 640 q 248 623 231 640 q 265 570 265 606 l 265 551 q 248 496 265 514 q 204 479 230 479 q 196 477 199 477 l 185 476 l 171 476 q 149 479 157 479 q 102 535 102 479 l 100 551 l 100 563 l 101 566 m 262 106 l 262 84 q 260 61 260 76 q 243 30 260 47 q 203 14 227 14 q 195 12 197 12 l 183 11 l 166 11 l 147 14 q 101 60 101 14 q 98 79 98 73 l 97 90 l 97 93 l 98 96 q 113 152 98 134 q 151 171 129 171 q 162 173 159 173 l 179 175 l 187 175 l 191 174 q 245 158 229 174 q 262 106 262 141 z "},";":{"ha":363,"x_min":96,"x_max":265,"o":"m 265 544 l 265 536 q 249 477 265 496 q 208 458 233 458 l 198 456 l 184 455 l 176 455 q 109 509 109 455 l 107 519 q 107 525 107 522 l 106 533 l 106 536 l 110 564 q 126 601 110 585 q 166 617 142 617 q 174 618 172 618 l 184 620 l 198 620 l 216 617 q 250 602 234 617 q 265 544 265 586 m 125 -170 l 117 -170 q 96 -146 96 -170 l 96 -143 q 109 -119 96 -137 q 151 -24 151 -61 q 129 23 151 -10 q 106 94 106 56 q 124 150 106 132 q 173 168 142 168 l 197 168 q 264 87 264 168 l 264 58 q 262 34 262 43 q 212 -102 262 -35 q 125 -170 161 -170 z "},"<":{"ha":714,"x_min":69,"x_max":617,"o":"m 591 733 q 614 686 614 733 q 574 629 614 660 q 370 500 534 597 q 205 394 205 403 q 348 307 205 385 q 554 187 491 229 q 617 119 617 146 l 617 109 q 596 66 617 66 q 162 302 559 66 q 69 387 69 357 q 130 464 69 425 q 591 733 547 733 z "},"=":{"ha":741,"x_min":81,"x_max":649,"o":"m 136 465 q 83 499 83 465 l 83 511 q 110 553 83 548 q 375 557 138 557 l 551 559 l 596 559 q 649 531 649 559 l 649 506 q 624 472 649 476 q 357 467 598 467 l 337 467 l 272 467 l 253 466 l 201 466 l 181 465 l 136 465 m 593 324 q 649 292 649 324 l 649 279 q 610 235 649 241 q 358 231 590 231 l 319 231 l 299 231 l 254 231 l 240 230 l 195 230 l 176 229 l 136 229 q 91 236 100 229 q 81 267 81 242 l 81 273 q 119 319 81 313 q 378 323 144 323 l 562 324 l 593 324 z "},">":{"ha":712,"x_min":100,"x_max":643,"o":"m 121 66 q 100 104 100 66 l 100 115 q 161 185 100 144 q 366 312 222 226 q 511 407 511 397 q 374 490 511 413 q 169 611 238 566 q 100 684 100 656 l 100 695 q 121 736 100 736 q 583 476 172 736 q 643 406 643 438 q 589 340 643 374 q 121 66 165 66 z "},"?":{"ha":669,"x_min":91,"x_max":586,"o":"m 302 260 q 246 348 246 260 q 270 446 246 402 q 346 544 294 490 q 424 639 398 597 q 450 732 450 680 q 416 818 450 784 q 328 852 382 852 q 227 820 273 852 q 136 766 149 766 q 91 817 91 766 q 158 917 91 869 q 317 965 225 965 l 344 965 q 516 903 446 965 q 586 744 586 841 l 586 731 q 467 498 586 609 q 367 400 380 418 q 346 331 354 382 q 338 279 338 281 q 302 260 328 260 m 328 151 q 372 99 372 151 q 374 91 374 94 l 375 77 l 375 74 l 372 52 q 351 9 372 27 q 298 -9 329 -9 l 287 -9 l 268 -6 q 220 47 220 -6 l 218 63 l 218 83 l 220 103 q 236 137 220 122 q 276 153 251 153 l 292 155 l 301 155 q 328 151 317 151 z "},"@":{"ha":1164,"x_min":75,"x_max":1053,"o":"m 625 558 l 605 558 q 536 534 577 558 q 475 481 494 510 q 428 342 428 414 l 428 319 q 449 215 428 248 q 503 182 470 182 l 517 182 q 581 205 541 182 q 691 422 691 269 q 693 444 693 439 l 696 475 l 696 481 q 677 537 696 515 q 625 558 658 558 m 529 145 q 370 323 370 145 q 427 519 370 429 q 491 585 454 562 q 567 609 528 609 l 594 608 l 621 606 l 646 602 l 669 604 l 691 606 q 760 557 744 606 q 771 436 768 531 q 781 312 774 340 q 842 255 793 255 q 883 275 861 255 q 941 454 941 330 q 916 579 941 521 q 741 750 862 702 q 595 775 678 775 q 591 775 593 775 q 438 741 510 775 q 237 532 297 673 q 199 348 199 443 q 232 180 199 254 q 433 -17 293 39 q 590 -50 515 -50 q 718 -44 665 -50 q 790 -37 771 -37 q 809 -61 809 -37 q 701 -115 809 -88 q 543 -132 633 -132 q 364 -98 453 -132 q 208 1 275 -64 q 75 349 75 131 q 75 353 75 351 q 117 571 75 474 q 418 858 205 782 q 597 889 506 889 q 923 775 798 889 q 1053 456 1053 658 q 1029 328 1053 389 q 890 163 985 211 q 803 136 840 136 q 737 145 766 136 l 711 155 q 660 174 669 174 q 604 160 650 174 q 529 145 557 145 z "},"A":{"ha":900,"x_min":72,"x_max":826,"o":"m 568 405 l 568 414 q 545 504 568 428 q 479 733 509 660 q 445 807 450 807 q 408 736 441 807 q 324 493 375 666 l 320 481 l 317 470 q 298 406 298 421 q 366 385 298 385 l 425 385 l 431 386 l 449 385 l 472 385 q 568 405 568 385 m 826 120 l 826 107 q 793 37 826 67 q 732 20 775 20 q 673 50 690 20 q 663 91 668 60 q 651 144 659 121 q 585 272 616 244 q 460 300 554 300 q 281 276 311 300 q 222 183 251 252 q 193 67 193 115 q 151 19 193 19 q 94 44 116 19 q 72 111 72 70 l 72 125 q 110 206 72 143 q 226 523 114 212 q 338 835 338 834 q 393 935 374 916 q 449 955 413 955 q 515 920 486 955 q 575 813 544 884 q 651 614 607 743 q 711 445 696 486 q 732 384 726 404 l 752 315 q 781 221 776 236 q 806 175 786 207 q 826 120 826 142 z "},"B":{"ha":849,"x_min":104,"x_max":763,"o":"m 268 587 q 311 537 268 537 l 322 536 l 344 535 l 349 535 l 355 536 l 361 536 q 523 582 468 536 q 578 705 578 628 l 578 724 q 533 832 578 790 q 406 873 487 873 l 355 873 q 339 872 344 872 q 277 849 286 872 q 269 752 269 825 l 269 659 l 268 640 l 268 587 m 633 267 l 633 302 q 572 424 633 380 q 425 469 512 469 l 359 469 q 277 446 288 469 q 266 279 266 423 l 266 259 q 277 110 266 127 q 345 92 288 92 q 363 90 357 90 l 370 90 l 391 90 l 397 90 l 425 91 l 452 92 q 581 144 530 92 q 633 267 633 195 m 409 950 q 691 807 639 950 q 704 718 704 771 q 621 544 704 617 q 597 519 597 524 q 644 484 597 515 q 763 280 763 406 l 763 263 q 763 260 763 262 q 763 258 763 259 q 736 151 763 203 q 528 12 681 41 q 365 -1 460 -1 l 301 -1 q 140 8 172 -1 q 108 40 108 18 q 119 79 108 50 q 132 125 130 109 q 135 228 135 142 l 136 277 q 136 309 136 293 l 136 342 l 136 375 l 136 408 l 136 603 q 133 799 136 766 q 117 864 130 833 q 104 903 104 895 q 144 938 104 928 q 279 947 184 947 l 311 948 q 344 949 328 949 l 376 950 l 409 950 z "},"C":{"ha":855,"x_min":72,"x_max":785,"o":"m 216 458 q 291 191 216 279 q 501 102 366 102 q 650 140 577 102 q 699 171 661 145 q 762 197 738 197 q 785 169 785 197 q 758 106 785 141 q 689 48 730 71 q 469 -3 595 -3 l 447 -3 q 293 30 364 -3 q 103 245 153 94 q 72 436 72 337 l 72 481 q 103 662 72 570 q 313 913 165 844 q 511 954 399 954 q 696 914 623 954 q 741 863 721 901 q 761 798 761 826 q 725 746 761 746 q 670 779 707 746 q 496 849 594 849 q 369 820 424 849 q 216 458 216 738 z "},"D":{"ha":937,"x_min":109,"x_max":854,"o":"m 701 457 l 701 505 q 680 653 701 581 q 528 845 638 796 q 409 869 473 869 l 378 869 q 290 848 315 869 q 277 805 277 836 q 276 765 276 774 l 275 743 l 275 549 l 276 527 l 276 460 l 275 438 l 275 382 l 275 338 l 275 284 q 286 121 275 138 q 389 94 304 94 l 398 94 q 614 184 534 94 q 679 309 656 233 q 701 457 701 385 m 109 901 q 163 937 109 928 q 368 951 245 951 l 415 951 q 818 707 713 951 q 854 519 854 624 l 854 515 l 854 481 q 854 477 854 479 q 822 287 854 379 q 365 2 724 2 l 334 2 l 319 3 q 149 16 205 3 q 115 51 115 24 q 129 93 115 62 q 147 153 144 125 q 151 321 151 182 l 151 531 l 150 578 l 144 728 q 138 815 144 793 q 121 862 132 837 q 109 901 109 886 z "},"E":{"ha":793,"x_min":102,"x_max":707,"o":"m 546 568 q 604 488 604 568 q 587 447 604 469 q 547 425 570 425 q 486 432 523 425 q 391 439 450 439 q 302 415 332 439 q 272 314 272 390 q 302 142 272 194 q 437 102 326 102 q 590 118 506 102 q 675 134 673 134 q 707 99 707 134 q 694 45 707 64 q 638 14 682 26 q 374 3 595 3 l 349 3 q 155 17 208 3 q 102 83 102 31 l 106 101 l 112 119 l 117 139 q 132 314 132 195 q 137 519 132 433 q 142 704 142 604 q 143 709 142 707 q 130 838 143 806 q 117 890 117 872 q 193 937 117 925 q 508 955 314 955 l 582 955 q 662 937 637 955 q 688 879 688 918 q 642 840 688 840 q 613 842 634 840 l 578 847 q 493 850 546 850 l 470 851 q 424 852 447 852 q 319 811 343 852 q 287 646 287 755 q 315 572 287 593 q 425 550 343 550 q 483 559 448 550 q 546 568 517 568 z "},"F":{"ha":753,"x_min":112,"x_max":690,"o":"m 206 23 l 191 23 q 134 45 157 23 q 112 94 112 66 l 112 110 q 124 156 112 122 q 141 213 137 189 q 144 323 144 237 l 146 364 q 146 425 146 385 l 147 446 l 149 466 q 150 525 150 492 l 150 608 q 134 831 150 783 l 118 882 q 182 927 118 918 q 578 954 383 954 l 598 954 q 665 937 641 954 q 690 886 690 919 l 690 871 q 650 838 690 838 q 595 848 648 838 q 486 858 542 858 l 467 857 q 429 857 448 857 q 322 818 349 857 q 295 684 295 779 q 320 564 295 589 q 413 540 345 540 q 468 547 433 540 q 527 555 503 555 q 575 530 551 555 q 599 471 599 506 q 538 416 599 416 l 475 420 q 325 369 366 420 q 283 162 283 317 l 292 75 q 271 41 292 58 q 206 23 251 23 z "},"G":{"ha":919,"x_min":76,"x_max":808,"o":"m 677 294 q 652 366 677 342 q 626 385 650 368 q 601 410 601 402 q 666 434 601 434 q 777 414 732 434 q 808 368 808 399 q 766 73 808 131 q 701 28 747 45 q 530 -9 601 -9 l 507 -9 q 338 22 420 -9 q 110 262 175 81 q 76 470 76 357 l 76 497 q 111 678 76 586 q 351 928 179 863 q 504 958 427 958 l 530 958 q 719 925 657 958 q 781 820 781 892 q 730 770 781 770 q 685 795 722 770 q 609 834 648 821 q 510 847 570 847 q 392 820 449 847 q 223 465 223 739 q 248 307 223 378 q 308 197 273 236 q 506 116 380 116 q 632 161 587 116 q 677 294 677 207 z "},"H":{"ha":964,"x_min":102,"x_max":871,"o":"m 106 878 q 201 938 106 938 q 269 918 244 938 q 294 868 294 898 q 286 830 294 861 q 277 768 277 799 q 319 564 277 590 q 499 541 353 541 q 668 578 644 541 q 692 771 692 616 q 684 819 692 788 q 676 873 676 850 q 708 919 676 896 q 789 942 741 942 l 812 942 q 852 928 833 942 q 871 894 871 913 q 864 856 871 874 l 849 816 q 841 686 841 785 l 840 630 q 838 547 838 574 l 831 210 q 842 136 831 167 l 852 116 q 866 77 866 87 q 843 26 866 41 q 773 12 821 12 q 701 35 726 12 q 675 87 675 58 l 677 107 l 688 146 q 695 248 695 179 q 670 415 695 385 q 532 446 645 446 q 314 413 353 446 q 276 169 276 380 q 283 124 276 155 q 290 91 290 92 q 176 17 290 17 q 120 36 138 17 q 102 74 102 54 q 111 115 102 93 l 127 156 q 139 316 136 187 q 142 478 142 446 l 143 506 q 144 562 144 543 l 145 589 l 145 681 q 125 824 145 783 q 106 878 106 865 z "},"I":{"ha":454,"x_min":104,"x_max":351,"o":"m 165 611 l 163 705 q 134 825 163 789 q 104 882 104 862 q 149 936 104 916 q 243 949 180 949 l 256 949 q 334 925 300 949 q 351 894 351 913 l 351 884 q 337 851 351 876 q 315 797 322 827 q 307 687 307 766 l 306 660 l 304 593 q 304 552 304 572 l 303 484 q 303 457 303 471 l 302 416 q 306 163 302 188 q 329 112 310 139 q 347 62 347 85 q 318 22 347 39 q 242 5 290 5 l 217 5 q 117 33 153 5 q 104 56 104 44 l 104 65 q 126 120 104 83 q 163 309 161 179 q 163 382 163 369 l 164 423 q 164 464 164 444 l 165 491 q 165 518 165 505 l 165 531 l 165 597 l 165 611 z "},"J":{"ha":598,"x_min":26,"x_max":500,"o":"m 254 882 q 293 934 254 913 q 376 954 332 954 l 391 954 q 470 931 439 954 q 500 883 500 909 l 500 873 q 493 835 500 871 q 484 761 486 800 q 478 668 482 722 q 473 563 473 614 l 473 547 q 472 514 472 530 l 471 481 q 469 373 469 449 q 307 -44 469 43 q 179 -76 248 -76 q 67 -50 109 -76 q 26 7 26 -24 q 43 53 26 38 q 83 68 60 68 l 165 54 q 223 76 192 54 q 278 143 255 97 q 328 401 328 243 l 330 433 l 330 481 q 282 814 330 734 q 254 882 254 863 z "},"K":{"ha":886,"x_min":113,"x_max":819,"o":"m 296 113 q 261 44 296 71 q 188 18 227 18 q 130 30 148 18 q 113 59 113 42 l 113 79 l 117 98 l 132 137 q 147 393 147 187 l 147 473 l 146 499 q 146 645 146 526 q 131 825 146 764 q 115 898 115 885 q 135 925 115 911 q 201 940 154 940 q 274 914 248 940 q 300 848 300 888 l 297 831 q 291 722 291 788 q 326 562 291 562 q 445 665 355 562 q 576 836 535 768 q 619 905 618 903 q 703 933 644 933 q 762 905 762 933 q 673 789 762 888 q 522 601 585 690 q 495 522 495 562 q 601 351 495 513 q 763 120 707 190 q 819 48 819 50 q 758 10 819 10 q 661 47 697 10 q 563 189 651 56 q 457 345 475 321 q 370 409 405 409 q 309 348 335 409 q 283 216 283 288 q 286 172 283 190 l 290 151 q 296 113 296 119 z "},"L":{"ha":749,"x_min":100,"x_max":713,"o":"m 334 115 q 349 110 334 115 q 442 106 363 106 q 553 117 522 106 q 619 142 585 127 q 667 157 652 157 q 713 95 713 157 q 670 14 713 33 q 456 1 644 1 l 439 2 l 387 3 q 172 9 221 3 q 102 56 102 19 q 112 100 102 73 q 127 156 122 128 q 132 253 132 184 l 134 372 l 134 458 l 134 492 q 131 774 134 747 q 114 832 128 802 q 100 888 100 863 q 123 932 100 913 q 182 951 146 951 l 198 951 q 282 928 253 951 q 311 869 311 905 q 299 824 311 857 q 282 771 286 791 q 278 673 278 750 l 275 555 l 275 538 l 275 503 l 273 435 q 293 147 273 183 q 334 115 306 123 z "},"M":{"ha":1175,"x_min":100,"x_max":1076,"o":"m 561 127 q 505 195 538 127 l 491 225 q 452 324 484 243 l 399 460 q 291 682 311 682 q 275 661 281 682 q 252 468 269 640 q 235 204 235 296 q 222 87 235 113 q 150 47 200 47 q 100 99 100 47 q 117 145 100 105 q 138 234 134 185 q 159 728 159 431 q 153 794 159 751 l 148 824 q 140 878 140 865 q 159 904 140 892 q 203 916 178 916 q 319 860 275 916 q 505 505 363 803 q 566 384 550 409 l 581 365 q 708 586 593 365 q 850 846 822 808 q 967 920 904 920 l 994 920 q 1045 865 1045 920 l 1042 840 l 1037 812 q 1035 745 1035 793 l 1036 709 l 1037 672 l 1038 525 l 1038 451 q 1042 204 1038 239 q 1061 130 1045 170 q 1076 75 1076 91 q 1005 38 1076 38 q 940 66 968 38 q 911 153 911 94 l 917 309 q 903 549 917 429 q 883 677 888 669 l 876 682 q 750 433 862 682 q 629 170 639 184 q 561 127 602 127 z "},"N":{"ha":979,"x_min":100,"x_max":892,"o":"m 836 85 q 787 39 828 39 q 683 118 746 39 q 520 362 620 198 q 357 612 420 526 q 269 699 295 699 q 243 274 243 699 q 249 189 243 239 q 256 132 256 138 q 227 55 256 87 q 159 24 199 24 q 100 63 100 24 q 116 121 100 81 q 145 460 145 193 l 146 489 l 148 549 q 149 696 149 608 q 135 836 149 783 q 121 890 121 888 q 157 917 121 917 l 179 917 q 323 833 247 917 q 554 519 399 749 q 727 290 710 290 l 736 298 q 757 720 757 341 q 753 791 757 768 l 748 811 l 743 829 q 739 864 739 846 q 756 899 739 882 q 810 916 774 916 q 869 892 846 916 q 892 845 892 868 q 875 765 892 822 q 848 413 848 674 q 836 85 848 151 z "},"O":{"ha":960,"x_min":77,"x_max":876,"o":"m 211 475 l 211 452 q 274 190 211 292 q 357 107 306 138 q 467 77 408 77 q 468 77 467 77 q 705 296 649 77 q 725 446 725 370 q 725 450 725 448 l 725 498 q 725 503 725 500 q 705 652 725 576 q 473 873 648 873 q 282 769 354 873 q 211 475 211 664 m 876 492 l 876 476 q 846 275 876 368 q 636 22 788 90 q 470 -14 556 -14 q 191 100 294 -14 q 106 252 136 161 q 77 430 77 343 l 77 475 q 107 669 77 574 q 301 919 165 849 q 475 960 382 960 l 491 960 q 774 830 665 960 q 847 688 819 777 q 876 492 876 600 z "},"P":{"ha":814,"x_min":119,"x_max":761,"o":"m 288 512 q 306 464 288 476 q 366 452 324 452 l 398 452 q 422 454 416 454 q 564 524 498 454 q 612 659 612 575 l 613 673 l 613 689 l 612 696 q 559 832 612 783 q 413 882 505 882 l 394 882 q 363 880 376 880 q 297 846 308 880 q 290 656 290 822 l 289 635 l 289 607 l 288 593 q 288 566 288 579 l 288 545 l 288 512 m 761 682 q 663 471 761 560 q 505 398 612 425 q 359 345 397 371 q 307 291 321 319 q 293 232 293 262 q 303 167 293 202 q 313 106 313 132 q 281 52 313 80 q 209 23 250 23 l 196 23 q 139 42 159 23 q 119 94 119 61 q 138 152 119 101 q 157 264 157 203 l 159 311 l 161 373 q 161 538 161 373 q 157 725 161 642 q 152 829 153 808 q 144 875 151 850 q 138 909 138 899 q 185 944 138 935 q 437 962 283 962 l 454 962 q 679 890 597 962 q 761 699 761 818 l 761 682 z "},"Q":{"ha":985,"x_min":64,"x_max":894,"o":"m 748 465 l 748 501 q 726 652 748 576 q 673 773 704 728 q 590 846 642 819 q 484 873 538 873 l 471 873 q 271 762 347 873 q 223 649 244 724 q 202 489 202 574 l 202 464 l 203 452 q 272 191 203 297 q 352 117 302 144 q 441 90 401 90 l 460 90 q 662 196 575 90 q 748 465 748 303 m 764 28 q 829 -56 764 -3 q 894 -112 894 -109 l 894 -117 q 872 -139 894 -124 q 789 -153 850 -153 q 517 -68 728 -153 q 232 82 307 17 q 110 256 157 147 q 64 488 64 365 q 175 841 64 717 q 465 966 287 966 q 642 929 564 966 q 844 696 792 859 q 869 481 869 617 q 800 124 869 267 q 764 28 764 49 z "},"R":{"ha":872,"x_min":109,"x_max":785,"o":"m 330 480 l 354 480 q 531 535 466 480 q 595 692 595 590 q 593 726 593 713 q 546 828 593 784 q 423 872 498 872 l 380 872 q 298 857 320 872 q 276 785 276 842 q 275 766 275 772 l 274 753 l 274 740 l 273 721 l 273 708 l 273 688 l 273 668 l 273 661 q 273 629 273 645 l 273 608 l 273 543 q 284 493 273 506 q 330 480 296 480 m 729 700 q 705 595 729 642 q 632 497 681 549 q 583 408 583 446 q 673 214 583 370 q 741 125 698 172 q 785 64 785 78 l 785 52 q 741 20 785 20 l 725 20 q 648 65 682 20 q 560 201 644 71 q 472 335 476 331 q 379 380 429 380 q 298 332 330 380 q 280 215 280 304 q 290 146 280 187 q 300 86 300 106 q 273 45 300 66 q 203 24 245 24 q 142 37 161 24 q 109 104 109 60 q 125 155 109 120 q 144 218 141 191 q 147 400 147 245 q 144 654 147 554 q 140 802 140 754 q 135 876 140 849 q 129 907 129 903 q 176 947 129 937 q 357 958 223 958 l 399 958 q 646 892 564 958 q 729 700 729 826 z "},"S":{"ha":768,"x_min":85,"x_max":696,"o":"m 696 240 q 674 151 696 200 q 513 16 632 56 q 400 -4 452 -4 l 376 -4 q 163 38 252 -4 q 107 89 129 54 q 85 143 85 123 l 85 162 q 100 203 85 191 q 131 215 115 215 q 193 174 148 215 q 283 114 237 132 q 401 96 330 96 q 516 135 473 96 q 560 242 560 175 q 487 364 560 310 q 335 444 448 393 q 178 540 222 495 q 118 628 133 585 q 103 720 103 672 q 186 894 103 827 q 401 960 270 960 q 592 932 532 960 q 637 889 614 921 q 659 825 659 857 q 612 768 659 768 q 560 799 597 768 q 485 847 522 830 q 390 865 447 865 q 260 813 305 865 q 231 742 231 779 q 319 601 231 654 q 457 534 349 583 q 608 444 565 485 q 674 362 652 404 q 696 262 696 320 l 696 240 z "},"T":{"ha":797,"x_min":50,"x_max":771,"o":"m 473 412 q 473 374 473 393 l 471 280 q 471 212 471 280 q 476 156 471 172 q 491 114 481 139 q 501 77 501 88 q 474 23 501 43 q 398 3 446 3 l 381 3 q 320 23 347 3 q 294 67 294 43 q 309 125 294 91 q 331 199 324 159 q 337 355 337 239 l 338 394 l 340 547 q 323 791 340 755 q 214 836 303 836 q 140 817 183 836 q 87 798 96 798 q 50 860 50 798 q 95 937 50 922 q 530 952 140 952 l 587 953 l 606 953 l 625 952 l 680 953 l 696 953 q 750 933 730 953 q 771 884 771 913 l 771 869 q 731 819 771 819 q 683 830 723 819 q 601 841 643 841 q 530 825 559 841 q 492 781 502 808 q 473 412 473 729 z "},"U":{"ha":938,"x_min":91,"x_max":855,"o":"m 711 698 q 711 761 711 722 q 706 837 711 801 q 700 891 700 873 q 774 932 700 932 q 825 913 807 932 q 855 847 855 880 l 855 827 q 841 767 855 809 q 824 685 826 726 q 821 479 821 644 q 810 245 821 313 q 758 120 799 176 q 646 36 716 64 q 469 7 576 7 q 293 38 362 7 q 140 265 167 94 q 128 530 128 344 q 110 770 128 715 q 91 839 91 824 q 125 915 91 887 q 190 930 144 930 q 254 910 236 930 q 272 864 272 890 l 270 849 l 264 817 q 261 735 261 791 l 262 713 q 262 665 262 689 l 262 616 l 262 567 q 296 204 262 277 q 476 96 345 96 q 677 242 620 96 q 709 650 709 323 l 711 698 z "},"V":{"ha":870,"x_min":44,"x_max":834,"o":"m 456 197 q 633 670 484 197 q 672 833 669 783 q 681 897 675 884 q 777 946 705 946 q 834 896 834 946 q 809 820 834 861 q 683 497 784 779 q 546 134 581 215 q 491 31 510 53 q 448 9 472 9 l 429 9 q 336 118 384 9 q 227 431 330 134 q 66 813 125 729 q 44 877 44 846 q 62 920 44 909 q 127 931 79 931 q 224 879 196 931 q 240 822 233 863 q 278 692 248 781 q 323 559 309 603 q 456 197 437 197 z "},"W":{"ha":1264,"x_min":92,"x_max":1184,"o":"m 833 413 q 898 277 873 277 q 994 513 923 277 q 1048 728 1027 624 q 1078 856 1069 832 q 1135 911 1099 911 q 1169 898 1154 911 q 1184 855 1184 884 l 1184 835 q 1163 734 1184 810 q 1084 448 1141 659 q 1007 181 1027 237 q 942 92 986 125 q 905 75 921 75 q 809 153 854 75 q 708 386 777 210 q 633 562 640 562 q 553 382 627 562 q 452 158 479 203 q 359 86 408 86 q 326 100 345 86 q 256 213 284 131 q 126 675 227 294 q 92 842 92 804 q 143 900 92 900 q 226 825 193 900 q 262 703 238 798 q 315 514 286 609 q 415 269 389 269 q 490 461 441 269 q 544 725 538 653 q 556 817 549 798 q 641 875 579 875 q 736 804 711 875 q 759 700 750 768 q 833 413 768 632 z "},"X":{"ha":876,"x_min":77,"x_max":802,"o":"m 802 58 q 700 14 802 14 q 610 50 637 14 q 597 80 604 58 q 586 116 591 103 q 510 245 581 129 q 426 362 439 362 q 293 181 398 362 q 247 82 265 133 q 224 26 229 31 q 156 4 200 4 q 94 15 111 4 q 77 50 77 26 q 116 114 77 73 q 182 194 155 156 q 277 342 210 231 q 345 494 345 454 q 258 653 345 522 q 154 803 170 785 q 88 895 88 878 q 174 935 88 935 q 288 895 259 935 q 300 851 288 893 q 345 756 312 808 q 450 610 435 610 q 572 768 471 610 q 610 844 601 813 l 618 877 q 630 908 624 899 q 720 947 655 947 l 742 947 q 794 903 794 947 q 751 842 794 888 q 658 720 708 795 q 536 500 536 536 q 599 354 536 463 q 697 198 663 245 q 767 117 731 151 q 802 58 802 83 z "},"Y":{"ha":825,"x_min":62,"x_max":782,"o":"m 701 945 l 718 945 q 782 910 782 945 q 743 837 782 899 q 669 704 703 776 q 592 545 635 631 q 541 437 550 458 q 481 161 481 293 q 490 103 481 133 q 499 64 499 73 q 473 13 499 33 q 406 -7 448 -7 q 313 56 313 -7 q 343 144 313 61 q 359 273 359 187 q 319 439 359 358 q 214 642 279 520 q 123 796 148 764 q 62 888 62 876 l 62 899 q 142 931 62 931 q 249 889 222 931 q 260 852 256 879 q 268 817 264 825 q 313 717 271 808 q 431 519 404 519 q 557 720 459 519 q 601 841 587 781 q 621 910 615 902 q 701 945 647 945 z "},"Z":{"ha":823,"x_min":87,"x_max":756,"o":"m 726 886 q 506 503 726 823 q 285 150 285 183 q 311 108 285 116 q 432 100 337 100 q 564 107 528 100 q 649 132 600 113 q 715 151 698 151 q 756 114 756 151 l 756 96 q 686 18 756 41 q 432 2 638 2 l 336 2 q 135 14 182 2 q 87 60 87 26 q 391 581 87 149 q 532 810 532 780 q 498 847 532 840 q 372 855 465 855 q 236 842 280 855 q 135 811 137 811 q 92 865 92 811 q 142 939 92 918 q 345 954 177 954 l 442 954 q 691 937 634 954 q 726 886 726 926 z "},"[":{"ha":498,"x_min":118,"x_max":437,"o":"m 132 850 q 167 1010 132 975 q 304 1032 189 1032 l 339 1034 l 373 1034 q 437 1004 437 1034 q 361 955 437 969 q 269 899 284 941 q 239 415 239 811 q 254 -27 239 18 q 292 -87 269 -73 q 344 -100 304 -94 q 405 -115 385 -106 q 426 -148 426 -123 q 357 -180 426 -180 l 255 -180 q 143 -151 161 -180 q 118 11 118 -111 l 118 95 l 119 112 q 119 146 119 129 l 127 591 l 129 711 q 129 747 129 729 l 130 764 q 130 798 130 781 l 131 815 q 132 850 132 833 z "},"\\":{"ha":563,"x_min":37,"x_max":526,"o":"m 526 -73 q 488 -98 526 -98 l 476 -98 q 438 -79 454 -98 q 382 41 422 -59 q 37 976 37 905 q 75 1002 37 1002 l 86 1002 q 157 920 122 1002 q 488 43 204 807 q 526 -73 526 -58 z "},"]":{"ha":500,"x_min":68,"x_max":387,"o":"m 387 845 l 387 828 l 386 811 l 385 726 l 385 691 l 380 468 q 380 434 380 451 q 356 -134 380 -73 q 320 -172 344 -163 q 173 -181 296 -181 l 122 -181 q 68 -154 68 -181 q 92 -117 68 -127 q 152 -102 105 -110 q 214 -81 198 -94 q 239 -38 230 -69 q 265 451 265 48 q 248 898 265 854 q 156 955 231 943 q 81 1000 81 967 q 144 1034 81 1034 l 230 1034 q 360 1006 340 1034 q 387 845 387 970 z "},"^":{"ha":696,"x_min":88,"x_max":608,"o":"m 608 552 l 608 545 q 563 526 608 526 q 500 572 535 526 q 418 701 482 595 q 347 806 354 806 q 289 717 340 806 q 197 576 237 628 q 130 524 157 524 q 88 547 88 524 q 281 874 88 591 q 354 930 319 930 q 425 875 389 930 q 608 552 608 593 z "},"_":{"ha":729,"x_min":29,"x_max":694,"o":"m 82 -136 q 29 -104 29 -136 l 29 -97 q 63 -53 29 -58 q 374 -48 96 -48 l 613 -46 l 620 -46 q 694 -79 694 -46 l 694 -86 q 667 -130 694 -124 q 342 -135 639 -135 l 260 -135 l 245 -136 l 156 -136 l 134 -136 l 82 -136 z "},"`":{"ha":463,"x_min":85,"x_max":340,"o":"m 85 954 l 85 961 q 131 996 85 996 l 149 996 q 220 954 184 996 q 340 783 340 818 l 340 776 q 313 756 340 756 l 302 756 q 208 814 281 756 q 85 954 85 909 z "},"a":{"ha":702,"x_min":58,"x_max":623,"o":"m 289 77 l 311 77 q 425 131 377 77 q 456 248 456 165 l 456 256 l 456 289 q 455 302 455 297 q 421 332 455 332 l 412 333 l 393 333 l 389 332 l 365 331 l 347 330 q 228 295 273 330 q 183 203 183 260 l 183 183 q 184 169 184 174 q 214 106 184 135 q 289 77 243 77 m 139 521 q 98 567 98 521 q 154 641 98 613 q 315 680 231 680 l 332 680 q 569 500 542 680 q 576 320 576 455 q 580 156 576 186 q 604 98 585 127 q 623 54 623 68 q 605 25 623 39 q 558 11 587 11 q 489 26 530 11 q 434 42 448 42 q 386 29 420 42 q 321 6 351 16 q 245 -3 291 -3 q 110 44 161 -3 q 58 165 58 92 l 58 181 q 264 381 58 336 q 332 393 277 384 q 410 410 388 401 q 450 480 450 427 q 416 563 450 533 q 335 593 383 593 q 226 557 286 593 q 139 521 165 521 z "},"b":{"ha":753,"x_min":89,"x_max":680,"o":"m 357 82 l 378 82 q 498 149 448 82 q 548 346 548 215 l 548 370 q 510 534 548 471 q 413 598 473 598 l 386 598 q 317 578 356 598 q 253 517 277 559 q 229 322 229 476 l 229 278 l 229 271 l 229 249 l 231 228 q 231 213 231 220 q 263 116 231 151 q 357 82 295 82 m 169 28 q 112 95 121 28 q 111 198 111 99 l 111 321 l 112 336 l 112 415 l 113 446 l 113 525 l 113 557 l 113 589 l 115 652 l 115 715 q 111 834 115 810 q 98 887 107 859 q 89 932 89 915 q 148 976 89 976 q 222 944 207 976 q 238 800 238 912 q 245 659 238 688 q 275 629 252 629 q 339 641 292 629 q 431 654 387 654 q 608 567 538 654 q 662 460 643 523 q 680 340 680 398 l 680 308 q 657 184 680 241 q 515 27 610 69 q 399 2 460 2 l 385 2 q 293 16 343 2 q 201 30 242 30 q 169 28 184 28 z "},"c":{"ha":650,"x_min":59,"x_max":591,"o":"m 361 -4 l 346 -4 q 127 92 207 -4 q 59 323 59 171 q 137 566 59 474 q 368 673 227 673 l 382 673 q 516 641 463 673 q 570 559 570 608 q 527 509 570 509 q 460 543 513 509 q 359 576 408 576 q 236 512 282 576 q 190 332 190 448 q 241 156 190 216 q 387 97 293 97 q 496 121 433 97 q 569 145 559 145 q 591 121 591 145 q 516 37 591 77 q 361 -4 441 -4 z "},"d":{"ha":762,"x_min":74,"x_max":665,"o":"m 189 337 l 189 298 q 190 276 190 283 q 233 134 190 189 q 329 80 277 80 l 349 80 q 465 141 420 80 q 499 289 499 187 l 500 303 l 503 370 l 503 420 q 479 545 503 510 q 379 593 447 593 l 359 593 q 291 573 328 593 q 229 512 254 553 q 189 337 189 443 m 512 955 q 522 964 512 955 q 569 973 533 973 q 620 962 604 973 q 639 923 635 951 q 643 557 643 895 l 641 429 l 641 380 l 644 242 q 644 192 644 227 q 655 119 644 157 q 665 75 665 80 l 665 66 q 595 27 665 27 q 544 36 576 27 q 482 44 513 44 q 423 25 481 44 q 322 6 364 6 l 292 6 q 209 26 255 6 q 132 88 163 47 q 74 288 74 162 l 74 305 q 97 455 74 382 q 168 577 121 528 q 268 646 215 626 q 392 667 321 667 q 482 698 463 667 q 502 835 502 729 l 490 903 q 512 955 490 937 z "},"e":{"ha":686,"x_min":54,"x_max":604,"o":"m 488 454 l 488 471 q 458 553 488 514 q 374 592 428 592 l 352 592 q 338 591 342 591 q 235 533 280 591 q 191 415 191 475 l 191 411 q 243 381 191 381 l 247 382 l 312 387 q 361 391 345 391 l 382 394 q 470 414 433 394 q 488 454 488 425 m 357 -7 l 342 -7 q 128 85 209 -7 q 74 185 95 123 q 54 311 54 247 l 54 326 q 54 330 54 328 q 80 469 54 406 q 261 652 137 608 q 376 671 314 671 q 584 548 527 671 q 604 458 604 504 l 604 444 q 550 353 604 377 q 385 318 512 336 q 243 296 257 299 q 195 248 195 283 q 261 127 195 176 q 385 95 305 95 q 496 117 420 95 q 579 139 572 139 q 598 102 598 139 q 517 30 598 66 q 357 -7 435 -7 z "},"f":{"ha":507,"x_min":85,"x_max":522,"o":"m 85 612 l 85 623 q 110 668 85 636 q 148 738 135 700 q 229 921 198 886 q 399 992 292 992 l 401 992 q 484 975 446 992 q 522 932 522 958 q 482 880 522 886 q 477 879 480 879 q 439 885 465 879 q 383 892 406 892 q 311 851 335 892 q 288 762 288 810 q 309 690 288 713 q 380 645 318 680 q 421 600 421 623 q 378 566 421 590 q 317 494 334 542 q 277 224 277 382 q 292 124 277 179 q 307 57 307 68 q 280 4 307 26 q 216 -18 254 -18 l 201 -18 q 141 8 166 -18 q 116 68 116 34 q 126 111 116 80 q 141 164 137 141 q 144 274 144 187 l 140 405 q 133 515 140 488 q 105 567 125 543 q 85 612 85 592 z "},"g":{"ha":751,"x_min":94,"x_max":627,"o":"m 328 95 l 351 95 q 490 309 490 95 q 492 331 492 323 l 493 368 l 493 404 q 468 536 493 500 q 389 572 443 572 l 377 572 l 370 571 q 245 505 293 571 q 197 338 197 439 l 197 315 l 199 273 q 236 145 199 196 q 328 95 273 95 m 94 338 l 94 357 q 117 481 94 420 q 262 635 161 597 q 375 656 321 656 q 481 635 430 656 q 559 615 533 615 q 606 592 586 615 q 627 530 627 570 l 627 495 q 615 312 627 434 q 604 151 604 189 q 605 89 604 112 l 609 38 q 611 -52 611 3 q 589 -158 611 -108 q 336 -309 522 -309 l 318 -309 q 200 -284 255 -309 q 146 -230 146 -260 q 195 -194 146 -194 l 322 -204 q 455 -153 401 -204 q 508 -28 508 -101 q 464 18 508 18 l 408 14 q 195 77 262 14 q 121 196 148 121 q 94 338 94 271 z "},"h":{"ha":774,"x_min":92,"x_max":688,"o":"m 129 883 l 121 945 q 169 966 121 966 q 239 919 217 966 q 254 760 247 901 q 289 620 261 620 q 313 627 295 620 l 328 633 q 382 653 351 642 q 466 664 414 664 q 559 639 518 664 q 623 568 600 614 q 658 319 658 499 q 673 162 658 210 q 688 104 688 114 l 688 87 q 667 45 688 64 q 597 27 646 27 q 548 90 548 27 l 551 118 q 551 152 551 128 q 525 464 551 374 q 413 553 498 553 q 336 534 373 553 q 281 478 299 514 q 248 205 248 414 q 251 146 248 176 l 253 128 q 257 96 257 99 q 234 38 257 60 q 166 16 211 16 q 106 35 121 16 q 92 74 92 54 q 97 122 92 94 l 101 142 l 111 180 q 121 516 121 239 l 120 561 q 120 606 120 583 l 123 779 l 127 840 q 129 883 129 869 z "},"i":{"ha":377,"x_min":92,"x_max":294,"o":"m 113 877 l 114 895 q 130 923 114 904 q 168 943 145 943 q 176 944 174 944 l 186 945 l 201 945 l 219 943 q 253 924 238 943 q 268 880 268 905 l 268 863 q 266 843 266 854 q 247 813 266 831 q 194 794 229 794 l 178 794 q 132 810 151 794 q 112 859 112 827 l 112 874 l 113 877 m 186 3 l 170 3 q 116 20 134 3 q 97 53 97 37 q 108 103 97 68 q 119 163 119 137 l 119 197 l 119 215 l 119 279 l 120 297 q 120 342 120 319 l 121 360 q 121 396 121 378 l 121 414 l 121 486 q 106 570 121 541 q 92 604 92 598 l 92 618 q 162 655 92 655 l 178 655 q 239 622 225 655 q 243 446 243 612 l 242 429 l 242 366 l 243 321 l 245 279 q 247 213 247 262 q 271 127 247 164 q 294 75 294 90 l 294 68 q 265 21 294 39 q 186 3 235 3 z "},"j":{"ha":374,"x_min":-43,"x_max":268,"o":"m 119 861 q 122 886 122 874 q 140 916 122 898 q 180 935 159 935 q 188 936 184 936 l 198 937 l 210 937 q 252 918 235 937 q 268 870 268 899 l 268 851 q 266 829 266 843 q 247 797 266 816 q 204 779 229 779 l 189 777 l 172 777 q 161 779 165 779 q 121 829 121 779 l 119 842 l 119 861 m 41 -277 l 20 -277 q -43 -239 -43 -277 l -43 -229 q -27 -193 -43 -203 q 24 -175 -12 -182 q 79 -150 59 -168 q 113 -87 99 -132 q 140 287 140 1 q 138 480 140 439 q 119 558 136 521 l 112 576 q 103 615 103 599 q 121 646 103 632 q 178 659 139 659 l 189 659 q 252 612 235 659 q 263 446 263 579 l 263 195 q 218 -161 263 -72 q 148 -243 195 -209 q 41 -277 102 -277 z "},"k":{"ha":727,"x_min":92,"x_max":659,"o":"m 145 26 q 98 84 98 26 l 100 99 q 102 133 101 115 l 106 213 q 110 367 110 297 l 112 482 l 113 528 l 113 574 l 114 620 q 114 688 114 654 l 113 822 q 104 881 113 850 l 92 929 q 151 973 92 973 l 169 973 q 241 918 225 973 q 248 718 248 895 q 254 495 248 541 q 283 449 260 449 q 405 553 306 449 q 538 658 504 658 q 612 627 612 658 q 526 523 612 616 q 439 380 439 429 q 509 255 439 355 q 619 107 579 155 q 659 56 659 60 q 606 21 659 21 q 520 50 554 21 q 431 181 511 59 q 315 303 351 303 q 276 267 294 303 q 258 177 258 231 l 263 107 q 145 26 263 26 z "},"l":{"ha":393,"x_min":100,"x_max":321,"o":"m 321 71 l 321 62 q 298 25 321 47 q 232 3 276 3 l 208 3 q 134 22 160 3 q 109 72 109 41 q 112 100 109 81 q 116 162 116 119 l 116 257 l 121 484 q 121 509 121 496 l 122 534 q 122 560 122 547 l 123 573 q 123 599 123 586 l 123 624 l 123 663 l 124 688 l 124 760 q 112 888 124 848 q 100 929 100 927 l 100 938 q 174 986 100 986 q 256 941 247 986 q 257 810 257 937 l 254 722 l 254 696 l 250 531 l 250 431 l 254 347 q 296 117 254 188 q 321 71 321 77 z "},"m":{"ha":1128,"x_min":91,"x_max":1046,"o":"m 222 92 q 175 47 222 47 q 109 68 127 47 q 91 107 91 90 l 91 127 q 101 171 91 128 q 114 257 111 214 q 117 408 117 299 l 123 587 q 168 623 123 623 l 290 613 q 350 627 302 613 q 451 642 398 642 q 587 594 504 642 q 626 579 613 579 q 703 614 640 579 q 822 648 766 648 q 1010 431 989 648 q 1016 308 1014 395 q 1027 186 1019 222 l 1035 164 q 1046 122 1046 131 l 1046 102 q 1023 59 1046 77 q 971 41 1000 41 q 929 60 941 41 q 924 100 924 68 q 895 355 924 132 q 871 460 886 427 q 762 529 840 529 q 704 510 728 529 q 639 203 639 460 q 646 155 639 186 q 653 111 653 123 q 612 36 653 62 q 551 20 589 20 q 479 66 480 20 q 486 111 479 84 q 494 155 492 138 q 496 304 496 172 q 476 490 496 437 q 395 543 456 543 q 311 512 351 543 q 256 446 272 481 q 218 164 218 363 l 222 92 z "},"n":{"ha":777,"x_min":83,"x_max":705,"o":"m 115 612 q 149 631 115 631 q 225 608 182 631 q 283 585 269 585 q 327 599 297 585 q 481 644 420 644 l 498 644 q 583 617 549 644 q 637 546 618 591 q 663 373 656 500 q 672 216 669 246 q 690 147 675 186 q 705 91 705 109 q 614 39 705 39 q 573 53 591 39 q 555 93 555 67 q 559 134 559 119 q 552 210 559 149 q 537 354 545 271 q 514 479 529 437 q 401 559 484 559 q 323 537 359 559 q 270 471 288 515 q 236 163 236 391 l 242 94 q 221 47 242 68 q 168 26 200 26 l 153 26 q 100 40 117 26 q 83 76 83 55 l 83 92 l 101 152 q 111 212 109 178 q 113 347 113 247 q 116 510 113 448 q 120 575 120 572 l 115 612 z "},"o":{"ha":732,"x_min":66,"x_max":663,"o":"m 189 339 l 189 308 q 236 133 189 195 q 352 71 282 71 l 359 71 q 476 138 431 71 q 522 321 522 204 l 522 360 q 482 528 522 459 q 374 597 441 597 l 353 597 q 237 528 284 597 q 189 339 189 458 m 66 303 l 66 347 q 66 351 66 349 q 88 476 66 414 q 244 653 136 609 q 364 677 302 677 l 375 677 q 497 651 440 677 q 663 338 663 577 l 662 328 q 640 195 662 256 q 490 21 597 72 q 357 -11 423 -11 l 335 -11 q 142 71 219 -11 q 86 174 106 109 q 66 303 66 239 z "},"p":{"ha":760,"x_min":81,"x_max":689,"o":"m 553 354 l 553 370 l 553 377 l 552 393 q 551 408 551 400 q 510 540 551 484 q 414 595 469 595 l 395 595 q 320 575 359 595 q 266 525 281 555 q 239 309 239 473 l 238 294 l 238 287 q 256 138 238 172 q 361 86 283 86 l 375 86 l 382 87 q 505 157 457 87 q 553 354 553 227 m 149 -281 q 81 -228 81 -281 q 92 -178 81 -211 q 105 -129 102 -146 q 113 21 107 -112 q 119 264 119 155 l 119 462 q 108 570 119 537 q 98 614 98 602 q 168 646 98 646 q 209 640 180 646 q 263 635 237 635 q 316 646 288 635 q 371 666 343 657 q 442 674 399 674 l 457 674 q 547 653 500 674 q 627 590 593 633 q 689 399 689 512 q 663 219 689 287 q 594 106 637 152 q 498 41 551 60 q 376 15 446 22 q 281 -6 307 8 q 244 -79 244 -27 q 254 -135 244 -97 q 264 -190 264 -174 q 231 -255 264 -230 q 149 -281 197 -281 z "},"q":{"ha":762,"x_min":73,"x_max":677,"o":"m 343 70 l 363 70 q 479 130 435 70 q 507 297 507 167 l 507 357 l 506 364 l 506 393 l 505 416 q 504 430 504 423 q 376 593 504 593 l 363 593 q 243 524 291 593 q 196 334 196 454 l 196 294 q 237 134 196 198 q 343 70 279 70 m 73 319 l 73 353 q 152 583 73 494 q 354 672 231 672 q 468 652 404 672 q 549 632 529 632 q 551 632 549 632 q 585 633 570 633 q 642 568 631 633 q 642 384 642 564 l 642 140 l 643 110 q 643 79 643 94 l 644 18 q 661 -152 644 -104 q 677 -221 677 -200 q 659 -264 677 -243 q 607 -285 641 -285 l 594 -285 q 528 -265 553 -285 q 503 -211 503 -245 q 509 -172 503 -206 q 515 -88 515 -137 q 494 -15 515 -39 q 425 9 474 9 l 335 5 q 151 93 227 5 q 94 198 115 136 q 73 319 73 260 z "},"r":{"ha":559,"x_min":91,"x_max":517,"o":"m 96 603 q 157 638 96 638 q 254 604 217 638 q 276 591 267 591 q 335 621 284 591 q 427 651 386 651 l 437 651 q 493 634 469 651 q 517 589 517 617 q 467 536 517 536 l 407 542 q 339 518 371 542 q 288 454 308 495 q 257 243 257 389 q 271 144 257 201 q 286 85 286 87 q 257 33 286 56 q 187 9 229 9 l 164 9 q 112 28 132 9 q 91 68 91 47 l 91 79 q 102 119 91 90 q 116 180 113 149 q 119 323 119 212 l 117 398 l 115 471 q 106 572 115 545 q 96 603 96 600 z "},"s":{"ha":621,"x_min":75,"x_max":557,"o":"m 326 684 q 523 587 523 684 q 480 541 523 541 q 446 557 473 541 q 412 576 418 573 q 321 597 370 597 q 240 574 271 597 q 208 512 208 551 q 243 447 208 474 q 364 390 260 433 q 512 306 468 347 q 557 207 557 264 q 539 110 557 149 q 477 40 521 71 q 298 -7 411 -7 q 131 26 186 -7 q 75 110 75 60 q 119 159 75 159 q 171 130 130 159 q 303 83 237 83 q 400 110 370 83 q 431 178 431 137 q 384 250 431 218 q 266 304 362 265 q 127 385 170 342 q 84 504 84 427 q 151 632 84 581 q 326 684 219 684 z "},"t":{"ha":513,"x_min":66,"x_max":437,"o":"m 144 360 q 124 535 144 474 q 91 583 116 561 q 66 621 66 606 l 66 629 q 97 669 66 647 q 134 701 127 691 q 150 751 140 711 q 172 819 160 791 q 221 865 191 865 q 261 849 250 865 q 284 784 272 833 q 312 716 296 736 q 381 678 328 697 q 433 637 433 659 q 381 593 433 608 q 313 548 330 578 q 276 277 276 482 q 301 147 276 181 q 357 107 326 113 q 389 103 360 106 q 428 94 418 100 q 437 64 437 87 q 404 22 437 40 q 328 5 371 5 l 316 5 q 146 277 146 5 l 146 291 q 144 360 144 334 z "},"u":{"ha":769,"x_min":76,"x_max":687,"o":"m 224 599 q 230 388 230 571 q 247 163 230 204 q 293 107 264 122 q 362 92 321 92 q 442 121 402 92 q 498 191 482 151 q 532 498 532 273 q 526 555 532 523 q 521 602 521 587 q 535 629 521 616 q 592 643 549 643 q 648 616 635 643 q 657 535 657 600 l 658 517 q 659 477 659 499 l 659 429 q 663 292 659 371 l 665 275 q 668 202 666 258 q 679 118 670 147 q 687 74 687 88 q 670 43 687 59 q 616 28 652 28 q 545 43 581 28 q 497 59 509 59 q 464 51 485 59 l 450 45 q 319 12 372 12 l 302 12 q 136 104 186 12 q 99 411 99 170 q 87 574 99 537 q 76 621 76 611 q 143 658 76 658 l 158 658 q 224 599 211 658 z "},"v":{"ha":696,"x_min":44,"x_max":655,"o":"m 581 665 l 607 665 q 655 619 655 665 q 629 549 655 591 q 523 288 603 507 q 399 24 443 68 q 336 3 378 3 q 254 85 294 3 q 162 319 233 128 q 67 547 91 509 q 44 609 44 585 l 44 620 q 59 654 44 644 q 111 664 73 664 q 215 606 191 664 q 223 564 219 595 q 246 470 227 532 q 272 380 264 408 q 361 159 334 159 q 458 393 378 159 q 499 522 491 491 q 510 584 507 552 q 515 626 512 616 q 581 665 529 665 z "},"w":{"ha":1024,"x_min":77,"x_max":954,"o":"m 286 46 q 248 64 274 46 q 210 113 222 81 q 158 278 197 144 q 98 480 120 411 q 77 583 77 549 q 119 642 77 642 q 191 604 169 642 q 225 480 202 584 q 271 315 248 377 q 336 197 313 197 q 391 312 358 197 q 430 498 425 427 q 439 580 436 569 q 515 642 458 642 q 618 515 601 642 q 678 257 635 389 q 718 201 696 201 q 783 325 740 201 q 837 524 825 448 q 857 616 848 600 q 909 647 874 647 q 954 589 954 647 q 920 456 954 568 q 860 253 886 345 q 818 121 834 161 q 775 62 802 81 q 723 43 749 43 q 644 117 688 43 q 566 273 617 161 q 509 385 515 385 q 446 260 503 385 q 366 102 388 135 q 286 46 328 46 z "},"x":{"ha":701,"x_min":65,"x_max":642,"o":"m 132 -2 l 115 -2 q 65 28 65 -2 l 65 39 q 97 90 65 56 q 194 221 129 125 q 260 337 260 317 q 199 447 260 357 q 104 572 138 536 q 70 627 70 607 q 142 663 70 663 q 241 639 214 663 q 264 601 256 626 q 292 542 272 575 q 369 446 351 446 q 450 552 388 446 q 475 610 467 583 q 499 653 483 637 q 570 668 515 668 q 625 636 625 668 q 530 504 625 635 q 435 343 435 372 q 537 180 435 314 q 608 99 574 131 q 642 49 642 66 q 547 11 642 11 q 465 41 490 11 q 448 75 460 45 q 414 135 435 104 q 332 233 347 233 q 256 135 317 233 q 222 64 234 100 q 203 20 211 28 q 132 -2 181 -2 z "},"y":{"ha":708,"x_min":71,"x_max":646,"o":"m 71 589 q 89 624 71 608 q 151 640 106 640 q 214 606 195 640 q 225 563 220 594 q 266 405 229 532 q 357 178 332 178 q 465 374 400 179 q 508 605 508 502 q 527 649 508 636 q 571 663 547 663 l 587 663 q 646 613 646 663 l 646 598 q 623 529 646 591 q 578 385 601 468 q 434 -45 490 64 q 205 -270 319 -269 l 193 -270 q 144 -239 144 -270 q 198 -191 144 -208 q 280 -140 252 -175 q 328 2 328 -79 q 200 266 328 3 q 71 574 71 528 l 71 589 z "},"z":{"ha":661,"x_min":74,"x_max":597,"o":"m 550 667 q 563 663 550 667 q 576 624 576 659 q 415 363 576 589 q 254 120 254 137 q 351 91 254 91 q 497 111 448 91 q 559 130 545 130 q 597 94 597 130 l 597 79 q 538 12 597 28 q 298 5 513 5 l 245 5 l 175 5 l 140 5 q 74 41 74 5 q 237 319 74 85 q 399 563 399 552 q 322 589 399 589 q 220 584 244 589 q 167 569 196 578 q 119 560 138 560 q 81 612 81 560 q 170 678 81 678 l 294 678 l 312 677 l 365 677 l 451 675 q 550 667 524 675 z "},"{":{"ha":499,"x_min":69,"x_max":438,"o":"m 238 458 q 210 429 210 433 q 224 414 210 426 q 279 340 262 380 q 296 217 296 299 q 293 150 296 216 l 292 134 l 291 117 l 290 84 q 311 -45 290 -7 q 379 -111 331 -83 q 428 -165 428 -138 q 384 -188 428 -188 l 367 -188 q 281 -169 322 -188 q 216 -118 239 -149 q 173 67 173 -61 q 177 134 173 72 q 180 251 180 197 q 163 333 180 306 q 107 383 145 359 q 69 423 69 406 q 112 479 69 452 q 170 537 155 506 q 186 659 186 569 l 182 777 q 294 1023 182 973 q 390 1044 342 1044 q 438 1018 438 1044 q 389 964 438 992 q 325 908 340 937 q 300 758 300 863 l 304 643 q 238 458 304 521 z "},"|":{"ha":370,"x_min":133,"x_max":241,"o":"m 133 -131 l 133 1 l 134 14 l 134 54 l 134 81 l 134 134 l 135 161 q 135 214 135 187 l 136 241 l 136 267 l 136 294 q 136 321 136 307 l 137 347 l 137 401 l 138 427 q 143 954 138 891 q 157 1027 149 1017 q 194 1038 165 1038 q 231 1027 222 1038 q 241 960 241 1017 l 241 908 l 240 895 q 240 856 240 876 l 239 830 q 239 791 239 810 l 239 764 l 239 711 l 238 699 l 238 672 l 237 646 l 237 526 l 237 498 q 237 193 237 498 q 229 -151 237 -80 q 189 -195 223 -195 l 176 -195 q 142 -186 152 -195 q 133 -131 133 -176 z "},"}":{"ha":503,"x_min":69,"x_max":436,"o":"m 83 1015 q 116 1043 83 1043 l 132 1043 q 282 982 234 1043 q 331 812 331 922 l 320 629 q 338 530 320 555 q 396 478 355 504 q 436 441 436 452 l 436 427 q 395 380 436 407 q 339 323 355 354 q 323 201 323 293 l 324 134 l 326 100 l 325 68 q 269 -127 325 -64 q 112 -191 214 -191 q 69 -169 69 -191 l 69 -158 q 120 -110 69 -138 q 186 -52 171 -82 q 211 116 211 -4 l 209 216 q 249 372 209 324 q 281 407 262 389 q 299 428 299 425 q 281 446 299 431 q 251 474 264 461 q 222 520 237 488 q 207 642 207 553 l 215 791 q 186 922 215 878 q 128 966 173 941 q 83 1015 83 992 z "},"~":{"ha":730,"x_min":79,"x_max":655,"o":"m 655 541 l 655 527 q 603 442 655 484 q 494 400 551 400 l 486 400 q 354 441 437 400 q 238 483 271 483 q 161 448 205 483 q 102 414 118 414 q 79 439 79 414 l 79 446 q 127 534 79 489 q 227 579 176 579 l 255 579 q 375 538 300 579 q 486 497 450 497 q 573 532 523 497 q 626 566 623 566 q 655 541 655 566 z "},"":{"ha":380,"x_min":0,"x_max":0,"o":""},"":{"ha":401,"x_min":119,"x_max":271,"o":"m 191 656 q 140 682 161 656 q 119 741 119 708 l 119 748 q 176 800 119 800 l 181 800 q 248 776 224 800 q 271 716 271 752 l 271 705 l 269 688 q 237 658 269 658 q 228 656 231 656 l 216 654 l 207 654 l 204 655 l 199 655 q 191 656 195 656 m 248 -59 q 239 -138 248 -119 q 195 -156 230 -156 l 176 -156 q 142 -87 142 -156 l 142 -3 l 143 5 l 143 21 l 144 37 q 144 53 144 45 l 151 222 q 151 239 151 231 l 155 311 l 155 319 l 160 414 l 161 446 l 163 461 q 163 477 163 469 q 201 538 163 538 q 227 475 227 538 l 230 427 l 232 387 l 233 372 l 245 98 q 245 82 245 90 l 247 26 l 247 11 l 248 -5 l 248 -21 l 248 -52 l 248 -59 z "},"":{"ha":696,"x_min":96,"x_max":591,"o":"m 204 399 l 204 358 q 244 213 204 292 q 327 133 284 133 q 336 198 336 133 l 334 250 q 333 277 333 256 l 333 333 l 334 352 q 334 364 334 358 l 336 395 l 337 420 q 338 439 338 434 l 340 464 q 350 536 340 482 q 359 613 359 590 l 359 618 q 350 638 359 638 l 341 638 q 251 563 297 638 q 204 399 204 487 m 96 345 l 96 396 q 156 594 96 506 q 237 667 185 637 q 282 688 248 673 q 328 713 316 703 q 360 772 339 724 q 395 820 380 820 l 404 820 q 559 651 431 820 q 583 585 583 619 q 543 545 583 545 q 500 576 530 545 q 444 606 471 606 q 414 546 421 606 q 396 241 396 385 q 410 160 396 179 q 446 142 423 142 q 510 160 469 142 q 571 178 551 178 q 591 160 591 178 q 510 74 591 119 q 411 0 430 28 q 349 -73 361 -73 q 321 -32 333 -73 q 295 23 309 9 q 257 52 281 37 q 96 345 96 150 z "},"":{"ha":769,"x_min":95,"x_max":680,"o":"m 95 41 q 127 107 95 62 q 175 195 159 152 q 191 303 191 237 q 148 413 191 369 q 106 471 106 456 q 131 511 106 486 q 160 547 157 535 q 183 671 164 558 q 241 838 201 783 q 341 920 280 892 q 476 947 402 947 q 604 918 549 947 q 658 841 658 889 q 612 792 658 792 q 563 818 606 792 q 469 844 519 844 q 360 791 399 844 q 321 659 321 739 q 356 549 321 579 q 445 517 380 529 q 510 475 510 505 q 455 427 510 446 q 355 370 375 400 q 302 190 302 291 q 328 122 302 144 q 427 100 353 100 q 558 115 502 100 q 629 130 614 130 q 680 88 680 130 l 680 73 q 633 12 680 33 q 504 -9 586 -9 l 458 -9 l 319 0 q 184 3 274 3 q 95 41 95 3 z "},"":{"ha":787,"x_min":98,"x_max":696,"o":"m 567 473 l 567 486 q 520 618 567 562 q 401 673 473 673 l 389 673 q 272 620 321 673 q 223 491 223 566 l 222 478 l 222 465 l 222 458 q 270 330 222 382 q 386 278 317 278 l 392 278 l 398 279 q 516 334 465 279 q 567 473 567 389 m 301 205 q 244 222 259 222 q 193 188 229 222 q 145 154 158 154 q 115 170 132 154 q 98 197 98 186 q 134 248 98 208 q 169 301 169 287 q 153 354 169 315 q 137 449 137 393 q 144 529 137 505 q 161 577 151 553 q 171 617 171 602 q 136 671 171 631 q 102 716 102 711 q 118 749 102 730 q 147 768 134 768 q 193 739 159 768 q 252 709 227 709 q 289 721 257 709 q 342 738 321 732 q 407 743 363 743 q 496 726 452 743 q 554 709 541 709 q 603 739 567 709 q 651 770 638 770 q 680 753 664 770 q 696 724 696 736 q 660 674 696 712 q 623 608 623 635 q 635 566 623 603 q 648 476 648 530 q 628 374 648 422 q 608 311 608 326 q 645 257 608 296 q 683 205 683 218 q 667 179 683 193 q 641 165 652 165 q 594 197 630 165 q 541 228 557 228 q 499 218 525 228 q 391 193 437 193 q 301 205 345 193 z "},"":{"ha":827,"x_min":83,"x_max":748,"o":"m 83 873 q 178 928 83 928 q 265 888 243 928 q 275 839 273 873 q 290 777 276 806 q 435 517 412 517 l 448 528 q 568 754 499 589 q 587 809 585 793 q 592 852 589 825 q 598 890 594 880 q 682 929 615 929 q 748 880 748 929 q 713 815 748 859 q 654 729 677 770 q 575 543 575 593 q 600 480 575 515 q 625 436 625 445 q 573 394 625 415 q 522 345 522 372 q 578 302 522 317 q 634 268 634 287 q 570 214 634 248 q 507 130 507 180 l 510 116 l 517 100 q 522 63 522 85 q 406 1 522 1 q 335 26 362 1 q 309 78 309 51 l 320 138 q 263 215 320 174 q 205 265 205 256 q 258 305 205 289 q 310 352 310 321 q 260 395 310 371 q 210 435 210 420 q 232 488 210 451 q 254 541 254 524 q 202 670 254 576 q 116 810 149 764 q 83 873 83 856 z "},"":{"ha":360,"x_min":132,"x_max":224,"o":"m 132 559 l 132 977 q 140 1011 132 1003 q 182 1019 149 1019 l 188 1019 q 224 965 224 1019 l 224 929 l 224 923 l 224 559 l 223 542 q 180 512 223 512 l 157 512 q 132 559 132 512 m 132 -148 l 132 277 q 183 318 132 318 l 189 318 q 224 268 224 318 l 224 -151 q 184 -192 224 -192 l 161 -192 q 132 -148 132 -192 z "},"":{"ha":701,"x_min":113,"x_max":596,"o":"m 208 493 l 208 484 l 209 480 q 262 384 209 433 q 332 338 278 370 q 413 289 387 307 q 452 271 439 271 q 480 294 465 271 q 496 357 496 316 l 496 367 q 458 451 496 410 q 287 602 319 602 l 281 602 l 277 602 q 235 565 261 602 q 208 493 208 529 m 433 820 q 350 845 400 845 q 272 820 300 845 q 244 754 244 794 q 290 674 244 713 q 410 603 309 658 q 554 501 511 549 q 596 390 596 453 q 573 283 596 328 q 532 196 532 205 l 536 182 l 551 149 q 566 75 566 111 q 503 -66 566 -7 q 337 -125 439 -125 l 315 -125 q 174 -92 234 -125 q 113 -9 113 -59 q 157 41 113 41 q 206 10 172 41 q 266 -32 239 -21 q 344 -43 293 -43 q 422 -12 395 -43 q 449 59 449 19 q 405 136 449 98 q 295 205 381 156 q 174 290 208 254 q 116 432 116 351 q 129 495 116 469 q 158 549 141 521 q 175 583 175 577 q 149 637 175 589 q 123 730 123 685 q 185 871 123 814 q 343 928 248 928 q 486 898 438 928 q 534 814 534 867 q 494 778 534 778 q 433 820 489 778 z "},"":{"ha":568,"x_min":73,"x_max":473,"o":"m 213 854 l 212 842 q 193 804 212 819 q 146 789 174 789 l 138 789 l 136 790 l 129 790 q 117 792 119 792 q 76 837 76 792 q 75 844 75 841 l 73 853 l 73 871 q 77 890 77 881 q 122 932 77 932 q 130 933 127 933 l 138 935 l 153 935 q 173 932 159 932 q 200 915 186 932 q 214 871 214 898 l 214 856 l 213 854 m 471 842 q 453 804 471 819 q 406 789 434 789 l 398 789 l 395 790 l 379 792 q 375 793 376 793 q 336 835 336 793 q 334 844 334 842 l 333 857 l 333 869 l 334 871 l 334 876 q 335 889 335 880 q 349 915 335 898 q 385 932 362 932 l 399 935 l 416 935 l 433 931 q 470 890 470 931 q 472 880 472 883 l 473 868 l 473 856 l 473 853 l 473 848 q 471 842 471 844 z "},"":{"ha":1041,"x_min":62,"x_max":964,"o":"m 502 90 l 527 90 q 662 119 594 90 q 844 309 789 172 q 874 466 874 387 l 874 505 q 846 647 873 572 q 661 846 793 793 q 522 875 591 875 l 509 874 l 496 874 q 357 842 429 874 q 166 633 216 778 q 142 486 142 564 l 142 473 q 251 196 142 309 q 363 120 296 150 q 502 90 431 90 m 286 466 l 286 492 q 351 682 286 606 q 509 758 415 758 q 647 734 603 758 q 692 656 692 710 q 663 621 692 621 q 610 655 656 621 q 509 690 564 690 q 415 639 454 690 q 376 485 376 589 q 417 328 376 380 q 528 275 458 275 q 618 303 571 275 q 679 332 666 332 q 698 311 698 332 q 646 237 698 270 q 522 205 595 205 l 509 205 q 349 276 412 205 q 286 466 286 348 m 515 30 l 500 30 q 328 62 412 30 q 185 153 243 95 q 94 296 127 212 q 62 475 62 380 l 62 490 l 62 505 q 100 673 62 587 q 339 903 176 842 q 510 935 424 935 l 526 935 q 700 902 614 935 q 935 659 865 838 q 964 490 964 583 l 964 475 l 964 471 q 930 302 964 389 q 687 62 864 130 q 515 30 604 30 z "},"":{"ha":546,"x_min":71,"x_max":463,"o":"m 222 558 l 239 558 q 252 560 247 560 q 299 583 277 560 q 322 627 322 606 l 328 661 l 330 692 l 330 703 q 302 722 330 722 l 281 722 l 278 721 l 244 718 l 234 716 q 190 693 213 716 q 167 646 167 670 l 165 627 l 165 624 l 165 621 q 184 573 165 589 q 222 558 202 558 m 206 496 l 186 496 q 102 529 134 496 q 71 606 71 563 l 71 616 q 227 749 71 718 l 247 753 q 292 765 279 760 q 318 812 318 777 q 297 866 318 848 q 247 885 276 885 q 182 861 218 885 q 127 836 146 836 q 97 876 97 836 q 145 925 97 902 q 260 948 193 948 l 271 947 q 404 888 367 947 q 429 694 429 848 q 433 604 429 624 q 450 567 437 585 q 463 535 463 549 q 400 502 463 502 q 358 515 381 502 q 326 528 334 528 q 276 512 317 528 q 206 496 235 496 z "},"":{"ha":722,"x_min":58,"x_max":624,"o":"m 367 124 q 335 93 367 93 l 329 93 q 182 225 307 93 q 58 370 58 357 q 188 523 58 394 q 332 652 317 652 l 339 652 q 366 618 366 652 q 272 488 366 601 q 178 374 178 375 q 272 259 178 372 q 367 124 367 145 m 444 374 q 534 263 444 372 q 624 136 624 154 l 624 131 q 593 100 624 100 l 587 100 q 449 225 573 100 q 324 368 324 349 q 446 517 324 387 q 590 646 568 646 l 596 646 q 624 620 624 646 l 624 614 q 534 487 624 589 q 444 374 444 385 z "},"":{"ha":779,"x_min":79,"x_max":692,"o":"m 692 430 l 692 394 l 691 385 l 690 357 q 690 278 690 357 q 686 205 690 217 q 661 193 682 193 l 652 193 q 608 216 618 193 q 597 315 597 239 q 553 404 597 391 q 330 408 536 408 q 113 410 124 408 q 79 441 79 414 l 79 459 q 109 496 79 493 q 393 498 126 498 l 550 499 l 631 499 q 680 483 667 499 q 692 430 692 467 z "},"":{"ha":573,"x_min":80,"x_max":494,"o":"m 105 340 q 80 362 80 340 l 80 382 q 101 431 80 425 q 295 434 115 434 l 410 436 l 465 436 q 494 409 494 436 l 494 395 q 475 347 494 351 q 279 342 456 342 l 249 342 l 234 341 l 199 341 l 179 340 l 105 340 z "},"":{"ha":988,"x_min":65,"x_max":896,"o":"m 566 650 l 566 668 q 565 678 565 675 q 542 731 565 709 q 493 754 519 754 l 486 755 l 460 758 l 439 758 q 404 735 404 758 l 404 707 l 404 704 l 404 654 l 404 642 l 404 612 q 422 573 404 573 l 427 572 l 463 572 l 488 574 q 541 596 516 574 q 566 650 566 617 m 131 574 l 131 551 q 240 289 131 393 q 490 198 334 198 q 625 225 562 198 q 731 298 688 252 q 799 409 774 344 q 823 540 823 474 l 823 563 q 798 696 823 625 q 724 814 772 766 q 476 916 623 916 l 465 916 q 232 826 322 916 q 160 716 189 783 q 131 574 131 650 m 467 812 q 645 678 645 812 q 606 583 645 633 q 567 532 567 533 q 599 461 567 513 q 651 385 631 410 q 671 352 671 361 l 671 345 q 625 325 671 325 q 536 420 587 325 q 448 515 486 515 q 420 499 436 515 q 405 451 405 484 q 412 396 405 419 q 418 366 418 372 q 360 323 418 323 l 350 323 q 292 363 292 323 q 300 387 292 373 q 312 409 309 401 q 315 454 315 418 l 315 519 l 316 530 l 316 641 l 315 695 q 309 766 315 748 q 303 790 303 784 q 433 812 303 812 l 456 812 l 467 812 m 65 537 l 65 565 q 98 728 65 649 q 306 947 162 886 q 461 983 391 983 l 503 983 q 652 951 576 982 q 859 749 798 890 q 896 580 896 663 l 896 551 q 866 395 896 474 q 780 259 836 317 q 644 168 724 201 q 491 134 564 134 l 449 134 q 301 166 376 134 q 176 251 227 198 q 95 380 125 304 q 65 537 65 457 z "},"":{"ha":572,"x_min":73,"x_max":507,"o":"m 507 873 l 507 859 q 484 816 507 821 q 281 814 478 814 l 127 814 l 117 814 q 73 838 73 814 l 73 848 l 73 852 q 104 897 73 897 l 477 897 q 507 873 507 897 z "},"":{"ha":526,"x_min":79,"x_max":449,"o":"m 156 784 l 156 768 q 187 686 156 718 q 254 655 218 655 l 264 655 q 338 689 309 655 q 368 772 368 724 l 368 781 q 338 865 368 836 q 282 895 309 895 l 264 897 l 260 897 q 242 895 248 895 q 185 862 214 895 q 156 784 156 828 m 79 768 l 79 779 q 136 909 79 861 q 263 958 194 958 l 269 958 q 394 911 339 958 q 449 785 449 865 l 449 779 l 448 772 q 393 645 448 696 q 263 594 338 594 l 257 594 q 134 641 189 594 q 79 768 79 687 z "},"":{"ha":752,"x_min":85,"x_max":665,"o":"m 640 448 q 531 444 626 444 q 428 433 436 444 q 419 332 419 423 q 413 231 419 241 q 376 220 406 220 l 366 220 q 335 232 340 220 q 330 336 330 244 q 317 437 330 428 q 212 442 310 442 q 100 446 115 442 q 85 471 85 449 l 85 482 q 101 522 85 515 q 217 529 117 529 q 323 538 317 529 q 329 635 329 548 q 333 738 329 722 q 374 755 338 755 l 385 755 q 414 744 410 755 q 419 638 419 732 q 428 537 419 544 q 541 530 437 530 q 654 525 644 530 q 665 488 665 520 q 640 448 665 455 m 405 56 l 325 56 l 319 56 l 246 56 l 233 57 l 128 57 l 109 58 q 85 89 85 58 l 85 96 l 86 102 q 110 142 86 138 q 332 146 133 146 l 405 146 q 653 142 642 146 q 665 113 665 138 l 665 106 l 664 100 q 637 60 664 64 q 405 56 610 56 z "},"":{"ha":538,"x_min":87,"x_max":445,"o":"m 210 549 q 254 534 210 534 q 257 534 256 534 q 320 534 304 534 q 373 544 336 534 q 418 554 410 554 q 445 525 445 554 l 445 514 q 406 462 445 472 q 271 455 380 455 l 258 455 l 245 456 l 207 455 q 107 463 127 455 q 87 498 87 470 q 182 631 87 543 q 304 757 277 720 q 331 835 331 794 q 308 896 331 876 q 251 915 284 915 q 176 880 218 915 q 119 845 134 845 q 90 885 90 845 q 144 957 90 925 q 268 989 197 989 q 386 952 339 989 q 433 853 433 916 q 400 745 433 791 q 289 635 368 700 q 210 549 210 570 z "},"":{"ha":535,"x_min":87,"x_max":444,"o":"m 260 443 l 233 443 q 134 466 181 443 q 87 519 87 490 l 87 528 q 125 557 87 557 q 158 545 135 557 q 201 524 181 533 q 259 515 222 515 q 318 540 296 515 q 340 601 340 564 q 250 694 340 669 q 199 731 199 707 q 236 763 199 746 q 312 854 312 799 q 242 916 312 916 q 173 896 212 916 q 129 876 134 876 q 101 907 101 876 q 153 962 101 937 q 271 987 203 987 q 412 871 411 987 q 363 766 412 820 q 343 742 343 745 q 373 721 343 739 q 444 604 444 678 q 388 486 444 530 q 260 443 333 443 z "},"":{"ha":463,"x_min":123,"x_max":372,"o":"m 327 1002 q 372 970 372 1002 l 372 966 q 277 854 372 939 q 154 769 181 769 l 151 769 q 123 785 123 769 l 123 794 q 234 959 123 832 q 302 1000 270 1000 l 309 1002 l 327 1002 z "},"":{"ha":796,"x_min":103,"x_max":707,"o":"m 707 98 q 637 24 707 24 q 585 37 623 24 q 525 50 547 50 q 452 35 502 50 q 338 13 402 20 q 259 -5 275 5 q 231 -97 234 -22 q 213 -205 229 -172 q 165 -239 198 -239 q 116 -182 126 -239 q 106 38 106 -125 l 108 128 q 109 172 109 151 l 109 195 q 110 239 110 217 l 111 262 q 111 307 111 284 l 113 351 l 113 418 q 108 544 113 504 q 103 609 103 584 q 122 650 103 634 q 168 666 140 666 l 185 666 q 229 633 215 666 q 243 507 243 600 l 242 486 q 241 440 241 464 l 239 372 q 239 304 239 349 q 270 130 239 176 q 374 83 300 83 q 455 106 415 83 q 515 163 496 130 q 545 366 545 214 q 553 579 545 519 q 598 640 562 640 q 661 595 648 640 q 671 446 661 594 q 694 206 681 298 q 707 98 707 114 z "},"":{"ha":795,"x_min":83,"x_max":686,"o":"m 653 -13 q 616 -63 653 -63 q 576 -28 587 -63 q 562 155 562 18 l 562 178 q 559 292 559 247 l 558 315 q 557 360 557 338 q 541 741 557 665 q 507 768 535 768 q 454 736 460 768 q 452 565 452 726 q 449 323 452 403 q 447 218 447 244 q 429 14 447 88 q 388 -35 417 -35 q 345 25 345 -35 l 351 133 q 311 370 351 290 q 231 455 288 416 q 130 534 146 515 q 83 671 83 593 q 172 889 83 827 q 435 951 260 951 l 460 951 l 485 950 q 652 940 618 950 q 686 895 686 929 q 680 861 686 888 l 675 844 q 652 694 652 765 l 648 523 l 648 473 l 648 424 l 647 374 l 647 325 l 648 250 l 648 201 l 648 152 q 648 79 648 115 l 650 56 l 652 33 q 653 -13 653 14 z "},"":{"ha":371,"x_min":100,"x_max":269,"o":"m 101 433 l 103 456 q 124 498 103 480 q 182 515 146 515 l 197 515 l 216 513 q 252 495 237 513 q 267 456 267 477 l 269 443 l 269 422 q 267 401 267 414 q 248 368 267 387 q 190 349 229 349 l 170 349 q 148 351 162 351 q 117 371 134 351 q 100 431 100 391 l 101 433 z "},"":{"ha":458,"x_min":122,"x_max":358,"o":"m 212 -291 l 195 -291 q 122 -258 122 -291 q 167 -229 122 -229 l 186 -228 q 234 -210 214 -228 q 254 -167 254 -193 q 214 -122 254 -141 q 174 -78 174 -104 q 194 -3 174 -34 q 223 11 203 11 l 233 11 q 256 -26 256 11 q 307 -80 256 -53 q 358 -161 358 -108 l 358 -167 l 357 -173 q 313 -256 357 -222 q 212 -291 268 -291 z "},"":{"ha":448,"x_min":92,"x_max":338,"o":"m 189 711 l 186 784 q 170 850 186 831 q 127 865 162 858 q 92 890 92 871 q 118 924 92 909 q 248 978 212 978 l 255 978 q 286 943 281 978 l 286 863 l 286 846 l 286 707 q 290 587 286 607 q 316 543 295 568 q 338 498 338 517 l 338 492 q 318 464 338 479 q 241 448 298 448 l 233 448 q 153 465 174 448 q 132 502 132 482 q 154 542 132 521 q 183 586 177 562 q 189 656 189 609 l 189 711 z "},"":{"ha":563,"x_min":62,"x_max":483,"o":"m 378 708 l 378 746 q 376 772 376 762 q 343 865 376 828 q 273 901 310 901 l 260 901 q 192 860 220 901 q 163 748 163 819 l 163 704 l 165 673 q 197 585 165 621 q 264 550 228 550 l 269 550 q 348 593 317 550 q 378 708 378 636 m 483 734 l 483 719 q 424 555 483 618 q 279 492 366 492 l 248 492 q 116 550 170 492 q 62 703 62 608 l 62 733 q 118 888 62 823 q 264 953 174 953 l 294 953 q 430 892 377 953 q 483 734 483 831 z "},"":{"ha":722,"x_min":85,"x_max":648,"o":"m 114 646 l 120 646 q 258 521 133 646 q 382 378 382 396 l 382 371 q 261 229 382 358 q 123 100 139 100 l 117 100 q 87 130 87 100 q 177 259 87 152 q 267 373 267 367 q 233 418 267 380 q 85 615 85 584 q 114 646 85 646 m 376 653 q 524 520 399 653 q 648 370 648 388 q 519 222 648 351 q 375 93 390 93 q 345 123 345 93 q 439 257 345 144 q 533 376 533 370 q 438 489 533 382 q 343 617 343 595 l 343 623 q 376 653 343 653 z "},"":{"ha":1095,"x_min":105,"x_max":984,"o":"m 699 202 l 746 202 q 808 231 808 202 l 808 297 l 807 300 l 807 314 l 806 321 l 806 369 l 807 376 l 807 383 l 808 397 l 808 433 q 806 437 808 437 q 731 327 805 437 q 658 210 658 217 q 699 202 658 202 m 235 401 l 210 401 q 155 421 186 401 q 140 451 140 431 q 158 493 140 471 q 185 541 177 515 q 193 673 193 566 q 180 803 193 780 q 137 839 168 826 q 105 867 105 851 q 138 905 105 888 q 254 951 227 951 l 262 951 q 295 871 295 951 l 294 846 q 293 830 293 838 l 292 804 l 292 787 l 291 770 l 291 745 l 290 736 l 290 720 l 290 694 q 294 542 290 567 q 317 493 299 517 q 335 449 335 469 q 310 415 335 429 q 235 401 284 401 m 781 940 l 791 940 q 827 917 827 940 q 798 856 827 909 q 346 67 395 146 q 269 -11 298 -11 l 258 -11 q 222 12 222 -11 q 252 73 222 21 q 712 876 654 782 q 781 940 751 940 m 868 535 l 885 535 q 916 515 909 535 q 923 387 923 496 q 932 252 923 279 q 963 199 941 224 q 984 174 984 174 l 984 165 q 962 111 984 137 q 940 75 940 85 q 942 48 942 57 q 865 -14 942 -14 q 817 8 835 -14 q 799 58 799 31 q 783 97 799 85 q 691 125 745 125 q 652 126 673 126 q 613 141 630 126 q 596 173 596 156 l 596 179 q 783 467 596 221 q 868 535 836 535 z "},"":{"ha":1124,"x_min":90,"x_max":1021,"o":"m 242 411 l 210 411 q 153 427 176 411 q 129 463 129 443 q 151 508 129 483 q 178 557 172 534 q 184 685 184 581 q 171 810 184 789 q 124 839 159 830 q 90 867 90 848 q 118 901 90 886 q 248 956 216 956 l 255 956 q 283 925 279 956 l 283 819 l 283 811 l 283 743 q 285 561 283 579 q 308 510 288 543 q 329 465 329 477 l 329 458 q 309 426 329 441 q 242 411 288 411 m 712 889 q 788 956 750 956 q 826 934 826 956 q 808 892 826 928 q 340 48 609 507 q 274 -18 301 -18 l 263 -18 q 226 3 226 -18 q 712 889 226 31 m 660 37 q 755 175 660 83 q 878 305 850 267 q 906 382 906 342 q 884 443 906 422 q 827 464 863 464 q 752 430 791 464 q 700 397 713 397 q 668 439 668 397 q 723 513 668 481 q 838 545 777 545 l 851 545 q 970 502 928 545 q 1011 396 1011 458 q 967 279 1011 334 q 866 179 943 248 q 790 92 790 111 q 849 78 790 78 q 949 87 909 78 q 993 96 990 96 q 1021 58 1021 96 q 984 5 1021 19 q 848 -5 959 -5 l 835 -5 l 822 -4 q 683 4 705 -4 q 660 37 660 12 z "},"":{"ha":1155,"x_min":98,"x_max":1055,"o":"m 786 201 l 833 201 q 881 208 875 201 q 887 272 887 216 l 887 279 l 886 283 l 886 303 l 886 310 q 886 317 886 313 l 884 330 q 882 432 884 432 q 852 389 879 432 q 805 317 811 325 q 780 278 800 309 q 744 226 761 248 q 728 203 728 205 q 786 201 728 201 m 281 962 q 426 843 426 962 q 378 736 426 787 q 355 709 355 711 q 384 689 355 707 q 454 570 454 644 q 397 448 454 495 q 265 401 340 401 q 144 425 189 401 q 98 483 98 448 q 132 517 98 517 q 185 496 138 517 q 266 475 232 475 q 326 499 300 475 q 351 564 351 524 q 325 625 351 604 q 256 658 299 646 q 214 692 214 670 q 270 736 214 705 q 326 817 326 768 q 308 866 326 848 q 257 885 289 885 q 191 865 226 885 q 143 846 155 846 q 117 876 117 846 q 163 934 117 907 q 281 962 209 962 m 795 895 q 869 951 831 951 q 907 929 907 951 q 884 878 907 919 q 408 58 528 250 q 329 -9 367 -9 q 291 13 291 -9 q 319 74 291 24 q 795 895 690 728 m 666 175 l 666 187 q 852 468 666 227 q 946 540 908 540 l 955 540 q 990 510 984 540 q 993 395 993 497 q 999 267 993 294 q 1017 225 1005 241 q 1042 197 1029 210 q 1055 179 1055 184 l 1055 171 q 1033 116 1055 147 q 1010 83 1010 85 l 1012 70 l 1012 47 q 993 7 1012 24 q 938 -9 974 -9 l 929 -9 q 885 17 900 -9 q 871 66 871 43 q 854 102 871 90 q 765 130 814 130 l 730 131 q 682 146 697 131 q 666 175 666 162 z "},"":{"ha":650,"x_min":79,"x_max":559,"o":"m 353 812 l 365 812 q 421 793 399 812 q 443 737 443 775 l 443 723 q 426 669 443 690 q 391 649 409 649 l 378 647 l 360 647 l 334 651 q 302 669 320 651 q 285 714 285 686 q 283 725 283 722 l 282 742 l 282 747 l 284 762 q 302 794 284 776 q 353 812 320 812 m 255 -16 q 275 -33 255 -16 q 343 -49 294 -49 q 433 -23 391 -49 q 515 22 508 22 q 559 -28 559 22 q 495 -117 559 -79 q 336 -155 430 -155 l 323 -155 q 145 -94 212 -155 q 79 58 79 -33 l 79 71 q 112 200 79 145 q 212 314 146 255 q 294 394 277 372 q 317 475 311 415 q 350 536 322 536 l 361 536 q 397 513 389 536 q 406 438 406 490 q 382 347 406 386 q 305 252 357 307 q 234 161 252 197 q 216 71 216 125 q 255 -16 216 16 z "},"":{"ha":899,"x_min":55,"x_max":825,"o":"m 364 388 l 502 388 l 508 389 l 525 389 q 536 390 530 390 q 562 403 562 390 l 562 408 q 446 750 562 485 q 420 804 422 804 q 390 749 414 804 q 278 407 278 494 q 364 388 278 388 m 255 1203 l 255 1213 q 308 1244 255 1244 l 315 1244 q 401 1203 359 1244 q 517 1055 517 1087 l 517 1049 q 496 1029 517 1029 l 482 1029 q 471 1030 475 1030 q 348 1102 440 1030 q 255 1203 255 1174 m 195 42 q 156 14 195 14 q 96 32 117 14 q 55 111 55 68 q 81 167 55 130 q 123 244 106 204 q 162 361 139 285 q 253 633 184 437 q 341 873 321 830 q 380 934 361 917 q 434 951 399 951 q 495 925 469 951 q 557 815 520 899 q 686 460 594 731 q 787 176 778 189 q 825 90 825 117 q 794 37 825 63 q 719 10 763 10 q 660 24 675 10 q 645 70 645 39 l 648 106 q 624 202 648 146 q 572 278 600 258 q 415 298 545 298 q 262 277 286 298 q 214 193 238 256 q 189 97 189 129 l 195 42 z "},"":{"ha":899,"x_min":56,"x_max":823,"o":"m 298 395 l 326 395 l 332 396 l 424 399 q 562 410 562 399 l 562 414 l 562 419 q 538 521 562 452 q 426 815 440 815 q 392 752 424 815 q 318 561 361 689 q 275 408 275 433 q 298 395 275 395 m 387 1013 l 376 1013 q 353 1036 353 1013 l 354 1039 q 474 1196 354 1090 q 555 1235 517 1235 l 566 1235 q 617 1197 617 1235 l 616 1194 q 570 1128 616 1168 q 387 1013 439 1013 m 195 60 q 156 28 195 28 q 96 49 118 28 q 56 114 56 85 q 81 175 56 142 q 118 241 106 208 q 219 537 131 275 q 334 858 307 800 q 382 932 361 916 q 438 947 404 947 q 497 919 472 947 q 553 822 522 890 q 643 586 585 754 q 731 324 701 417 q 771 210 761 231 q 803 163 782 189 q 823 117 823 137 l 823 104 q 780 41 823 72 q 716 23 755 23 q 642 75 642 23 q 645 121 645 118 q 622 208 645 157 q 574 279 598 258 q 417 300 550 300 q 256 274 285 300 q 215 199 239 260 q 191 102 191 138 l 195 60 z "},"":{"ha":899,"x_min":52,"x_max":828,"o":"m 278 416 l 278 408 q 334 395 278 395 l 399 395 l 406 395 l 424 395 q 562 408 562 395 l 562 413 q 528 541 562 425 q 459 731 494 656 q 422 806 424 806 l 419 806 q 385 738 417 806 q 316 549 353 670 q 278 416 278 429 m 433 1235 l 444 1235 q 494 1216 473 1235 q 618 1072 515 1197 q 637 1042 637 1050 l 637 1038 q 602 1021 637 1021 q 502 1080 566 1021 q 434 1139 438 1139 q 371 1079 431 1139 q 276 1019 311 1019 l 267 1019 q 236 1039 236 1019 q 362 1196 236 1059 q 433 1235 397 1235 m 193 45 q 154 17 193 17 q 94 35 115 17 q 52 113 52 70 q 78 168 52 132 q 120 248 104 204 q 163 375 136 291 q 252 636 191 460 q 337 863 313 812 q 380 932 361 914 q 435 949 399 949 q 496 923 471 949 q 559 812 522 896 q 685 466 597 729 q 789 178 772 203 q 828 93 828 119 q 796 40 828 67 q 726 13 764 13 l 710 13 q 661 27 675 14 q 646 70 647 40 q 647 74 647 72 q 648 117 648 100 q 648 125 648 121 q 627 196 648 144 q 585 269 606 248 q 420 298 555 298 q 263 279 286 298 q 215 198 240 259 q 189 87 189 136 l 193 45 z "},"":{"ha":899,"x_min":58,"x_max":828,"o":"m 522 398 q 567 414 567 398 q 535 536 567 429 q 465 727 504 644 q 425 810 426 810 l 421 810 q 393 755 417 810 q 279 414 279 494 q 426 399 279 399 l 456 398 l 522 398 m 542 1043 l 520 1043 q 433 1073 492 1043 q 349 1103 373 1103 q 289 1076 324 1103 q 245 1049 253 1049 q 222 1076 222 1049 l 222 1081 q 265 1157 222 1121 q 350 1192 307 1192 l 355 1192 l 361 1192 q 453 1161 391 1192 q 537 1130 515 1130 q 592 1156 560 1130 q 634 1183 623 1183 q 657 1151 657 1183 q 620 1081 657 1118 q 542 1043 582 1043 m 199 54 q 159 19 199 19 q 98 38 120 19 q 58 102 58 74 l 58 116 q 85 169 58 130 q 129 256 113 208 q 162 355 146 304 q 184 424 178 406 l 237 583 q 342 873 318 825 q 385 937 366 922 q 439 952 404 952 q 499 923 474 952 q 557 820 524 895 q 687 465 590 745 q 793 173 784 185 q 828 109 828 125 l 828 96 q 798 44 828 73 q 734 16 768 16 l 719 16 q 664 27 682 16 q 645 67 645 38 l 650 115 q 627 202 650 150 q 579 277 604 254 q 420 300 553 300 q 256 274 286 300 q 215 198 239 258 q 192 98 192 138 l 199 54 z "},"":{"ha":896,"x_min":44,"x_max":818,"o":"m 335 392 l 364 392 l 370 393 l 412 393 q 549 406 549 393 l 549 410 q 511 550 549 420 q 443 744 473 679 q 412 810 412 810 l 408 810 q 375 741 408 810 q 306 545 343 672 q 269 410 269 418 l 269 405 q 335 392 269 392 m 281 1057 q 239 1103 239 1057 q 237 1109 237 1107 l 236 1122 l 236 1132 l 239 1151 q 257 1185 239 1171 q 302 1199 275 1199 l 312 1199 l 337 1195 q 372 1156 372 1195 q 375 1144 375 1147 l 376 1130 l 376 1124 l 372 1099 q 328 1058 372 1058 q 321 1057 324 1057 l 312 1055 l 295 1055 l 293 1056 l 288 1056 q 281 1057 284 1057 m 490 1109 l 490 1126 l 493 1143 q 512 1177 493 1162 q 561 1192 530 1192 l 564 1191 l 579 1190 q 584 1189 582 1189 q 626 1131 626 1189 l 626 1108 q 624 1087 624 1100 q 605 1059 624 1074 q 564 1044 587 1044 l 549 1044 l 532 1047 q 490 1109 490 1047 m 569 276 q 556 287 569 276 q 408 299 543 299 q 245 274 273 299 q 203 198 226 257 q 180 98 180 138 q 182 75 180 92 l 186 54 q 146 18 186 18 q 84 37 106 18 q 44 102 44 73 l 44 115 q 72 167 44 127 q 115 254 99 207 q 334 883 332 878 q 416 951 367 951 l 433 951 q 490 923 465 951 q 550 814 515 894 q 678 460 585 734 q 782 172 771 186 q 818 107 818 122 l 818 94 q 789 42 818 72 q 726 12 761 12 l 711 12 q 655 24 673 12 q 636 64 636 35 l 640 113 q 618 200 640 147 q 569 276 595 252 z "},"":{"ha":907,"x_min":36,"x_max":822,"o":"m 434 1074 q 454 1076 442 1076 q 484 1098 467 1076 q 501 1139 501 1120 l 501 1154 q 481 1200 501 1179 q 435 1220 460 1220 l 420 1220 l 417 1219 l 412 1219 q 396 1217 406 1217 q 371 1197 387 1217 q 355 1164 355 1177 l 353 1150 l 353 1145 l 353 1143 q 375 1094 353 1111 q 410 1076 397 1076 l 424 1074 l 434 1074 m 553 404 l 553 413 q 519 534 553 414 q 451 733 486 654 q 411 813 416 813 q 376 740 410 813 q 315 569 342 667 q 279 446 288 471 q 270 408 270 420 l 270 404 q 313 391 270 391 l 372 391 l 378 391 l 414 391 q 553 404 553 391 m 418 1274 l 440 1274 q 526 1238 490 1274 q 562 1157 562 1202 l 562 1140 q 561 1127 561 1131 q 523 1055 561 1089 q 445 1021 485 1021 l 436 1020 l 414 1020 q 401 1021 406 1021 q 322 1061 353 1021 q 292 1146 292 1101 l 292 1150 q 329 1238 292 1201 q 418 1274 366 1274 m 127 25 q 66 57 97 25 q 36 119 36 90 q 77 196 36 130 q 180 488 81 202 q 309 840 279 774 q 359 930 338 907 q 414 954 380 954 l 432 954 q 494 921 465 954 q 554 821 523 888 q 651 556 585 754 q 740 282 718 359 q 792 165 762 206 q 822 109 822 125 q 791 46 822 74 q 721 19 760 19 l 705 19 q 650 31 669 19 q 631 73 631 43 q 635 99 631 79 q 640 139 640 118 q 619 211 640 161 q 569 288 598 261 q 406 314 539 314 q 245 287 273 314 q 202 207 228 271 q 176 107 176 144 l 182 52 q 127 25 182 25 z "},"":{"ha":1232,"x_min":72,"x_max":1119,"o":"m 582 800 q 570 836 582 836 q 487 734 544 836 q 335 416 335 464 q 368 406 335 406 l 392 406 q 420 405 404 405 l 437 404 q 448 403 442 403 l 459 401 l 508 399 q 572 435 572 399 l 573 446 l 574 468 q 574 492 574 480 l 575 530 l 575 609 l 576 623 q 576 636 576 629 l 578 668 l 578 681 l 579 700 l 579 713 l 582 772 l 582 800 m 555 296 q 439 317 530 317 q 297 274 347 317 q 197 51 264 246 q 155 28 189 28 q 96 51 121 28 q 72 101 72 74 q 104 172 72 129 q 160 260 136 216 q 233 413 183 304 q 480 899 440 859 q 746 939 521 939 q 808 940 776 939 l 903 942 l 934 942 q 1046 927 1009 942 q 1098 854 1098 905 q 1070 838 1098 838 q 1006 848 1068 838 q 860 859 943 859 q 751 824 777 859 q 726 696 726 789 q 751 574 726 602 q 840 546 777 546 q 889 553 857 546 l 937 564 q 1001 543 976 564 q 1027 484 1027 521 q 981 420 1027 420 q 930 428 970 420 q 858 435 890 435 q 749 390 783 435 q 728 273 728 361 q 769 139 728 184 q 883 106 800 106 q 995 120 930 106 q 1076 134 1060 134 q 1119 87 1119 134 q 1069 23 1119 40 q 956 12 1035 12 l 924 12 q 591 91 591 12 l 594 180 q 555 296 594 262 z "},"":{"ha":861,"x_min":66,"x_max":779,"o":"m 425 -305 l 407 -305 q 356 -273 356 -305 q 372 -240 356 -248 q 407 -234 374 -239 q 455 -214 441 -228 q 469 -171 469 -199 q 438 -121 469 -143 q 408 -79 408 -100 q 429 -20 408 -59 q 304 11 363 -14 q 98 238 155 75 q 66 429 66 330 l 66 475 q 97 658 66 567 q 292 895 155 831 q 454 933 375 933 l 475 933 q 616 906 524 933 q 715 875 709 879 q 773 774 773 834 q 735 714 773 714 q 664 753 715 714 q 566 810 612 791 q 458 829 519 829 q 351 807 397 829 q 269 729 305 785 q 205 441 205 631 q 227 280 205 349 q 276 175 249 212 q 351 113 302 138 q 465 88 400 88 q 685 162 570 88 q 744 190 728 190 q 779 158 779 190 q 755 102 779 138 q 694 43 732 66 q 490 -21 597 -19 l 487 -45 q 516 -75 487 -56 q 583 -186 583 -119 l 583 -192 l 583 -197 q 541 -268 583 -241 q 425 -305 483 -305 z "},"":{"ha":798,"x_min":96,"x_max":712,"o":"m 473 1031 l 459 1031 q 363 1077 416 1031 q 231 1207 231 1193 l 231 1211 q 280 1249 231 1249 l 297 1249 q 366 1215 328 1249 l 406 1171 q 413 1161 410 1166 q 424 1150 417 1156 q 440 1130 430 1143 q 471 1093 451 1116 q 492 1054 492 1070 l 492 1047 q 473 1031 492 1031 m 543 572 q 595 488 595 572 q 576 429 595 445 q 538 413 556 413 q 483 427 521 413 q 386 441 445 441 q 297 418 326 441 q 267 316 267 395 q 291 136 267 186 q 391 98 309 98 q 591 118 524 98 q 675 139 658 139 q 712 90 712 139 q 677 24 712 40 q 531 9 642 9 l 401 9 l 375 9 l 323 10 q 235 11 298 11 q 134 24 173 11 q 96 60 96 37 q 112 116 96 83 q 132 208 127 149 q 136 500 136 267 q 131 778 136 733 q 113 851 125 822 q 100 895 100 881 q 155 935 100 925 q 453 950 245 950 l 582 950 q 687 885 687 950 q 649 826 687 826 q 596 837 633 826 q 520 855 559 848 q 379 862 480 862 q 291 823 310 862 q 267 646 267 774 q 298 570 267 591 q 418 548 330 548 q 476 560 437 548 q 543 572 515 572 z "},"":{"ha":798,"x_min":97,"x_max":705,"o":"m 365 1010 l 347 1010 q 323 1036 323 1010 l 323 1039 q 445 1203 323 1063 q 515 1240 477 1240 l 531 1240 q 579 1217 579 1240 l 579 1215 l 578 1212 q 488 1100 578 1190 q 365 1010 398 1010 m 582 956 q 683 889 683 956 q 646 834 683 834 q 602 844 633 834 q 391 866 526 866 q 383 866 387 866 q 298 823 319 866 q 277 691 277 781 q 309 582 277 602 q 427 562 342 562 q 485 573 444 562 q 526 585 525 585 q 587 556 571 585 q 595 500 595 541 q 576 444 595 459 q 541 429 557 429 q 486 443 525 429 q 417 456 447 456 q 302 432 331 456 q 274 331 274 408 q 298 155 274 202 q 400 121 316 121 q 591 140 529 121 q 673 160 654 160 q 705 120 705 160 q 663 41 705 61 q 445 28 636 28 l 419 28 l 393 29 l 317 30 q 232 31 292 31 q 134 45 171 31 q 97 85 97 59 q 113 136 97 103 q 133 219 129 170 q 137 510 137 268 q 133 791 137 752 q 115 858 129 829 q 102 905 102 886 q 172 944 102 932 q 404 956 243 956 l 582 956 z "},"":{"ha":798,"x_min":92,"x_max":711,"o":"m 573 1029 l 564 1029 q 474 1089 534 1029 q 406 1149 414 1149 q 340 1090 398 1149 q 244 1032 281 1032 q 208 1050 208 1032 l 208 1054 q 345 1218 208 1092 q 407 1246 376 1246 q 471 1214 439 1246 q 604 1050 604 1080 l 604 1046 q 573 1029 604 1029 m 598 503 q 538 413 598 413 q 484 427 522 413 q 387 441 446 441 q 299 417 328 441 q 270 315 270 393 q 295 136 270 185 q 398 99 314 99 q 594 119 535 99 q 676 139 654 139 q 711 100 711 139 q 669 19 711 38 q 448 5 640 5 l 421 5 q 152 18 212 5 q 92 62 92 30 q 109 117 92 81 q 129 201 125 153 q 132 491 132 248 q 128 778 132 734 q 110 850 123 821 q 97 897 97 880 q 166 939 97 926 q 401 951 235 951 l 532 951 q 652 938 618 951 q 687 884 687 924 q 648 825 687 825 q 600 836 631 826 q 380 859 526 859 q 292 815 313 859 q 271 680 271 771 q 303 568 271 589 q 423 547 334 547 q 480 559 440 547 q 541 571 520 571 q 579 555 561 571 q 598 503 598 539 z "},"":{"ha":798,"x_min":92,"x_max":706,"o":"m 338 1116 l 336 1096 q 298 1049 336 1049 l 277 1045 l 270 1045 l 250 1048 q 207 1088 207 1048 l 203 1107 l 203 1127 l 204 1130 l 204 1135 l 206 1151 q 207 1156 207 1153 q 252 1195 207 1195 l 254 1196 l 257 1196 l 279 1198 l 281 1198 l 298 1196 q 325 1178 311 1196 q 339 1124 339 1161 l 339 1119 l 338 1116 m 500 1059 q 462 1103 462 1059 q 460 1111 460 1109 l 459 1120 l 459 1135 l 460 1138 l 460 1143 q 461 1149 461 1147 q 511 1198 461 1198 l 525 1200 l 540 1200 q 562 1196 552 1196 q 600 1134 600 1196 l 600 1126 l 596 1103 q 554 1060 596 1060 q 543 1057 545 1057 l 526 1056 l 524 1057 l 505 1059 q 500 1059 502 1059 m 577 951 q 682 886 682 951 q 644 826 682 826 q 595 837 629 826 q 374 865 511 864 q 283 823 304 865 q 262 649 262 781 q 293 573 262 595 q 375 551 325 551 q 474 564 426 551 q 536 576 522 576 q 570 561 551 576 q 589 505 589 545 q 533 417 589 418 q 476 432 514 417 q 379 446 437 446 q 292 423 321 446 q 262 321 262 399 q 286 141 262 191 q 382 103 303 103 q 586 124 519 103 q 668 146 654 146 q 706 92 706 146 q 648 22 706 37 q 450 15 620 15 l 423 15 q 152 25 211 15 q 92 66 92 35 l 92 84 l 98 102 l 107 118 l 115 136 q 128 209 124 158 q 132 497 132 259 q 127 780 132 734 q 109 854 122 825 q 96 897 96 883 q 163 938 96 926 q 372 949 230 949 l 423 951 l 526 951 l 577 951 z "},"":{"ha":448,"x_min":43,"x_max":342,"o":"m 43 1206 l 43 1213 q 94 1246 43 1246 l 98 1246 q 178 1210 136 1246 q 283 1088 220 1173 q 301 1053 301 1064 l 301 1040 q 277 1024 301 1024 l 271 1024 q 174 1072 236 1024 q 43 1206 43 1175 m 235 10 l 197 10 q 124 27 153 10 q 95 65 95 43 q 118 117 95 87 q 145 183 140 148 q 151 477 151 218 q 144 778 151 736 q 114 847 138 819 q 90 892 90 876 q 208 951 90 951 l 257 951 q 322 927 289 951 q 336 898 336 917 q 314 849 336 880 q 289 788 293 819 q 284 486 284 758 q 289 178 284 214 q 318 115 294 142 q 342 70 342 87 l 342 59 q 328 35 342 47 q 235 10 296 10 z "},"":{"ha":448,"x_min":93,"x_max":391,"o":"m 160 1013 q 138 1036 138 1013 l 138 1040 q 255 1200 138 1067 q 333 1243 292 1243 l 349 1243 q 391 1210 391 1243 l 391 1200 q 313 1108 391 1168 q 176 1014 192 1014 l 170 1013 l 160 1013 m 240 22 l 190 22 q 111 46 146 22 q 93 78 93 58 q 117 127 93 98 q 146 198 141 157 q 151 487 151 239 q 144 778 151 735 q 115 848 138 821 q 93 891 93 874 l 93 901 q 125 939 93 924 q 220 954 157 954 l 257 954 q 325 932 292 954 q 342 902 342 921 q 321 854 342 882 q 294 791 299 827 q 288 487 288 755 q 294 188 288 220 q 322 126 300 156 q 345 84 345 96 l 345 74 q 319 39 345 57 q 240 22 293 22 z "},"":{"ha":452,"x_min":24,"x_max":417,"o":"m 417 1048 l 417 1044 q 380 1026 417 1026 l 376 1026 q 284 1083 346 1026 q 219 1139 222 1139 q 154 1083 216 1139 q 58 1026 92 1026 q 24 1044 24 1026 l 24 1048 q 161 1215 24 1078 q 221 1242 189 1242 l 227 1242 q 335 1153 254 1242 q 417 1048 417 1064 m 240 10 l 189 10 q 122 28 149 10 q 94 66 94 46 q 117 116 94 87 q 145 182 140 144 q 151 475 151 219 q 144 774 151 732 q 115 844 138 817 q 92 888 92 871 l 92 899 q 138 942 92 926 q 221 951 162 951 l 258 951 q 317 933 293 951 q 342 896 342 916 q 320 848 342 876 q 294 785 299 821 q 289 478 289 750 q 295 174 289 205 q 323 115 300 143 q 347 71 347 87 l 347 61 q 333 36 347 47 q 240 10 303 10 z "},"":{"ha":448,"x_min":20,"x_max":413,"o":"m 20 1112 l 20 1122 q 38 1178 20 1160 q 79 1196 56 1196 l 97 1196 q 138 1178 120 1196 q 156 1126 156 1160 l 156 1108 q 153 1084 153 1095 q 136 1057 153 1073 q 99 1040 120 1040 l 88 1039 l 83 1039 q 36 1059 52 1039 q 20 1112 20 1080 m 314 1059 q 275 1103 275 1059 q 274 1110 274 1108 l 273 1122 l 273 1135 q 289 1182 273 1166 q 325 1198 304 1198 l 338 1200 l 353 1200 q 367 1198 359 1198 q 410 1155 410 1198 q 412 1145 412 1148 l 413 1133 l 413 1124 l 410 1104 q 368 1059 410 1059 q 356 1057 359 1057 l 340 1055 l 337 1056 l 319 1058 q 314 1059 316 1059 m 342 76 q 222 16 342 16 l 210 16 q 127 33 158 16 q 96 73 96 50 q 119 124 96 96 q 147 190 142 152 q 153 484 153 228 q 146 782 153 740 q 116 850 140 823 q 92 895 92 876 l 92 905 q 106 928 92 917 q 209 954 138 954 l 258 954 q 322 929 290 954 q 336 900 336 918 q 315 851 336 881 q 288 789 293 821 q 283 485 283 756 q 288 181 283 214 q 317 121 293 149 q 342 76 342 92 z "},"":{"ha":964,"x_min":61,"x_max":871,"o":"m 411 871 l 361 871 q 297 847 310 871 q 283 702 283 823 l 283 689 q 303 550 283 571 q 384 530 315 538 q 456 521 453 522 q 471 487 471 513 q 451 451 471 460 q 382 440 447 449 q 301 411 318 431 q 285 260 285 392 q 298 104 285 127 q 372 80 311 80 l 410 80 q 720 467 720 80 l 720 481 q 411 871 720 871 m 155 708 q 154 773 154 724 q 133 861 154 822 q 111 911 111 899 q 148 943 111 937 q 271 949 185 949 l 320 951 l 389 951 l 406 951 q 838 690 747 951 q 871 505 871 595 l 871 467 q 837 266 871 358 q 589 24 768 81 q 386 0 515 0 l 285 0 q 145 7 175 0 q 116 41 116 14 q 132 84 116 52 q 153 156 149 117 q 157 306 157 195 q 149 428 157 417 q 111 445 140 439 q 71 458 81 451 q 61 493 61 465 q 89 530 61 522 q 150 553 147 549 q 157 626 157 564 l 155 692 l 155 708 z "},"":{"ha":981,"x_min":91,"x_max":882,"o":"m 593 1045 l 583 1045 l 577 1046 q 483 1080 544 1046 q 396 1114 422 1114 q 337 1083 370 1114 q 293 1053 303 1053 q 269 1076 269 1053 l 269 1080 q 313 1160 269 1120 q 392 1200 356 1200 l 397 1199 l 403 1199 q 496 1165 435 1199 q 584 1131 557 1131 q 643 1161 610 1131 q 687 1191 676 1191 q 711 1168 711 1191 q 671 1088 711 1132 q 593 1045 631 1045 m 250 726 q 230 495 230 726 q 247 195 230 264 q 264 116 264 127 q 228 52 264 77 q 159 26 193 26 l 135 26 q 91 60 91 26 q 108 111 91 78 q 131 176 125 143 q 137 477 137 210 q 133 780 137 745 q 122 835 130 814 l 113 856 q 100 893 100 886 q 137 923 100 923 l 161 923 q 292 863 233 923 q 413 706 298 856 q 625 422 527 557 q 731 288 722 288 q 751 616 751 288 q 748 750 751 715 q 730 821 745 785 q 715 866 715 857 q 794 910 715 910 q 858 887 833 910 q 882 838 882 863 q 863 769 882 812 q 838 650 844 726 q 831 344 831 574 q 828 92 831 114 q 793 50 822 50 q 691 118 745 50 q 581 279 655 163 q 479 435 507 395 q 250 726 279 726 z "},"":{"ha":975,"x_min":71,"x_max":878,"o":"m 205 524 l 205 476 q 224 318 205 394 q 273 195 243 243 q 355 118 303 147 q 465 89 408 89 l 488 89 q 674 190 606 89 q 718 297 699 227 q 736 450 736 366 l 736 511 q 716 657 736 578 q 583 856 677 806 q 468 884 528 884 l 456 884 l 445 884 q 350 859 397 883 q 228 690 258 811 q 205 524 205 601 m 289 1200 l 289 1211 q 341 1245 289 1245 l 353 1245 q 426 1216 392 1245 q 532 1093 459 1187 q 553 1048 553 1065 l 553 1042 q 530 1022 553 1022 l 516 1022 q 378 1100 467 1022 q 289 1200 289 1178 m 878 500 l 878 454 q 848 265 878 359 q 768 114 819 172 q 644 22 718 57 q 478 -14 569 -14 l 448 -14 q 289 23 363 -14 q 168 120 215 60 q 96 274 121 180 q 71 469 71 368 l 72 484 q 99 677 72 586 q 301 930 153 861 q 468 965 378 965 l 498 965 q 651 932 578 965 q 844 705 792 867 q 878 500 878 602 z "},"":{"ha":973,"x_min":73,"x_max":876,"o":"m 205 520 l 205 473 q 279 194 205 296 q 360 127 311 150 q 460 104 410 104 l 472 104 q 671 205 602 104 q 740 501 740 307 l 740 513 q 718 683 740 610 q 667 797 696 756 q 590 865 638 838 q 486 892 542 892 l 463 892 q 274 792 346 892 q 227 684 250 758 q 205 520 205 609 m 422 1007 l 405 1007 q 383 1030 383 1007 l 384 1034 q 404 1076 384 1051 q 513 1202 475 1168 q 593 1236 552 1236 l 600 1236 q 650 1202 650 1236 l 650 1199 l 650 1196 q 551 1084 650 1161 q 422 1007 452 1007 m 876 500 l 876 469 q 876 464 876 466 q 850 281 876 371 q 657 31 802 105 q 492 -12 574 -12 l 446 -12 q 295 22 370 -12 q 93 292 142 92 q 73 454 73 373 l 73 501 q 102 685 73 594 q 179 835 131 776 q 302 929 227 895 q 453 964 378 964 l 499 964 q 652 929 576 964 q 774 835 728 895 q 848 683 821 775 q 876 500 876 591 z "},"":{"ha":974,"x_min":71,"x_max":877,"o":"m 203 514 l 203 490 l 204 479 q 224 318 204 394 q 276 196 245 242 q 358 124 307 151 q 473 98 409 98 q 722 321 672 98 q 739 488 739 399 l 739 511 q 716 668 739 589 q 660 794 693 747 q 576 864 626 841 q 472 887 526 887 l 460 887 q 273 787 340 887 q 223 667 243 743 q 203 514 203 591 m 307 1021 l 297 1021 q 267 1039 267 1021 l 267 1043 q 407 1208 267 1079 q 471 1235 437 1235 q 534 1208 505 1235 q 669 1043 669 1084 q 633 1021 669 1021 q 524 1088 597 1021 l 519 1092 l 512 1099 q 470 1132 473 1132 l 432 1103 q 418 1091 427 1099 q 393 1071 409 1082 q 307 1021 328 1021 m 877 489 l 877 458 q 847 264 877 355 q 770 116 818 173 q 647 23 723 60 q 483 -14 571 -14 l 452 -14 q 294 20 370 -14 q 71 478 71 123 q 96 671 71 576 q 295 928 144 852 q 460 965 370 965 l 492 965 q 650 931 576 965 q 774 837 725 897 q 850 684 823 777 q 877 489 877 591 z "},"":{"ha":977,"x_min":74,"x_max":880,"o":"m 204 533 l 204 474 q 224 328 204 406 q 274 206 245 250 q 353 132 304 163 q 463 102 402 102 l 487 102 q 676 201 606 102 q 724 311 703 239 q 745 483 745 382 l 745 507 q 723 664 745 585 q 673 786 702 743 q 594 859 644 828 q 488 890 545 890 l 453 890 q 358 867 406 890 q 227 688 267 823 q 204 533 204 610 m 691 1158 l 691 1147 q 640 1063 691 1106 q 566 1036 608 1036 l 555 1036 q 462 1067 523 1036 q 377 1097 401 1097 q 318 1071 353 1097 q 273 1045 283 1045 q 250 1079 250 1045 q 292 1152 250 1114 q 385 1190 334 1190 l 391 1190 q 487 1159 426 1190 q 572 1128 548 1128 q 626 1155 597 1128 q 664 1181 654 1181 q 691 1158 691 1181 m 880 492 l 880 460 q 851 268 880 359 q 771 117 821 176 q 643 23 722 58 q 485 -12 565 -12 l 470 -12 q 180 111 288 -12 q 104 257 135 163 q 74 466 74 351 l 74 481 q 98 671 74 581 q 287 924 146 850 q 466 967 369 967 l 496 967 q 650 935 573 967 q 854 683 798 873 q 880 492 880 595 z "},"":{"ha":974,"x_min":59,"x_max":870,"o":"m 197 515 l 197 479 q 218 303 197 378 q 269 185 240 229 q 347 116 298 142 q 451 89 395 89 l 474 89 q 583 118 533 89 q 724 476 724 199 l 724 512 q 704 665 724 585 q 652 790 684 744 q 570 863 621 837 q 461 889 519 889 l 450 889 q 345 863 393 889 q 218 683 252 814 q 197 515 197 602 m 348 1201 q 409 1156 409 1201 q 410 1149 410 1151 l 412 1139 l 412 1124 l 411 1122 l 411 1118 q 410 1111 410 1112 q 392 1076 410 1090 q 359 1062 375 1062 l 349 1060 l 345 1060 l 337 1059 l 335 1059 l 332 1060 q 272 1103 272 1060 l 269 1124 l 269 1134 l 271 1153 q 321 1199 271 1199 l 323 1200 l 326 1200 l 345 1201 l 348 1201 m 513 1114 l 513 1123 q 533 1175 513 1158 q 584 1192 553 1192 l 603 1192 q 623 1188 616 1188 q 665 1141 665 1188 l 667 1127 l 667 1109 q 650 1065 667 1082 q 608 1048 633 1048 l 595 1046 l 582 1046 l 580 1046 l 574 1046 q 557 1048 569 1048 q 529 1064 546 1048 q 513 1114 513 1081 m 870 490 l 870 459 q 840 266 870 361 q 759 113 810 172 q 633 20 708 54 q 475 -14 557 -14 l 459 -14 q 167 111 271 -14 q 89 260 119 168 q 59 465 59 352 l 59 481 q 90 690 59 596 q 171 842 120 784 q 296 933 221 900 q 454 967 371 967 l 486 967 q 646 932 570 967 q 768 838 722 897 q 843 684 815 779 q 870 490 870 589 z "},"":{"ha":711,"x_min":111,"x_max":597,"o":"m 352 480 q 446 568 362 480 q 544 655 530 655 q 575 638 557 655 q 594 610 594 622 q 507 507 594 597 q 420 411 420 417 q 509 314 420 406 q 597 211 597 222 q 578 182 597 200 q 542 164 559 164 q 441 251 525 164 q 355 337 358 337 q 261 250 345 337 q 163 163 177 163 q 132 179 150 163 q 113 213 113 195 q 200 310 113 220 q 287 406 287 400 q 199 503 287 411 q 111 605 111 594 q 129 634 111 616 q 165 652 148 652 q 266 566 183 652 q 352 480 349 480 z "},"":{"ha":980,"x_min":77,"x_max":869,"o":"m 204 498 l 204 450 q 228 284 204 368 q 272 201 251 201 q 421 408 298 201 q 621 800 621 747 l 621 807 q 581 861 621 838 q 484 884 541 884 l 456 884 q 350 853 399 884 q 271 775 301 823 q 204 498 204 667 m 722 531 l 722 585 q 695 751 722 698 q 684 760 690 760 q 604 618 678 760 q 435 309 530 475 q 341 124 341 142 q 366 87 341 106 q 431 67 390 67 l 447 67 q 559 101 506 67 q 696 328 659 165 q 722 531 722 437 m 186 -30 q 152 12 152 -30 l 158 87 q 136 169 158 116 q 104 256 115 221 q 77 458 77 345 l 77 476 q 109 680 77 582 q 343 936 173 874 q 526 962 413 962 q 594 954 549 962 q 657 945 640 945 q 705 962 674 945 q 749 979 736 979 l 760 979 q 795 939 795 979 l 789 864 q 829 738 789 860 q 869 509 869 616 l 869 473 q 836 274 869 372 q 433 -7 739 -7 l 309 6 q 239 -12 275 6 q 186 -30 203 -30 z "},"":{"ha":952,"x_min":72,"x_max":863,"o":"m 514 1034 q 344 1145 486 1034 q 296 1211 296 1182 l 296 1213 q 344 1249 296 1249 l 355 1249 q 435 1213 395 1249 q 558 1057 558 1106 l 558 1054 q 535 1033 558 1033 l 524 1033 q 514 1034 517 1034 m 179 946 q 277 882 277 946 q 264 835 277 872 q 251 766 252 798 q 250 681 250 734 l 250 602 l 250 552 q 290 184 250 258 q 487 79 346 79 q 681 191 627 79 q 715 516 715 262 q 700 829 715 770 q 684 897 684 887 q 770 947 684 947 l 793 947 q 840 919 817 947 q 863 868 863 890 q 845 810 863 845 q 823 734 827 774 q 818 500 818 694 q 804 233 818 307 q 642 22 777 81 q 471 -9 572 -9 q 175 123 260 -9 q 128 259 139 179 q 117 524 117 338 q 111 743 117 709 q 88 806 104 776 q 72 865 72 836 q 119 935 72 908 q 179 946 138 946 z "},"":{"ha":953,"x_min":75,"x_max":861,"o":"m 433 1030 l 423 1030 q 393 1053 393 1030 l 393 1056 q 529 1200 393 1095 q 608 1239 578 1239 l 625 1239 q 659 1217 659 1239 l 659 1207 q 571 1098 659 1166 q 433 1030 484 1030 m 183 949 q 281 888 281 949 q 268 839 281 881 q 256 730 256 798 l 256 565 q 294 203 256 276 q 488 100 348 100 q 679 210 627 100 q 713 602 713 283 q 697 838 713 777 q 681 904 681 899 q 768 951 681 951 l 791 951 q 837 923 813 951 q 861 872 861 895 q 843 812 861 850 q 821 734 825 775 q 817 515 817 694 q 806 263 817 336 q 640 38 781 100 q 464 7 570 7 q 177 136 262 7 q 130 269 142 188 q 118 535 118 349 q 113 749 118 722 q 91 809 107 776 q 75 848 75 843 l 75 868 q 123 938 75 910 q 183 949 141 949 z "},"":{"ha":954,"x_min":71,"x_max":863,"o":"m 676 1056 l 676 1052 q 641 1035 676 1035 q 543 1094 606 1035 q 476 1152 479 1152 q 409 1093 473 1152 q 311 1034 345 1034 q 277 1052 277 1034 q 412 1215 277 1081 q 478 1246 443 1246 l 483 1246 l 488 1246 q 584 1170 519 1246 q 676 1056 676 1061 m 178 945 q 278 883 278 945 q 266 838 278 876 q 253 767 254 800 q 252 653 252 734 l 252 604 q 252 553 252 578 q 290 186 252 259 q 486 80 345 80 q 680 192 628 80 q 715 515 715 266 q 698 827 715 765 q 682 897 682 890 q 769 946 682 946 l 791 946 q 840 918 816 946 q 863 866 863 890 q 845 806 863 843 q 824 731 827 768 q 820 512 820 694 q 820 491 820 501 q 810 254 820 326 q 644 20 786 83 q 472 -12 571 -12 l 445 -12 q 283 23 354 -12 q 175 116 212 58 q 126 252 138 174 q 115 519 115 330 q 109 742 115 709 q 87 804 103 774 q 71 863 71 833 q 117 935 71 907 q 178 945 136 945 z "},"":{"ha":953,"x_min":65,"x_max":856,"o":"m 268 1136 q 310 1188 268 1188 l 313 1189 l 317 1190 l 342 1192 l 349 1192 q 397 1179 380 1192 q 413 1132 413 1166 l 413 1129 l 412 1117 l 412 1112 q 410 1097 410 1107 q 395 1071 410 1086 q 363 1055 379 1055 l 359 1054 l 354 1053 l 338 1051 l 336 1052 l 331 1052 l 312 1055 q 271 1103 271 1055 q 269 1110 269 1107 l 268 1120 l 268 1136 m 528 1129 q 543 1178 528 1160 q 577 1196 557 1196 l 580 1196 l 582 1197 l 602 1199 l 609 1199 q 671 1141 671 1199 l 671 1121 l 671 1119 l 671 1114 q 669 1099 669 1109 q 654 1074 669 1090 q 618 1059 638 1059 l 604 1057 l 587 1057 l 570 1059 q 531 1103 531 1059 q 530 1110 530 1108 l 528 1122 l 528 1129 m 173 947 q 270 882 270 947 q 257 836 270 875 q 243 765 244 796 q 241 681 241 734 l 241 602 l 242 553 q 242 524 242 538 q 250 298 242 357 q 484 84 328 132 q 665 175 608 84 q 709 415 709 246 l 710 441 q 711 498 711 467 l 711 566 q 693 831 711 768 q 676 899 676 895 q 764 948 676 948 l 787 948 q 832 921 809 948 q 856 870 856 893 q 839 814 856 847 q 817 748 823 781 q 810 521 810 715 q 801 256 810 327 q 751 123 791 186 q 462 -4 671 -3 q 168 128 252 -4 q 122 261 132 184 q 111 525 111 337 q 105 746 111 713 q 82 809 98 779 q 65 868 65 839 q 111 938 65 913 q 173 947 127 947 z "},"":{"ha":830,"x_min":39,"x_max":778,"o":"m 605 1208 l 605 1200 q 528 1120 605 1181 q 366 1019 397 1019 l 362 1020 q 344 1038 344 1020 l 345 1041 q 456 1190 345 1064 q 545 1242 503 1242 l 556 1242 q 605 1208 605 1242 m 711 949 l 728 949 q 778 918 778 949 q 713 823 778 914 q 611 630 692 793 q 519 440 530 468 q 486 216 486 350 q 491 161 486 176 q 509 124 496 146 q 522 79 522 102 q 496 38 522 57 q 421 18 470 18 l 385 18 q 326 40 352 18 q 300 81 300 61 q 311 125 300 100 l 318 138 q 334 176 328 159 q 340 281 340 193 q 292 469 340 370 q 226 594 271 510 q 153 731 180 678 q 110 806 126 783 q 66 859 94 829 q 39 907 39 888 l 39 918 q 118 948 39 948 q 239 912 197 948 q 260 843 260 894 q 374 587 260 793 q 425 515 413 515 q 551 711 457 515 q 592 868 592 796 q 619 928 592 908 q 711 949 646 949 z "},"":{"ha":821,"x_min":109,"x_max":741,"o":"m 372 285 l 384 285 q 538 340 483 285 q 594 497 594 396 l 594 512 q 544 660 594 606 q 400 714 493 714 l 362 714 q 280 685 292 714 q 275 488 275 673 l 275 467 l 275 406 l 274 385 l 274 338 q 296 296 274 308 q 372 285 317 285 m 268 31 q 175 10 240 10 q 110 57 110 10 q 122 104 110 79 q 142 152 134 130 q 149 257 149 174 l 151 304 q 152 349 152 320 l 152 432 l 153 465 q 153 545 153 505 l 151 592 q 151 616 151 608 q 149 656 151 625 l 148 687 q 146 770 146 735 q 127 845 146 804 q 109 900 109 885 q 185 945 109 945 l 199 945 q 274 917 239 945 q 325 845 310 888 q 432 789 340 802 q 650 718 582 770 q 716 632 691 686 q 741 511 741 579 l 741 494 q 656 299 741 373 q 565 245 613 262 q 452 219 516 229 q 373 201 389 210 q 315 142 315 172 l 319 112 q 268 31 319 68 z "},"":{"ha":822,"x_min":93,"x_max":756,"o":"m 250 102 q 143 -3 250 -3 q 93 42 93 -3 q 105 87 93 50 q 121 156 117 125 q 124 302 124 187 q 121 457 124 416 q 109 545 118 497 q 99 615 99 593 q 132 744 99 637 q 203 895 164 850 q 398 984 283 984 l 427 984 q 528 963 482 984 q 599 916 573 941 q 652 775 652 861 q 605 654 652 728 q 557 535 557 581 q 627 443 557 508 q 726 332 696 378 q 756 231 756 287 q 741 131 756 175 q 683 54 725 87 q 503 -1 616 -1 q 411 21 443 -1 q 380 68 380 43 q 422 105 380 105 q 461 96 430 105 q 516 87 492 87 q 597 124 560 87 q 634 213 634 161 q 605 302 634 264 q 516 379 576 340 q 430 444 456 417 q 404 514 404 471 q 473 637 404 556 q 542 773 542 719 q 508 860 542 827 q 421 892 473 892 q 329 856 368 892 q 269 735 290 819 q 248 264 248 650 l 250 102 z "},"":{"ha":704,"x_min":54,"x_max":622,"o":"m 178 194 q 209 114 178 142 q 291 86 241 86 l 296 86 q 425 142 381 86 q 452 252 452 176 l 452 277 q 418 336 452 336 l 410 338 l 372 338 l 359 336 l 340 335 q 321 333 328 333 q 224 302 269 333 q 179 222 179 271 l 178 213 l 178 194 m 168 956 l 168 962 l 169 965 q 218 996 169 996 l 229 996 q 304 959 272 996 q 419 781 419 828 l 419 779 q 385 758 419 758 l 382 759 q 273 840 378 759 q 168 956 168 922 m 142 521 q 96 565 96 521 q 146 638 96 610 q 307 678 216 678 l 340 678 q 459 653 408 678 q 536 587 510 629 q 573 315 573 528 q 578 152 573 182 q 603 93 583 122 q 622 51 622 64 q 606 23 622 38 q 560 7 590 7 q 484 24 530 7 q 429 41 437 41 q 356 18 422 41 q 248 -5 290 -5 l 233 -5 q 106 42 159 -5 q 54 173 54 89 l 54 189 q 79 273 54 233 q 269 382 132 355 q 332 393 279 385 q 401 408 385 401 q 447 476 447 426 q 416 559 447 527 q 335 592 385 592 q 225 556 285 592 q 142 521 165 521 z "},"":{"ha":704,"x_min":54,"x_max":621,"o":"m 272 98 l 296 98 q 406 138 361 98 q 451 230 451 178 l 452 234 l 452 239 l 454 279 l 454 311 q 414 356 454 356 l 405 356 l 400 355 l 372 354 q 349 351 353 351 q 226 310 273 351 q 179 210 179 268 l 179 186 q 207 123 179 148 q 272 98 235 98 m 295 751 l 285 751 q 257 773 257 751 l 257 777 q 373 955 257 823 q 439 988 402 988 l 458 988 q 508 956 508 988 l 508 949 q 417 832 508 913 q 295 751 326 751 m 319 583 q 225 549 284 583 q 144 515 166 515 q 100 558 100 515 q 151 631 100 602 q 309 671 222 671 l 342 671 q 458 646 404 671 q 542 565 513 621 q 572 295 572 509 q 577 153 572 184 q 602 94 583 123 q 621 52 621 65 q 606 24 621 39 q 556 9 590 9 q 481 26 523 9 q 429 43 439 43 q 356 20 418 43 q 249 -3 294 -3 l 234 -3 q 102 47 151 -3 q 54 160 54 98 q 72 260 54 222 q 280 381 117 353 q 432 429 414 405 q 440 476 440 440 q 420 541 440 511 q 319 583 391 583 z "},"":{"ha":704,"x_min":52,"x_max":623,"o":"m 269 93 l 296 93 q 407 133 361 93 q 452 224 452 174 q 454 237 454 232 l 455 258 l 455 294 q 405 341 455 341 l 387 341 l 382 340 l 368 340 l 340 338 l 313 336 q 216 295 256 336 q 176 199 176 255 l 176 195 q 201 122 176 151 q 269 93 227 93 m 494 757 l 484 757 q 370 850 456 757 q 336 886 337 886 q 269 826 334 886 q 173 766 203 766 q 143 783 143 766 q 264 950 143 818 q 335 989 300 989 q 393 964 370 989 q 529 781 529 816 l 529 777 q 494 757 529 757 m 143 518 q 98 575 98 518 q 164 644 98 612 q 308 677 231 677 l 340 677 q 459 651 408 677 q 535 586 511 625 q 574 298 574 523 q 579 154 574 184 q 604 92 585 123 q 623 56 623 62 l 623 45 q 608 22 623 37 q 541 7 593 7 q 484 24 526 7 q 430 41 441 41 q 357 18 419 41 q 248 -5 294 -5 l 233 -5 q 106 41 159 -5 q 52 173 52 88 q 252 378 52 333 q 334 392 288 386 q 399 406 380 398 q 445 474 445 424 q 414 556 445 524 q 334 589 384 589 q 224 553 285 589 q 143 518 163 518 z "},"":{"ha":703,"x_min":56,"x_max":621,"o":"m 277 98 l 310 98 q 425 152 376 98 q 457 266 457 188 l 457 279 q 420 346 457 346 l 387 346 l 373 345 l 355 343 l 345 342 l 332 341 l 304 338 q 215 302 256 338 q 175 213 175 267 l 175 194 q 206 125 175 152 q 277 98 237 98 m 327 810 q 300 826 327 810 q 246 842 273 842 q 189 817 219 842 q 145 791 158 791 q 121 817 121 791 q 161 893 121 857 q 246 930 201 930 l 252 930 l 257 930 q 350 899 288 930 q 433 868 412 868 q 487 893 454 868 q 530 918 520 918 q 553 892 553 918 q 511 811 553 846 q 427 777 470 777 l 422 777 q 327 810 381 777 m 621 58 q 539 9 621 9 q 484 25 527 9 q 430 42 441 42 q 357 19 418 42 q 250 -4 295 -4 l 235 -4 q 103 47 151 -4 q 56 172 56 98 q 285 384 56 343 q 439 433 422 408 q 446 469 446 444 q 446 484 446 476 q 425 547 443 522 q 321 591 393 591 q 225 555 288 591 q 144 520 163 520 q 98 576 98 520 q 146 636 98 610 q 307 676 222 676 l 340 676 q 458 651 408 676 q 535 586 509 627 q 572 314 572 528 q 577 154 572 182 q 602 94 582 125 q 621 58 621 63 z "},"":{"ha":702,"x_min":52,"x_max":616,"o":"m 265 95 l 292 95 q 313 96 301 96 q 362 115 324 96 q 421 165 399 134 q 443 275 443 196 l 444 293 l 444 298 q 408 348 444 348 l 386 348 q 363 346 374 346 l 345 344 q 327 342 332 342 q 218 306 264 342 q 172 215 172 270 l 172 186 q 200 120 172 146 q 265 95 229 95 m 144 894 q 186 939 144 939 q 195 941 193 941 l 210 943 l 219 943 q 279 895 279 943 l 281 885 l 281 880 l 281 873 l 281 870 l 281 867 l 281 860 q 279 848 279 850 q 260 813 279 828 q 214 799 242 799 l 204 799 l 186 802 q 144 848 144 802 l 142 857 l 142 882 q 144 894 144 892 m 382 872 l 385 884 q 450 926 385 926 l 460 926 l 483 922 q 526 873 526 922 l 528 861 l 528 842 q 526 825 526 836 q 511 798 526 814 q 471 783 495 783 l 451 783 l 434 785 q 401 802 417 785 q 385 837 385 818 q 383 844 383 842 l 382 853 l 382 869 l 382 872 m 140 519 q 94 564 94 519 q 144 635 94 609 q 304 675 220 675 l 336 675 q 453 651 401 675 q 531 585 505 627 q 568 298 568 524 q 573 155 568 183 q 597 95 577 126 q 616 57 616 63 l 616 46 q 601 23 616 38 q 554 7 586 7 q 480 24 522 7 q 422 41 439 41 q 383 31 406 41 q 225 -5 302 -5 q 101 45 149 -5 q 52 172 52 95 q 128 326 52 269 q 300 387 182 366 q 435 432 418 408 q 443 468 443 444 q 442 486 444 476 q 317 590 432 590 q 221 555 284 590 q 140 519 159 519 z "},"":{"ha":707,"x_min":47,"x_max":621,"o":"m 258 896 q 260 877 258 896 q 282 842 260 860 q 329 825 304 825 l 334 825 l 336 825 l 342 825 l 351 827 q 385 846 366 827 q 404 888 404 865 l 404 908 l 401 922 q 382 953 401 934 q 338 972 363 972 l 321 972 l 307 969 q 274 948 291 969 q 258 901 258 927 l 258 899 l 258 896 m 278 85 l 292 85 q 402 126 360 85 q 444 214 444 168 q 445 227 445 223 l 448 267 l 448 276 l 448 290 l 448 298 q 410 339 448 339 l 382 339 q 358 337 368 337 l 344 335 q 326 333 330 333 q 220 299 264 333 q 176 208 176 265 l 176 193 q 203 115 176 145 q 278 85 231 85 m 196 909 q 235 990 196 956 q 331 1025 274 1025 l 336 1025 l 340 1025 q 430 989 391 1025 q 470 897 470 954 l 470 887 q 433 798 470 835 q 346 760 395 760 l 328 760 q 315 762 319 762 q 237 798 277 762 q 197 878 197 833 l 196 886 l 196 909 m 138 519 q 93 564 93 519 q 143 637 93 610 q 304 679 218 679 l 336 679 q 454 654 404 679 q 532 588 505 630 q 570 315 570 529 q 576 156 570 189 q 602 95 583 123 q 621 58 621 67 l 621 47 q 605 25 621 40 q 558 10 589 10 q 482 27 527 10 q 425 45 437 45 q 382 33 412 45 q 231 -2 297 -2 q 229 -2 230 -2 q 106 41 155 -2 q 47 183 47 92 q 124 330 47 275 q 326 395 186 374 q 396 409 382 404 q 441 478 441 427 q 410 560 441 528 q 331 592 380 592 q 220 555 282 592 q 138 519 159 519 z "},"":{"ha":1078,"x_min":63,"x_max":1000,"o":"m 437 341 l 405 341 l 400 340 l 391 340 q 244 306 293 340 q 195 211 195 271 l 195 197 q 212 135 195 157 q 292 100 239 100 l 325 100 q 448 150 397 100 q 475 260 475 178 l 476 274 l 476 288 q 437 341 476 341 m 753 376 q 793 378 768 378 q 848 394 819 378 q 863 428 863 403 l 863 441 q 827 544 863 503 q 734 585 791 585 l 721 585 q 611 536 654 585 q 568 418 568 487 l 566 409 l 566 395 q 628 368 566 368 l 633 368 l 637 369 l 753 376 m 985 112 q 908 32 985 67 q 740 -3 831 -3 q 553 58 648 -3 q 502 85 513 85 q 457 62 491 84 q 271 -1 311 -1 q 271 -1 271 -1 q 266 -1 268 -1 q 117 48 171 -1 q 63 165 63 96 l 63 188 q 146 335 63 279 q 271 383 194 367 q 417 414 415 414 q 450 471 450 432 q 416 562 450 531 q 331 593 382 593 q 223 557 280 593 q 146 521 166 521 q 106 563 106 521 q 170 639 106 605 q 310 673 233 673 q 434 655 387 673 q 478 633 444 652 q 529 614 512 614 q 573 627 546 614 l 592 636 q 653 662 617 649 q 746 675 689 675 l 770 675 q 933 607 865 675 q 1000 444 1000 538 l 1000 421 q 950 343 1000 359 q 781 322 915 332 q 637 310 646 312 q 589 240 589 299 q 637 135 589 181 q 777 88 685 88 q 886 114 823 88 q 955 140 949 140 q 985 112 985 140 z "},"":{"ha":667,"x_min":63,"x_max":581,"o":"m 319 -302 l 307 -302 q 250 -271 250 -302 l 250 -267 q 282 -231 250 -231 q 332 -212 309 -231 q 355 -164 355 -193 q 329 -114 355 -134 q 303 -73 303 -94 q 318 -26 303 -56 q 139 62 208 -17 q 83 167 104 103 q 63 298 63 231 l 63 314 q 239 627 63 551 q 373 649 288 649 q 518 614 458 649 q 578 524 578 578 q 530 469 578 469 q 464 513 522 469 q 353 556 406 556 q 190 315 190 556 q 237 134 190 188 q 359 80 283 80 q 482 105 434 80 q 542 131 530 131 q 581 94 581 131 q 509 14 581 56 q 374 -28 444 -24 q 373 -38 374 -33 q 402 -73 373 -51 q 431 -95 431 -94 q 478 -180 478 -142 l 478 -191 q 428 -268 478 -233 q 319 -302 378 -302 z "},"":{"ha":701,"x_min":58,"x_max":625,"o":"m 255 395 l 277 395 l 282 396 l 440 404 q 449 405 444 405 q 501 439 501 405 l 501 467 q 461 568 501 528 q 366 608 422 608 l 347 608 q 237 558 281 608 q 193 439 193 508 l 191 430 l 191 425 q 255 395 191 395 m 186 962 l 186 968 q 235 1002 186 1002 l 250 1002 q 320 964 288 1002 q 434 795 434 834 l 434 785 q 402 768 434 768 l 399 769 q 281 852 376 769 q 186 962 186 935 m 607 97 q 533 27 607 64 q 376 -9 459 -9 l 361 -9 q 82 172 151 -9 q 58 310 58 237 l 58 342 q 80 479 58 414 q 232 654 123 606 q 362 682 297 682 l 378 682 q 559 614 493 682 q 625 441 625 546 q 584 355 625 374 q 401 329 553 340 q 233 314 250 319 q 192 265 192 302 q 245 134 192 182 q 375 85 299 85 q 540 123 452 85 q 582 136 568 136 q 607 97 607 136 z "},"":{"ha":702,"x_min":59,"x_max":623,"o":"m 191 433 l 191 424 q 252 396 191 396 l 256 396 l 261 397 l 330 401 l 335 401 l 387 405 q 479 419 451 405 q 496 453 496 427 l 496 485 q 459 579 496 542 q 372 616 422 616 l 347 616 q 238 563 286 616 q 191 433 191 510 m 313 760 l 302 760 q 276 783 276 760 q 390 955 276 827 q 461 993 424 993 l 479 993 q 527 959 527 993 l 526 956 q 431 844 526 928 q 313 760 335 760 m 374 -4 l 359 -4 q 77 195 142 -4 q 59 313 59 251 l 59 360 q 81 486 59 422 q 141 592 103 549 q 238 658 180 634 q 359 682 296 682 l 374 682 q 557 613 490 682 q 623 443 623 544 l 623 429 q 590 359 623 376 q 405 331 556 342 q 239 317 254 321 q 197 270 197 306 q 249 139 197 186 q 391 92 302 92 q 469 103 436 92 q 534 126 502 113 q 578 140 567 140 q 603 103 603 140 q 525 31 603 66 q 374 -4 447 -4 z "},"":{"ha":702,"x_min":57,"x_max":625,"o":"m 502 445 l 502 473 q 464 567 502 525 q 368 610 427 610 l 345 610 q 235 555 277 610 q 192 434 192 500 l 192 425 q 219 404 192 404 l 231 401 l 252 400 l 260 400 l 265 401 l 433 409 l 450 410 q 502 445 502 410 m 202 766 l 192 766 q 161 783 161 766 l 161 787 q 289 958 161 819 q 355 994 321 994 l 360 993 l 366 993 q 456 916 397 993 q 547 786 547 798 q 512 766 547 766 q 419 830 477 766 q 357 894 361 894 q 290 830 354 894 q 202 766 226 766 m 583 136 q 607 98 607 136 q 528 24 607 60 q 373 -11 448 -11 q 136 78 216 -11 q 57 326 57 166 l 57 342 q 78 477 57 411 q 230 655 117 603 q 361 682 289 682 l 376 682 q 487 661 439 682 q 561 611 534 640 q 625 439 625 542 l 625 425 q 585 352 625 372 q 402 327 557 338 q 247 316 248 316 q 193 265 193 306 q 247 133 193 180 q 393 86 301 86 q 541 124 452 86 q 583 136 569 136 z "},"":{"ha":700,"x_min":56,"x_max":621,"o":"m 239 399 l 260 399 l 265 400 l 427 408 q 435 409 432 409 q 494 443 494 409 l 494 470 q 455 571 494 532 q 366 610 416 610 l 337 610 q 232 558 277 610 q 186 434 186 507 l 186 425 q 239 399 186 399 m 160 861 l 160 876 l 161 878 l 161 882 q 162 890 162 888 q 180 927 162 912 q 230 941 199 941 l 232 941 l 235 941 l 253 939 q 257 938 255 938 q 296 897 296 938 l 299 878 l 299 860 q 296 842 296 850 q 250 800 296 800 q 243 798 246 798 l 232 797 l 220 797 q 175 815 189 797 q 160 861 160 833 m 549 872 l 549 854 q 535 813 549 831 q 496 795 521 795 l 481 793 l 467 793 l 465 794 l 460 794 q 445 795 454 795 q 419 811 435 795 q 404 857 404 827 l 404 868 l 404 870 l 404 875 q 406 882 406 879 q 454 928 406 928 q 461 930 458 930 l 473 931 l 484 931 l 503 928 q 549 872 549 928 m 378 -9 l 347 -9 q 227 15 283 -9 q 85 159 123 60 q 56 304 56 232 l 56 336 q 135 583 56 492 q 237 656 178 632 q 355 681 296 681 l 386 681 q 555 614 488 681 q 621 446 621 548 l 621 431 q 572 351 621 369 q 398 329 541 339 q 235 314 255 319 q 189 256 189 302 q 241 135 189 185 q 372 85 293 85 q 532 120 450 85 q 576 134 564 134 q 604 98 604 134 q 528 25 604 59 q 378 -9 451 -9 z "},"":{"ha":387,"x_min":19,"x_max":301,"o":"m 19 956 l 19 966 q 62 996 19 996 l 79 996 q 148 956 113 996 q 258 780 258 829 l 258 771 q 235 755 258 755 l 225 755 q 108 844 197 755 q 19 956 19 933 m 193 15 l 158 15 q 107 32 126 15 q 88 68 88 48 q 105 113 88 87 q 124 163 121 139 q 127 357 127 188 q 122 551 127 526 q 99 598 117 576 q 81 641 81 621 q 104 669 81 661 q 187 678 127 678 l 203 678 q 248 640 241 678 q 253 430 253 613 q 259 200 253 248 q 283 122 265 152 q 301 66 301 92 q 259 23 301 41 q 193 15 239 15 z "},"":{"ha":387,"x_min":85,"x_max":351,"o":"m 351 968 l 351 956 q 254 843 351 928 q 139 758 157 758 l 136 758 q 110 778 110 758 l 110 781 q 226 962 110 829 q 293 998 258 998 l 306 998 q 351 968 351 998 m 153 11 q 107 27 125 11 q 88 62 88 43 q 105 107 88 81 q 126 170 121 133 q 131 368 131 208 q 127 548 131 529 q 104 592 123 567 q 85 628 85 617 l 85 635 q 188 675 85 675 l 213 675 q 252 641 244 675 q 256 426 256 623 q 261 189 256 229 q 284 120 267 149 q 302 72 302 91 q 278 32 302 52 q 215 12 255 12 l 197 11 l 153 11 z "},"":{"ha":393,"x_min":0,"x_max":380,"o":"m 41 768 l 31 768 q 0 785 0 768 l 0 789 q 123 958 0 812 q 190 997 156 997 l 195 997 q 240 978 222 997 q 287 921 259 960 q 347 840 314 882 q 380 787 380 797 q 345 768 380 768 l 335 768 q 224 859 307 768 q 191 893 192 893 q 126 830 189 893 q 41 768 64 768 m 200 6 l 156 6 q 109 22 127 6 q 90 56 90 38 q 107 101 90 75 q 129 159 125 128 q 132 350 132 190 q 129 536 132 509 q 106 589 126 563 q 87 626 87 615 l 87 633 q 191 673 87 673 l 208 673 q 255 638 248 673 q 260 422 260 613 q 266 187 260 231 q 289 115 271 143 q 307 73 307 86 l 307 66 q 266 16 307 36 q 200 6 247 6 z "},"":{"ha":392,"x_min":-7,"x_max":380,"o":"m -7 868 q 9 920 -7 904 q 41 937 26 937 q 48 938 45 938 l 57 939 l 71 939 q 83 937 77 937 q 127 885 127 937 l 130 870 l 130 858 l 126 836 q 108 804 126 819 q 64 789 90 789 l 55 789 l 35 792 q -4 841 -4 792 l -6 850 l -6 855 l -7 863 l -7 868 m 300 798 q 243 846 243 798 q 241 854 241 852 l 240 866 l 240 873 q 254 921 240 903 q 287 939 268 939 q 296 941 293 941 l 307 942 l 319 942 l 342 938 q 376 898 376 938 l 380 876 l 380 861 l 377 845 q 334 801 377 801 l 315 798 l 300 798 m 194 7 l 159 7 q 112 23 132 7 q 92 59 92 39 q 109 106 92 79 q 130 162 126 133 q 134 357 134 192 q 130 544 134 522 q 107 592 127 565 q 87 637 87 618 q 109 665 87 655 q 199 675 131 675 q 248 642 239 675 q 254 425 254 623 q 259 186 254 227 q 282 115 264 145 q 300 72 300 85 l 300 64 q 259 16 300 36 q 194 7 241 7 z "},"":{"ha":767,"x_min":79,"x_max":680,"o":"m 373 576 l 359 576 q 254 517 298 576 q 211 370 211 458 l 210 355 l 209 338 l 209 323 l 208 300 q 251 129 208 194 q 361 63 293 63 l 382 63 q 503 134 458 63 q 549 320 549 204 l 549 351 q 503 519 549 461 q 373 576 456 576 m 278 785 q 299 818 278 791 q 319 859 319 844 q 280 903 319 873 q 241 950 241 932 q 271 977 241 977 q 361 955 301 977 q 438 934 422 934 q 488 939 454 934 l 503 941 q 530 945 527 945 q 575 911 575 945 q 564 875 575 901 q 554 833 553 847 q 593 739 555 816 q 680 399 680 559 l 680 397 l 680 359 l 680 357 q 507 17 680 96 q 383 -11 447 -11 l 363 -11 q 164 64 241 -11 q 101 164 122 105 q 79 277 79 223 l 79 315 q 104 439 80 376 q 287 612 157 574 q 417 625 332 625 l 444 623 q 482 656 482 623 q 446 733 482 702 q 370 764 410 764 l 318 758 q 278 785 278 758 z "},"":{"ha":785,"x_min":75,"x_max":710,"o":"m 296 947 l 311 947 q 399 916 336 947 q 485 884 461 884 q 542 911 509 884 q 586 938 574 938 q 608 917 608 938 l 608 911 q 569 835 608 874 q 492 796 530 796 l 470 796 q 382 827 444 796 q 296 859 319 859 q 240 831 273 859 q 195 804 207 804 q 173 825 173 804 l 173 836 q 214 909 173 871 q 296 947 256 947 m 155 652 q 234 636 202 652 q 274 620 266 620 q 313 636 282 620 q 454 676 390 676 q 456 676 456 676 q 632 587 581 676 q 669 259 669 521 q 673 147 669 168 q 694 98 677 126 q 710 51 710 69 q 695 18 710 33 q 633 3 680 3 q 554 23 585 3 q 524 79 524 43 q 534 117 524 87 q 547 170 545 146 l 547 306 q 530 511 547 467 q 486 574 513 555 q 413 594 459 594 q 324 571 368 594 q 257 504 280 549 q 235 248 235 460 q 248 142 235 193 q 262 87 262 92 q 215 23 262 47 q 117 6 182 6 q 75 52 75 6 q 91 94 75 62 q 110 155 107 126 q 113 325 113 183 q 111 508 113 467 q 96 579 110 549 q 83 620 83 610 q 155 652 83 652 z "},"":{"ha":751,"x_min":65,"x_max":675,"o":"m 380 77 q 497 133 452 77 q 543 287 543 189 l 544 302 l 545 327 l 545 343 l 544 351 q 494 545 544 479 q 366 610 445 610 q 239 556 286 610 q 192 402 192 502 l 191 387 l 190 362 l 190 346 q 236 148 190 219 q 365 77 281 77 l 380 77 m 197 956 l 197 962 q 252 997 197 997 l 255 997 l 258 996 q 334 959 302 996 q 447 785 447 830 l 447 776 q 419 758 447 758 l 409 758 q 315 817 382 758 q 197 956 197 923 m 675 347 l 675 323 q 589 75 675 164 q 492 10 549 33 q 378 -13 435 -13 l 355 -13 q 136 84 216 -13 q 85 188 104 123 q 65 312 65 254 l 65 347 q 85 478 65 413 q 227 653 122 602 q 358 684 290 684 l 380 684 q 595 593 513 684 q 654 484 633 551 q 675 347 675 418 z "},"":{"ha":751,"x_min":66,"x_max":673,"o":"m 353 90 l 376 90 q 448 110 412 90 q 502 157 484 130 q 547 365 547 227 l 547 380 q 504 549 547 482 q 378 616 460 616 l 363 616 q 234 548 279 616 q 189 367 189 479 l 189 319 q 235 150 189 210 q 353 90 281 90 m 324 747 l 313 747 q 288 768 288 747 l 288 771 q 406 954 288 819 q 484 990 437 990 l 487 990 q 538 956 538 990 l 537 952 q 410 801 537 912 q 324 747 349 747 m 673 357 l 673 323 q 651 182 673 247 q 500 14 610 62 q 378 -13 441 -13 l 355 -13 q 143 77 221 -13 q 86 185 106 120 q 66 312 66 251 l 66 347 q 140 585 66 494 q 237 657 179 631 q 358 683 296 683 l 380 683 q 594 592 515 683 q 652 488 631 550 q 673 357 673 426 z "},"":{"ha":751,"x_min":64,"x_max":675,"o":"m 355 85 l 385 85 q 503 149 459 85 q 547 328 547 213 l 547 368 q 500 540 547 469 q 376 612 454 612 l 353 612 q 233 544 277 612 q 189 378 189 477 l 189 330 q 236 152 189 218 q 355 85 283 85 m 557 783 l 557 779 q 523 760 557 760 q 432 821 488 760 q 369 883 375 883 q 300 821 362 883 q 212 760 239 760 l 207 760 q 172 779 172 760 q 306 958 172 824 q 369 987 336 987 q 427 962 403 987 q 557 783 557 819 m 675 346 l 675 323 q 656 191 675 256 q 511 16 620 68 q 378 -15 446 -15 l 356 -15 q 85 180 151 -15 q 64 307 64 242 q 64 311 64 309 l 64 345 q 139 585 64 494 q 234 657 176 630 q 357 684 292 684 l 380 684 q 598 590 521 684 q 675 346 675 496 z "},"":{"ha":751,"x_min":66,"x_max":675,"o":"m 549 398 q 497 551 549 488 q 370 614 446 614 l 362 614 l 354 614 q 233 550 278 614 q 188 376 188 486 l 188 336 q 236 156 188 224 q 371 87 284 87 l 378 88 q 502 146 454 88 q 549 311 549 204 l 550 327 l 550 375 q 549 398 549 390 m 273 932 l 294 932 q 381 901 320 932 q 465 871 442 871 q 519 897 487 871 q 562 923 551 923 q 585 890 585 923 q 546 818 585 857 q 466 780 508 780 l 450 780 q 358 810 419 780 q 275 841 297 841 q 218 814 254 841 q 174 788 183 788 q 151 810 151 788 l 151 821 q 192 894 151 857 q 273 932 233 932 m 675 360 l 675 326 q 503 15 675 92 q 369 -12 441 -12 l 357 -12 q 138 85 218 -12 q 87 183 109 120 q 66 313 66 246 l 66 347 q 85 479 66 415 q 227 654 123 604 q 370 686 292 686 l 381 685 q 596 595 515 685 q 654 491 633 555 q 675 360 675 427 z "},"":{"ha":748,"x_min":58,"x_max":668,"o":"m 533 380 q 487 547 533 479 q 365 614 441 614 l 350 614 l 342 613 q 227 550 271 613 q 184 378 184 487 l 184 321 q 185 298 185 305 q 233 141 185 203 q 362 79 280 79 l 370 79 q 489 141 447 79 q 532 299 532 203 l 533 315 l 533 380 m 172 862 l 172 872 q 242 941 172 941 l 245 941 l 247 940 q 312 875 312 940 l 312 865 q 244 796 312 796 l 235 796 q 172 862 172 796 m 559 870 l 559 848 q 557 829 557 840 q 541 802 557 818 q 505 786 525 786 l 490 784 l 475 784 q 432 798 449 784 q 415 831 415 811 q 414 839 414 837 l 412 848 l 412 863 q 416 887 416 877 q 432 913 416 897 q 486 930 449 930 l 493 930 l 496 929 l 500 929 l 519 926 q 559 870 559 926 m 668 357 l 668 323 q 643 175 667 240 q 487 9 597 55 q 361 -14 431 -14 l 350 -13 q 130 84 210 -13 q 78 187 98 123 q 58 323 58 252 l 58 334 l 58 345 q 139 591 58 497 q 238 660 178 636 q 363 683 298 683 l 375 682 q 645 494 573 682 q 668 357 668 433 z "},"":{"ha":744,"x_min":77,"x_max":665,"o":"m 357 561 q 334 564 347 564 q 307 582 321 564 q 293 627 293 600 l 293 636 l 296 655 q 311 687 296 671 q 345 702 326 702 l 364 705 l 380 705 q 430 688 412 705 q 447 642 447 671 l 447 627 l 444 611 q 429 579 444 595 q 393 564 413 564 q 386 562 388 562 l 376 561 l 357 561 m 125 362 q 77 389 77 362 l 77 402 l 78 409 q 102 447 78 443 q 382 451 125 451 l 477 452 l 503 452 q 652 448 638 452 q 665 424 665 445 l 665 411 l 665 405 q 633 366 665 371 q 360 363 617 363 l 320 363 l 293 362 l 125 362 m 447 186 l 447 168 q 430 122 447 139 q 391 105 413 105 l 375 103 l 360 103 q 314 118 329 103 q 298 151 298 134 q 297 158 297 155 l 296 168 l 296 185 q 298 203 298 191 q 313 230 298 214 q 350 245 329 245 q 357 247 354 247 l 370 248 l 380 248 l 402 245 q 433 227 418 245 q 447 186 447 210 z "},"":{"ha":758,"x_min":71,"x_max":667,"o":"m 460 555 l 460 564 q 440 594 460 579 q 374 610 420 610 l 368 610 q 238 547 286 610 q 190 393 190 484 q 189 374 189 381 l 187 342 l 187 330 q 217 178 187 242 q 228 166 222 166 q 304 262 242 166 q 460 555 460 506 m 336 62 l 356 62 q 424 82 389 62 q 481 138 458 102 q 538 378 538 225 l 538 414 q 518 513 538 513 q 459 414 512 513 q 346 215 406 314 q 287 102 287 116 l 287 98 q 336 62 287 62 m 151 -42 q 121 -3 121 -42 l 131 54 q 101 151 131 65 q 71 303 71 236 l 71 344 q 94 481 71 412 q 164 597 118 551 q 402 683 250 683 l 405 683 l 441 681 q 476 680 453 680 q 535 697 498 680 q 579 715 571 715 l 587 715 q 618 678 618 715 q 614 651 618 670 q 610 611 610 632 q 638 521 610 610 q 667 371 667 432 l 667 330 q 579 83 667 174 q 333 -8 490 -8 l 275 -5 q 205 -24 239 -5 q 151 -42 171 -42 z "},"":{"ha":777,"x_min":62,"x_max":689,"o":"m 205 958 l 205 968 q 258 1002 205 1002 l 261 1002 q 336 964 303 1002 q 456 793 456 828 l 456 787 q 430 768 456 768 l 423 768 q 301 852 396 768 q 205 958 205 935 m 689 62 q 595 20 689 20 q 540 38 573 20 q 499 56 507 56 q 467 45 490 56 l 452 38 q 315 1 377 1 q 136 95 184 1 q 100 410 100 163 q 97 539 100 511 q 77 596 93 567 q 62 636 62 626 q 102 668 62 668 l 119 668 q 183 656 161 668 q 215 611 205 644 q 224 391 224 578 q 244 159 224 204 q 295 99 264 114 q 370 85 326 85 q 452 109 414 85 q 505 162 489 132 q 532 412 532 214 q 528 509 532 488 q 514 559 524 530 q 504 600 504 589 q 618 667 504 667 q 656 635 649 667 q 657 467 657 629 l 657 210 q 673 111 657 154 q 689 62 689 68 z "},"":{"ha":776,"x_min":63,"x_max":692,"o":"m 327 768 l 320 768 q 296 785 296 768 l 296 788 q 419 959 296 836 q 493 998 458 998 l 500 998 q 547 966 547 998 l 547 960 q 454 850 547 932 q 327 768 362 768 m 501 598 q 610 671 501 671 q 656 631 650 671 l 656 409 q 660 177 656 216 q 678 108 664 139 q 692 62 692 77 q 673 36 692 48 q 613 23 654 23 q 537 42 572 23 q 500 61 503 61 q 435 33 498 61 q 324 4 371 4 l 306 4 q 128 113 181 4 q 101 401 101 170 q 99 535 101 511 q 80 594 96 559 q 63 630 63 629 q 78 664 63 658 q 139 670 92 670 q 206 640 186 670 q 226 506 226 610 l 227 488 q 228 452 228 452 l 229 414 l 229 377 q 252 155 229 201 q 363 91 286 91 q 448 112 412 91 q 501 161 484 133 q 530 411 530 210 q 526 517 530 495 q 512 565 522 539 q 501 598 501 590 z "},"":{"ha":777,"x_min":61,"x_max":693,"o":"m 225 773 l 215 773 q 184 791 184 773 l 184 795 q 312 965 184 814 q 376 1000 342 1000 l 382 1000 q 437 972 412 1000 q 570 796 570 827 l 570 791 q 534 773 570 773 l 524 773 q 431 846 498 773 q 410 869 416 863 q 391 889 404 876 q 377 903 378 903 q 311 838 370 903 q 225 773 252 773 m 693 56 q 597 13 693 13 q 542 32 574 13 q 500 51 510 51 q 463 37 491 51 q 401 9 435 24 q 310 -5 368 -5 q 134 87 185 -5 q 99 405 99 151 q 96 537 99 512 q 77 592 92 562 q 61 634 61 623 q 119 667 61 667 q 214 615 199 667 q 226 390 226 577 q 243 161 226 203 q 353 80 297 94 q 507 164 463 80 q 530 412 530 208 q 527 504 530 484 q 513 555 524 524 q 503 608 503 587 q 529 648 503 629 q 602 668 555 668 l 618 668 q 656 635 650 668 q 658 502 658 629 l 658 356 l 659 337 q 659 299 659 318 l 660 204 q 676 104 660 149 q 693 56 693 59 z "},"":{"ha":776,"x_min":58,"x_max":686,"o":"m 175 858 l 175 880 q 179 901 179 896 q 224 940 179 940 l 227 941 l 229 941 l 245 943 l 250 943 l 253 942 l 269 940 q 273 939 271 939 q 311 895 311 939 q 313 888 313 890 l 314 876 l 314 863 q 299 817 314 832 q 269 802 283 802 l 250 798 l 231 798 q 189 816 203 798 q 175 858 175 834 m 509 798 l 488 798 q 445 817 460 798 q 431 865 431 835 l 431 875 l 433 894 q 480 940 433 940 q 487 941 484 941 l 498 943 l 509 943 l 527 940 q 566 900 566 940 q 569 888 569 890 l 570 873 l 570 866 l 568 847 q 549 813 568 827 q 509 798 531 798 m 686 60 q 592 17 686 17 q 537 35 570 17 q 496 54 505 54 q 495 54 496 54 q 456 38 486 54 q 315 -3 342 -3 q 313 -3 314 -3 q 140 77 195 -3 q 98 275 98 138 l 98 294 q 97 332 97 313 l 97 370 l 96 408 q 93 539 96 515 q 74 593 90 563 q 58 635 58 624 q 98 667 58 667 l 115 667 q 210 614 194 667 q 220 392 220 583 q 237 160 220 201 q 349 79 292 93 q 351 79 349 79 q 505 163 459 79 q 529 408 529 206 q 525 504 529 484 q 510 554 522 524 q 499 597 499 585 q 612 667 499 667 q 654 619 649 667 l 654 509 l 652 397 q 652 303 652 350 l 653 265 l 653 209 q 660 134 653 153 q 676 96 666 116 q 686 60 686 75 z "},"":{"ha":715,"x_min":58,"x_max":648,"o":"m 317 756 l 311 756 q 285 772 285 756 l 285 781 q 407 964 285 827 q 463 996 435 996 l 476 996 q 514 983 496 996 q 532 959 532 969 l 532 956 q 430 846 532 937 q 317 756 328 756 m 58 616 q 144 666 58 666 q 217 625 195 666 q 229 555 225 609 q 301 293 232 500 q 368 169 342 169 l 378 176 q 458 346 412 208 q 504 555 504 484 l 496 614 q 514 655 496 638 q 573 672 532 672 l 591 672 q 648 626 648 672 q 622 550 648 610 q 574 418 595 490 q 414 -49 468 56 q 175 -262 302 -262 q 113 -229 113 -262 q 142 -185 113 -203 q 194 -172 144 -184 q 269 -135 244 -161 q 320 -9 320 -81 q 263 135 320 32 q 184 286 205 238 q 58 603 58 572 l 58 616 z "},"":{"ha":774,"x_min":86,"x_max":697,"o":"m 381 68 l 403 68 q 518 138 473 68 q 564 330 564 208 l 564 355 q 521 537 564 471 q 410 604 478 604 l 389 604 q 269 546 309 604 q 241 406 241 507 l 241 275 q 263 115 241 146 q 381 68 298 68 m 161 -266 q 90 -224 90 -266 q 100 -176 90 -208 q 114 -115 110 -145 q 117 3 117 -85 l 119 98 l 121 155 q 121 212 121 184 l 121 232 l 121 443 q 118 789 121 731 q 109 866 115 848 q 95 902 103 884 q 86 935 86 921 q 144 962 86 962 l 160 962 q 226 927 211 962 q 241 802 241 893 q 252 678 241 710 q 287 646 262 646 l 360 665 q 448 677 404 677 q 541 656 491 677 q 677 498 637 617 q 697 364 697 435 l 697 344 q 673 197 697 267 q 498 20 626 64 q 396 3 460 7 q 294 -17 332 -1 q 256 -67 256 -34 q 267 -131 256 -100 q 277 -176 277 -161 q 242 -242 277 -218 q 161 -266 206 -266 z "},"":{"ha":718,"x_min":65,"x_max":645,"o":"m 161 873 l 162 886 q 203 931 162 931 l 205 932 l 208 932 l 229 935 l 231 934 l 233 934 q 293 897 293 934 q 296 882 296 886 l 298 865 l 298 852 q 282 804 298 821 q 245 788 266 788 l 233 786 l 218 786 q 177 803 194 786 q 160 852 160 820 l 160 871 l 161 873 m 413 859 l 413 864 l 414 867 l 414 874 q 416 886 416 884 q 463 932 416 932 l 475 934 l 494 934 q 508 932 502 932 q 554 867 554 932 l 554 858 l 551 838 q 504 792 551 792 l 500 791 l 495 791 l 483 789 l 478 789 l 453 793 q 413 859 413 793 m 65 604 q 144 656 65 656 q 225 608 208 656 q 231 546 227 602 q 308 271 235 491 q 366 160 345 160 q 450 309 395 160 q 506 543 506 458 l 498 616 q 519 650 498 635 q 584 665 540 665 q 645 623 645 665 q 618 538 645 601 q 570 397 591 475 q 427 -39 488 79 q 306 -214 366 -157 q 182 -271 246 -271 q 117 -229 117 -271 q 180 -185 117 -194 q 273 -149 243 -177 q 328 -22 328 -94 q 269 131 328 23 q 195 271 209 239 q 65 604 65 562 z "},"":{"ha":400,"x_min":92,"x_max":313,"o":"m 92 617 l 92 631 q 115 661 92 651 q 207 671 138 671 l 216 671 q 262 635 256 671 q 267 415 267 608 q 272 179 267 222 q 295 109 277 136 q 313 66 313 81 l 313 58 q 271 8 313 29 q 197 -2 251 -2 l 170 -2 q 119 14 141 -2 q 98 50 98 31 q 115 98 98 69 q 137 157 133 126 q 140 351 140 188 q 135 539 140 515 q 111 588 130 564 q 92 617 92 611 z "},"":{"ha":780,"x_min":67,"x_max":730,"o":"m 299 690 q 366 589 299 589 q 408 601 369 589 q 469 612 447 612 q 490 584 490 612 q 421 505 490 555 q 325 408 351 456 q 299 263 299 359 q 328 129 299 166 q 451 91 357 91 q 592 122 511 91 q 688 153 672 153 q 730 91 730 153 q 679 12 730 29 q 440 -1 642 -1 l 399 -1 q 159 12 196 -1 q 122 66 122 26 q 133 104 122 74 q 150 159 144 134 q 157 250 157 185 q 148 332 157 315 q 97 358 139 349 q 67 397 67 365 q 99 454 67 409 q 145 544 130 499 q 159 676 159 589 q 143 818 159 764 q 127 871 127 871 q 148 919 127 902 q 203 937 168 937 q 328 837 328 937 q 313 777 328 820 q 299 690 299 733 z "},"":{"ha":457,"x_min":51,"x_max":382,"o":"m 262 6 l 235 6 q 165 37 193 6 q 150 114 150 53 q 128 334 150 277 q 85 376 119 358 q 51 418 51 394 q 90 476 51 441 q 140 547 129 511 q 152 718 152 582 q 146 881 152 853 q 140 924 140 908 q 157 955 140 939 q 217 970 173 970 l 231 970 q 286 925 273 970 q 291 801 291 908 q 300 660 291 694 q 346 612 310 625 q 382 579 382 599 l 382 571 q 347 511 382 557 q 302 437 313 465 q 292 344 292 410 q 302 216 292 278 q 333 119 313 153 q 353 65 353 84 q 330 26 353 46 q 262 6 307 6 z "},"":{"ha":996,"x_min":95,"x_max":890,"o":"m 446 1031 l 435 1031 q 418 1052 418 1031 l 418 1059 l 418 1062 q 509 1180 418 1101 q 636 1259 599 1259 l 640 1258 q 690 1220 690 1258 l 690 1217 q 688 1206 688 1210 q 625 1140 688 1183 q 446 1031 462 1031 m 791 905 q 890 823 890 905 q 870 749 890 798 q 846 657 851 701 q 842 365 842 614 q 836 94 842 116 q 794 61 828 61 q 715 115 761 61 l 697 137 q 574 310 649 198 q 250 725 298 725 q 233 567 233 725 l 234 447 q 258 195 234 293 q 269 120 269 149 q 235 59 269 91 q 157 27 202 27 l 133 27 q 95 64 95 27 q 112 118 95 83 q 135 211 128 153 q 141 515 141 269 q 129 816 141 760 q 116 860 125 831 q 106 900 106 889 q 149 928 106 928 q 237 905 193 928 q 314 848 282 882 q 413 726 345 814 q 613 470 480 638 q 747 302 746 302 q 765 531 765 302 q 751 800 765 760 l 744 819 q 730 852 730 848 q 749 893 730 880 q 791 905 768 905 z "},"":{"ha":790,"x_min":81,"x_max":711,"o":"m 357 768 l 347 768 q 323 787 323 768 l 323 791 l 324 794 q 438 965 324 819 q 517 1013 475 1013 l 532 1013 q 583 979 583 1013 l 583 973 q 482 858 583 947 q 357 768 382 768 m 167 34 q 81 100 81 34 q 92 147 81 115 q 105 209 103 179 q 108 358 108 238 q 110 500 108 478 q 115 551 112 523 q 119 603 119 579 q 151 627 119 627 q 227 604 183 627 q 287 581 271 581 q 328 593 302 581 q 490 643 433 643 q 638 550 602 643 q 667 364 654 511 l 671 328 q 679 242 673 296 q 698 155 684 189 q 711 110 711 122 q 614 47 711 47 q 563 101 563 47 q 564 126 564 120 q 555 198 564 133 q 537 354 547 264 q 509 486 527 444 q 391 559 476 559 l 389 559 q 325 538 357 559 q 273 475 292 517 q 236 201 236 391 l 235 166 l 235 136 q 238 87 238 103 q 219 53 238 71 q 167 34 199 34 z "},"":{"ha":1303,"x_min":83,"x_max":1178,"o":"m 492 870 l 471 870 q 469 870 470 870 q 364 837 415 870 q 214 472 214 739 l 214 437 q 235 288 214 356 q 366 108 275 159 q 464 82 412 82 l 485 82 q 602 130 570 82 q 633 321 633 177 q 635 354 635 343 l 637 420 l 637 442 l 637 465 l 637 488 l 638 510 l 638 577 q 611 820 638 769 q 492 870 583 870 m 1098 491 q 1027 424 1098 424 q 982 430 1017 424 q 909 436 947 436 q 810 399 840 436 q 789 266 789 374 q 833 124 789 159 q 975 102 861 102 q 1076 106 1018 102 l 1098 107 l 1119 110 q 1157 111 1135 111 q 1178 104 1178 111 l 1178 97 q 1112 35 1178 62 q 984 8 1046 8 q 841 16 922 8 q 714 23 760 23 q 586 13 668 23 q 476 3 505 3 q 109 269 189 3 q 83 441 83 354 l 83 471 q 111 667 83 576 q 502 946 199 946 l 530 945 l 557 943 l 610 938 q 748 928 730 928 q 837 935 767 928 q 972 941 907 941 q 1081 926 1038 941 q 1158 867 1158 900 q 1022 856 1158 856 q 855 834 886 856 q 810 775 824 812 q 797 671 797 739 q 825 576 797 603 q 922 549 853 549 l 1015 564 q 1098 491 1098 564 z "},"":{"ha":1150,"x_min":55,"x_max":1056,"o":"m 182 351 l 182 311 q 226 135 182 199 q 345 70 271 70 l 353 70 q 470 126 429 70 q 511 311 511 182 l 511 350 q 477 530 511 476 q 367 599 432 599 l 345 599 q 227 530 271 599 q 182 351 182 460 m 920 418 q 935 456 935 427 l 935 473 q 903 555 935 519 q 820 591 871 591 l 792 591 q 688 539 734 591 q 642 424 642 488 l 642 412 q 690 389 642 389 l 698 389 l 702 390 l 772 395 l 777 395 l 812 398 q 865 402 836 402 q 920 418 895 402 m 1031 145 q 1048 113 1048 145 q 978 41 1048 80 q 825 1 908 1 q 682 28 743 1 q 626 61 661 39 q 578 84 591 84 q 532 62 566 84 q 340 0 439 0 l 319 0 q 213 24 263 0 q 55 319 55 101 q 55 321 55 320 l 55 342 q 55 346 55 344 q 77 477 55 411 q 239 652 121 606 q 354 671 289 671 q 536 613 463 671 q 586 581 576 581 q 625 604 595 581 q 808 671 715 671 l 827 671 q 1036 542 981 671 q 1056 448 1056 496 q 1002 351 1056 374 q 853 322 971 337 q 711 301 735 308 q 661 258 661 287 q 720 136 661 186 q 823 99 764 99 q 953 122 881 99 q 1031 145 1025 145 z "},"":{"ha":767,"x_min":76,"x_max":692,"o":"m 385 1028 l 375 1028 q 289 1097 342 1028 q 193 1222 193 1221 q 229 1242 193 1242 q 349 1157 264 1242 q 385 1124 382 1124 q 447 1183 388 1124 q 539 1242 506 1242 q 573 1224 573 1242 l 573 1219 q 494 1115 573 1201 q 385 1028 414 1028 m 382 -1 q 146 42 237 -1 q 99 88 121 54 q 76 154 76 122 q 114 226 76 226 q 175 179 132 226 q 268 110 218 132 q 401 87 319 87 q 526 133 483 87 q 569 238 569 178 q 503 368 569 317 q 333 451 457 404 q 162 544 210 498 q 102 632 115 589 q 87 727 88 675 q 164 894 87 829 q 370 958 241 958 q 574 932 499 958 q 629 885 606 921 q 651 827 651 848 q 611 757 651 757 q 557 793 593 757 q 481 852 521 830 q 366 873 441 873 q 248 833 290 873 q 206 731 206 793 q 267 622 206 669 q 428 546 300 596 q 606 450 556 496 q 674 359 656 404 q 692 257 692 313 q 667 149 692 201 q 520 21 625 56 q 382 -1 455 -1 z "},"":{"ha":623,"x_min":71,"x_max":555,"o":"m 466 985 l 475 985 q 502 972 502 985 l 502 968 q 477 933 502 962 l 451 903 q 433 880 445 895 q 397 833 421 866 q 313 759 344 759 l 307 759 l 302 760 q 215 831 271 760 q 125 951 125 945 l 125 955 q 164 972 125 972 q 279 890 203 972 q 314 854 311 854 q 342 883 317 853 q 466 985 428 985 m 331 687 q 525 578 525 687 q 487 532 525 532 q 441 558 475 532 q 406 586 408 585 q 307 612 360 612 q 222 589 254 612 q 190 522 190 565 q 242 448 190 479 q 353 404 253 441 q 491 336 454 367 q 555 208 555 284 l 555 191 q 490 60 555 112 q 314 9 425 9 q 137 37 202 9 q 71 117 71 65 l 71 132 q 109 181 71 181 q 162 149 125 181 q 233 102 198 117 q 323 86 267 86 q 411 114 380 86 q 443 186 443 142 q 395 265 443 231 q 269 320 366 286 q 134 387 173 353 q 79 516 79 434 q 145 643 79 598 q 295 687 211 687 l 331 687 z "},"":{"ha":813,"x_min":62,"x_max":762,"o":"m 227 1118 l 229 1132 q 259 1181 229 1181 l 275 1185 l 290 1185 l 293 1184 l 304 1185 l 313 1185 q 349 1154 349 1185 q 353 1133 353 1141 l 355 1120 l 355 1101 l 352 1083 q 336 1051 352 1067 q 302 1035 320 1035 q 291 1032 294 1032 l 283 1032 q 245 1047 264 1032 q 227 1092 227 1063 l 227 1116 l 227 1118 m 473 1131 q 487 1174 473 1157 q 519 1192 501 1192 q 530 1194 528 1194 l 547 1196 l 550 1196 q 610 1155 610 1196 l 611 1151 l 612 1146 l 614 1132 l 614 1120 q 610 1096 610 1103 q 564 1055 610 1055 q 556 1053 558 1053 l 547 1052 l 532 1052 l 509 1056 q 476 1097 476 1056 q 475 1103 475 1101 l 473 1114 l 473 1131 m 62 887 q 149 929 62 929 l 151 929 q 250 860 239 929 q 256 822 254 832 q 298 727 259 811 q 415 522 395 522 q 546 728 447 522 q 583 836 570 777 q 603 905 596 895 q 695 948 629 948 q 762 917 762 948 q 723 834 762 892 q 657 718 684 777 q 580 554 630 659 q 515 414 530 450 q 464 163 464 281 q 475 112 464 145 q 486 70 486 78 q 459 23 486 40 q 397 6 433 6 l 381 6 q 325 25 347 6 q 304 68 304 44 q 318 124 304 93 q 335 163 332 155 q 349 286 349 206 q 304 458 349 366 q 242 572 288 491 l 233 589 q 216 621 221 613 l 182 687 q 103 813 145 755 q 62 887 62 871 z "},"":{"ha":825,"x_min":85,"x_max":748,"o":"m 258 1248 l 269 1248 q 383 1164 307 1248 q 421 1127 417 1127 q 484 1186 425 1127 q 579 1245 543 1245 q 615 1227 615 1245 l 615 1223 q 483 1057 615 1189 q 420 1024 450 1024 l 415 1025 l 410 1025 q 307 1118 387 1025 q 228 1226 228 1212 q 258 1248 228 1248 m 281 147 q 319 114 281 122 q 436 109 344 109 q 566 116 528 109 q 650 141 604 123 q 715 159 696 159 q 716 159 715 159 q 748 122 748 159 q 669 26 748 47 q 417 14 623 14 l 393 14 q 141 23 197 14 q 85 77 85 32 q 172 259 85 116 q 393 590 258 403 q 528 807 528 778 q 498 845 528 836 q 369 855 469 855 q 223 840 270 855 q 181 824 218 838 q 126 809 144 809 q 89 872 89 809 q 146 938 89 916 q 277 949 174 949 l 469 949 q 666 938 615 949 q 718 895 718 927 q 660 756 718 853 q 441 424 602 659 q 281 147 281 189 z "},"":{"ha":659,"x_min":71,"x_max":591,"o":"m 340 770 l 330 770 q 237 850 300 770 q 144 978 144 969 l 144 982 q 174 1000 144 1000 l 184 1000 q 264 946 215 1000 l 286 920 q 308 893 287 919 q 332 868 330 868 q 398 931 334 868 q 495 995 461 995 q 528 972 528 995 q 434 847 528 967 q 340 770 373 770 m 79 612 q 103 661 79 642 q 166 679 127 679 l 182 679 l 199 678 l 235 679 l 305 679 l 323 678 l 392 677 l 444 675 q 494 674 479 674 q 568 631 568 674 q 409 370 568 595 q 249 127 249 144 q 345 98 249 98 q 491 117 441 98 q 554 136 541 136 q 591 92 591 136 q 546 24 591 47 q 468 12 520 12 l 328 12 l 310 12 l 292 12 q 104 15 118 12 q 71 48 71 22 q 232 323 71 104 q 393 568 393 541 q 315 591 393 591 q 211 585 237 591 q 157 570 185 580 q 115 560 128 560 q 79 612 79 560 z "},"":{"ha":602,"x_min":-20,"x_max":594,"o":"m 364 711 q 385 646 364 671 q 436 613 393 637 q 479 564 479 590 q 425 519 479 559 q 343 402 370 478 q 297 137 316 326 q 247 -117 278 -52 q 68 -243 186 -243 l 49 -243 q -20 -195 -20 -243 q 30 -153 -20 -164 q 102 -126 80 -142 q 141 -64 125 -110 q 186 357 186 62 q 165 492 186 408 q 144 578 144 576 q 184 645 144 595 q 250 775 225 696 q 307 895 274 854 q 382 956 339 935 q 474 978 426 978 q 558 961 522 978 q 594 923 594 945 l 594 911 q 581 884 594 899 q 545 868 568 868 q 505 870 522 868 l 477 873 q 398 830 431 873 q 364 711 364 787 z "},"":{"ha":555,"x_min":85,"x_max":477,"o":"m 477 789 q 442 768 477 768 l 437 768 q 348 834 404 768 q 283 901 292 901 q 215 835 281 901 q 117 769 149 769 q 85 788 85 769 q 218 968 85 810 q 283 1005 250 1005 l 289 1005 q 353 968 321 1005 q 477 789 477 821 z "},"":{"ha":562,"x_min":87,"x_max":481,"o":"m 87 964 q 120 986 87 986 q 217 921 152 986 q 284 857 281 857 q 351 921 286 857 q 446 986 416 986 l 451 986 q 481 966 481 986 q 338 783 481 939 q 280 755 313 755 q 215 789 248 755 q 104 931 182 822 q 87 964 87 954 z "},"":{"ha":550,"x_min":85,"x_max":469,"o":"m 436 953 l 446 953 q 469 929 469 953 q 411 819 469 871 q 275 766 353 766 l 269 767 q 137 819 189 767 q 85 922 85 871 l 85 932 q 117 951 85 951 q 162 916 136 951 q 212 864 189 880 q 283 848 235 848 q 370 891 332 848 q 436 953 427 953 z "},"":{"ha":395,"x_min":116,"x_max":275,"o":"m 117 844 l 119 859 q 137 898 119 879 q 197 916 156 916 l 205 916 l 227 913 q 259 898 243 913 q 275 851 275 882 l 275 832 l 273 814 q 254 776 273 792 q 215 760 235 760 l 197 758 l 180 758 q 161 760 172 760 q 134 775 149 760 q 118 812 118 791 l 116 825 l 116 841 l 117 844 z "},"":{"ha":494,"x_min":104,"x_max":378,"o":"m 248 790 q 264 792 256 792 q 289 813 272 792 q 306 861 306 834 l 306 874 l 305 877 l 305 882 q 304 896 304 887 q 286 926 304 904 q 242 948 269 948 l 233 948 q 190 926 208 948 q 173 890 173 905 l 171 875 l 171 867 l 172 864 q 192 811 172 831 q 228 791 212 791 l 232 790 l 248 790 m 236 1000 l 250 1000 q 339 965 300 1000 q 378 884 378 930 l 378 862 q 338 776 378 812 q 245 739 297 739 l 227 739 q 140 775 176 739 q 104 863 104 811 l 104 868 q 143 961 104 922 q 236 1000 182 1000 z "},"":{"ha":465,"x_min":108,"x_max":363,"o":"m 363 -220 l 363 -229 q 336 -265 363 -246 q 252 -284 309 -284 l 241 -284 q 142 -250 177 -284 q 108 -168 108 -215 l 108 -162 l 109 -157 q 152 -52 109 -104 q 256 24 217 24 l 267 24 q 295 12 295 24 q 269 -25 295 7 q 240 -60 242 -56 q 210 -137 210 -104 q 285 -203 210 -203 l 338 -197 q 363 -220 363 -197 z "},"":{"ha":625,"x_min":84,"x_max":543,"o":"m 543 893 l 543 882 q 500 805 543 842 q 409 768 457 768 l 404 768 q 302 799 367 768 q 216 829 237 829 q 157 803 195 829 q 109 777 119 777 q 84 804 84 777 l 84 809 q 127 884 84 848 q 208 920 170 920 l 231 920 q 321 890 261 920 q 410 860 382 860 q 470 887 437 860 q 523 913 502 913 q 543 893 543 913 z "},"":{"ha":678,"x_min":87,"x_max":549,"o":"m 260 988 l 275 988 q 324 955 324 988 q 192 783 324 932 q 117 736 151 736 l 113 736 q 87 755 87 736 l 87 759 l 87 762 q 192 944 87 810 q 260 988 227 988 m 339 734 l 329 734 q 304 755 304 734 q 348 840 304 768 q 423 949 391 913 q 492 985 454 985 l 496 984 q 549 954 549 984 l 549 948 q 460 834 549 933 q 339 734 372 734 z "},"":{"ha":724,"x_min":71,"x_max":653,"o":"m 122 337 q 71 375 71 337 l 71 381 q 113 426 71 419 q 370 429 133 429 l 576 431 q 653 398 653 431 l 653 379 q 618 342 653 347 q 355 338 598 338 l 335 338 l 328 338 l 201 338 l 182 337 l 122 337 z "},"":{"ha":1078,"x_min":61,"x_max":1013,"o":"m 937 429 q 1000 421 986 429 q 1013 390 1013 413 q 964 341 1013 346 q 521 337 925 337 l 395 337 l 375 336 l 241 336 l 210 336 l 199 336 q 79 341 96 336 q 61 375 61 347 q 109 424 61 419 q 553 428 149 428 l 751 429 l 783 429 l 937 429 z "},"":{"ha":336,"x_min":87,"x_max":245,"o":"m 245 734 l 245 716 q 227 681 245 699 q 181 663 210 663 l 163 663 q 110 684 131 663 q 89 743 89 705 l 87 766 l 87 789 q 127 926 87 857 q 210 994 167 994 l 217 994 q 241 969 241 994 q 219 922 241 962 q 197 861 197 881 q 221 801 197 840 q 245 734 245 762 z "},"":{"ha":334,"x_min":100,"x_max":260,"o":"m 100 682 l 100 689 l 130 744 q 149 802 149 779 q 126 850 149 806 q 104 926 104 895 q 122 975 104 958 q 168 992 139 992 l 191 992 q 260 909 260 992 l 260 877 q 258 854 258 863 q 210 727 258 793 q 127 660 161 660 l 123 660 q 100 682 100 660 z "},"":{"ha":335,"x_min":89,"x_max":250,"o":"m 248 39 q 202 -87 248 -16 q 117 -159 157 -159 l 113 -159 q 89 -134 89 -159 q 112 -85 89 -127 q 135 -16 135 -43 q 114 33 135 -9 q 92 110 92 76 q 170 175 92 175 l 171 175 q 250 91 250 175 l 250 63 q 248 39 248 49 z "},"":{"ha":568,"x_min":77,"x_max":479,"o":"m 235 736 l 235 719 q 217 682 235 698 q 172 665 199 665 l 154 665 q 77 764 77 665 l 77 791 q 79 814 79 806 q 123 938 79 878 q 204 999 168 999 l 208 999 q 232 973 232 999 q 210 926 232 967 q 187 855 187 884 q 211 804 187 844 q 235 736 235 764 m 320 769 l 320 787 q 362 932 320 866 q 446 998 404 998 l 450 998 q 475 970 475 998 q 453 925 475 965 q 431 853 431 884 q 455 805 431 845 q 479 730 479 765 l 479 726 q 460 684 479 701 q 416 667 441 667 l 393 667 q 320 769 320 667 z "},"":{"ha":565,"x_min":89,"x_max":492,"o":"m 89 688 l 89 694 q 112 740 89 698 q 135 803 135 783 q 113 859 135 823 q 92 930 92 895 q 110 982 92 966 q 159 999 129 999 l 174 999 q 248 916 248 999 l 248 883 l 245 854 q 198 730 245 795 q 117 665 151 665 l 113 665 q 89 688 89 665 m 492 882 q 446 736 492 808 q 360 665 401 665 l 356 666 l 353 666 q 332 691 332 666 q 356 739 332 692 q 379 804 379 786 q 357 858 379 822 q 336 930 336 895 q 354 982 336 966 q 404 998 373 998 l 418 998 q 472 978 454 998 q 490 924 490 957 l 492 915 l 492 882 z "},"":{"ha":570,"x_min":82,"x_max":486,"o":"m 82 -140 l 82 -134 q 104 -88 82 -128 q 126 -20 126 -47 q 104 31 126 -13 q 83 105 83 74 q 102 154 83 137 q 152 172 122 172 l 165 172 q 239 94 239 172 l 239 61 q 194 -85 239 -9 q 110 -161 150 -161 l 106 -161 q 82 -140 82 -161 m 328 98 l 328 111 q 347 154 328 137 q 395 172 366 172 l 413 172 q 486 83 486 172 l 486 74 q 439 -86 486 -12 q 357 -159 393 -159 l 350 -159 q 328 -138 328 -159 l 328 -131 q 340 -104 328 -127 q 361 -61 353 -81 q 370 -26 370 -42 q 349 33 370 -10 q 328 98 328 75 z "},"":{"ha":661,"x_min":83,"x_max":576,"o":"m 576 646 q 552 607 576 618 q 464 595 528 595 q 387 545 399 595 q 380 255 380 518 q 377 -39 380 -8 q 335 -100 372 -100 l 321 -100 q 286 -51 292 -100 q 281 251 281 -21 q 273 553 281 523 q 241 591 264 583 q 176 594 232 594 q 102 607 120 594 q 83 633 83 621 q 149 689 83 689 l 223 686 q 285 731 285 686 q 283 762 285 741 l 279 811 q 275 905 275 876 q 341 959 275 959 q 375 944 366 959 q 384 886 384 930 l 376 728 q 392 697 376 707 q 455 687 407 687 l 500 689 q 576 646 576 689 z "},"":{"ha":675,"x_min":92,"x_max":583,"o":"m 107 222 q 176 258 107 252 q 260 285 245 264 q 284 422 284 317 l 286 442 q 288 533 288 481 q 270 598 288 584 q 207 612 252 612 q 92 647 92 612 l 92 662 q 168 703 92 703 l 207 702 q 273 713 256 702 q 290 777 290 725 l 284 899 q 298 948 284 935 q 351 961 311 961 q 391 892 391 961 l 385 770 q 403 712 385 721 q 502 703 420 703 q 583 675 583 703 l 583 661 q 481 612 583 612 q 404 595 418 612 q 389 494 389 578 q 417 279 389 308 q 489 260 429 268 q 560 247 550 252 q 570 218 570 241 q 535 177 570 194 q 474 165 524 172 q 404 147 424 159 q 384 92 384 135 l 391 -52 q 342 -113 391 -113 l 322 -113 q 286 -42 286 -113 l 293 103 q 277 145 293 134 q 207 164 262 157 q 130 180 152 171 q 107 222 107 190 z "},"":{"ha":568,"x_min":117,"x_max":449,"o":"m 449 456 l 449 435 q 395 313 449 353 q 276 273 342 273 l 271 274 q 159 316 201 274 q 117 422 117 359 l 117 449 q 164 553 117 505 q 278 600 212 600 l 295 600 q 403 558 357 600 q 449 456 449 517 z "},"":{"ha":980,"x_min":68,"x_max":877,"o":"m 68 80 q 146 159 68 159 l 160 159 q 210 143 190 159 q 230 91 230 126 l 230 69 l 227 53 q 210 17 227 35 q 168 0 193 0 l 155 -2 l 136 -2 q 90 13 108 -2 q 71 50 71 28 q 69 60 69 56 l 68 77 l 68 80 m 502 157 q 537 139 522 157 q 552 99 552 121 l 554 83 l 554 77 l 551 56 q 535 19 551 39 q 489 -1 519 -1 l 473 -3 l 465 -3 l 443 0 q 410 16 426 0 q 394 55 394 32 l 392 71 l 392 85 l 395 103 q 411 138 395 119 q 454 157 427 157 q 462 158 459 158 l 475 159 l 478 159 l 481 159 l 497 157 q 502 157 500 157 m 806 159 q 828 157 814 157 q 859 141 842 157 q 875 103 875 125 l 877 90 l 877 71 q 859 19 877 37 q 819 1 840 1 q 808 -1 811 -1 l 795 -3 l 789 -3 q 735 14 751 -3 q 718 51 718 31 q 717 59 717 56 l 715 70 l 715 86 q 734 138 715 120 q 776 157 752 157 q 784 158 781 158 l 798 159 l 806 159 z "},"":{"ha":1525,"x_min":61,"x_max":1423,"o":"m 330 690 l 330 725 q 305 825 330 785 q 246 866 281 866 l 226 866 q 162 819 187 866 q 136 715 136 772 l 136 676 q 138 653 138 662 q 165 574 138 609 q 222 539 193 539 l 238 539 q 302 581 274 539 q 330 690 330 623 m 650 222 l 651 199 q 676 118 651 155 q 741 82 702 82 l 745 82 q 817 127 785 82 q 848 248 848 172 l 848 269 q 821 379 848 340 q 758 418 793 418 l 749 418 q 737 416 741 416 q 680 375 709 416 q 651 277 651 333 l 650 267 l 649 247 l 649 227 l 650 222 m 1194 77 l 1206 77 q 1280 124 1250 77 q 1310 254 1310 172 l 1310 263 l 1309 269 l 1308 283 l 1307 301 q 1277 384 1307 341 q 1222 410 1259 410 l 1217 409 q 1142 365 1173 409 q 1111 233 1111 320 l 1111 223 l 1112 218 q 1112 209 1112 214 l 1113 191 q 1145 100 1113 142 q 1194 77 1163 77 m 454 705 l 454 690 q 400 522 454 590 q 263 454 346 454 l 241 454 q 113 514 165 454 q 61 665 61 574 l 61 696 q 116 855 61 788 q 254 922 170 922 l 276 922 q 405 860 355 922 q 454 705 454 798 m 661 833 q 763 934 723 934 q 804 912 804 934 q 324 97 804 886 q 228 5 269 5 q 187 26 187 5 q 661 833 187 70 m 957 254 l 957 239 q 903 73 957 140 q 767 6 850 6 l 745 6 q 618 65 670 6 q 567 209 567 125 l 567 254 q 623 407 567 342 q 760 471 679 471 l 781 471 q 910 408 863 471 q 957 254 957 344 m 1423 262 l 1423 224 q 1368 72 1423 136 q 1232 7 1312 7 l 1210 7 q 1087 63 1140 7 q 1035 210 1035 120 l 1035 247 q 1090 408 1035 344 q 1224 471 1145 471 l 1246 471 q 1374 410 1325 471 q 1423 262 1423 348 z "},"":{"ha":500,"x_min":73,"x_max":403,"o":"m 203 370 q 302 255 203 360 q 401 118 401 151 q 372 85 401 85 q 208 212 343 85 q 73 367 73 340 q 212 525 73 393 q 377 656 351 656 q 403 626 403 656 q 303 485 403 597 q 203 370 203 372 z "},"":{"ha":501,"x_min":102,"x_max":427,"o":"m 104 116 q 193 245 104 139 l 233 289 q 269 330 234 290 q 303 377 303 368 q 203 487 303 387 q 102 621 102 587 l 102 627 q 129 658 102 658 l 135 658 q 291 530 156 658 q 427 378 427 402 q 291 219 427 355 q 134 84 156 84 q 104 116 104 84 z "},"":{"ha":494,"x_min":-58,"x_max":540,"o":"m -58 -12 q -7 92 -58 0 q 224 525 43 184 q 435 915 405 865 q 503 966 465 966 q 540 947 540 966 q 509 882 540 937 q 289 468 479 826 q 66 54 98 111 q -19 -31 19 -31 q -58 -12 -58 -31 z "},"":{"ha":867,"x_min":64,"x_max":749,"o":"m 465 411 q 554 377 554 404 q 492 333 554 351 q 376 291 397 305 q 355 236 355 276 q 417 154 355 195 q 564 113 479 113 q 652 129 591 113 q 722 145 713 145 q 749 117 749 145 q 725 74 749 101 q 646 21 702 47 q 517 -4 589 -4 q 279 73 368 -4 q 184 208 228 117 q 113 319 141 298 q 64 369 64 355 q 101 413 64 394 q 139 446 139 431 q 120 500 139 486 q 74 541 74 536 q 120 601 74 562 q 194 708 146 623 q 296 841 241 795 q 540 926 397 926 q 689 896 633 926 q 745 814 745 866 q 699 783 745 783 q 641 799 694 783 q 553 815 587 815 q 431 773 492 815 q 371 675 371 732 q 506 594 372 621 q 574 558 574 581 q 421 508 574 518 q 329 496 345 503 q 302 456 302 484 q 340 419 302 427 q 389 415 349 417 l 465 411 z "},"":{"ha":1133,"x_min":71,"x_max":1032,"o":"m 416 869 q 334 888 359 888 q 300 862 309 888 q 296 765 296 850 l 296 627 l 297 598 q 309 551 297 576 q 321 513 321 527 q 256 481 321 481 q 191 525 191 481 q 202 556 191 528 q 214 627 214 584 l 214 727 q 209 857 214 836 q 174 886 201 886 q 121 876 147 886 q 87 866 96 866 q 71 902 71 866 q 92 949 71 937 q 260 954 100 954 l 397 954 q 440 903 440 954 q 416 869 440 869 m 1032 529 q 989 501 1032 501 q 930 549 930 501 l 931 562 l 932 576 q 934 608 934 596 q 913 801 934 801 q 858 683 904 801 q 806 556 811 566 q 759 517 787 517 q 679 660 739 517 q 612 803 618 803 q 596 664 596 803 l 595 647 q 595 613 595 630 l 599 552 q 547 502 599 502 q 511 522 511 502 l 511 532 l 527 581 l 527 699 l 528 718 q 528 754 528 736 l 530 791 l 530 834 q 524 887 530 859 q 518 916 518 915 q 564 937 518 937 q 633 907 610 937 q 712 770 656 877 q 770 663 768 663 q 834 773 778 663 q 913 911 890 884 q 987 939 936 939 q 1020 914 1020 939 q 1013 840 1013 860 l 1012 822 l 1013 730 q 1013 674 1013 702 l 1012 604 q 1022 558 1012 582 q 1032 529 1032 534 z "},"":{"ha":705,"x_min":77,"x_max":630,"o":"m 77 387 l 77 399 q 113 445 77 439 q 366 450 140 450 l 474 450 l 575 450 q 630 419 630 450 l 630 407 q 594 361 630 367 q 349 357 575 357 l 336 357 l 259 357 l 240 356 l 125 356 q 77 387 77 356 z "}}}
